<svg xmlns="http://www.w3.org/2000/svg" xmlns:xlink="http://www.w3.org/1999/xlink" width="600" height="400" viewBox="0 0 2400 1600" style="width: 100%; height: 100%;">
<defs>
  <clipPath id="clip6500">
    <rect x="0" y="0" width="2400" height="1600"></rect>
  </clipPath>
</defs>
<path clip-path="url(#clip6500)" d="
M0 1600 L2400 1600 L2400 0 L0 0  Z
  " fill="#ffffff" fill-rule="evenodd" fill-opacity="1"></path>
<defs>
  <clipPath id="clip6501">
    <rect x="480" y="0" width="1681" height="1600"></rect>
  </clipPath>
</defs>
<path clip-path="url(#clip6500)" d="
M188.612 1486.45 L2352.76 1486.45 L2352.76 123.472 L188.612 123.472  Z
  " fill="#ffffff" fill-rule="evenodd" fill-opacity="1"></path>
<defs>
  <clipPath id="clip6502">
    <rect x="188" y="123" width="2165" height="1364"></rect>
  </clipPath>
</defs>
<polyline clip-path="url(#clip6502)" style="stroke:#000000; stroke-width:2; stroke-opacity:0.1; fill:none" points="
  215.135,1486.45 215.135,123.472 
  "></polyline>
<polyline clip-path="url(#clip6502)" style="stroke:#000000; stroke-width:2; stroke-opacity:0.1; fill:none" points="
  769.618,1486.45 769.618,123.472 
  "></polyline>
<polyline clip-path="url(#clip6502)" style="stroke:#000000; stroke-width:2; stroke-opacity:0.1; fill:none" points="
  1324.1,1486.45 1324.1,123.472 
  "></polyline>
<polyline clip-path="url(#clip6502)" style="stroke:#000000; stroke-width:2; stroke-opacity:0.1; fill:none" points="
  1878.59,1486.45 1878.59,123.472 
  "></polyline>
<polyline clip-path="url(#clip6502)" style="stroke:#000000; stroke-width:2; stroke-opacity:0.1; fill:none" points="
  188.612,1325.04 2352.76,1325.04 
  "></polyline>
<polyline clip-path="url(#clip6502)" style="stroke:#000000; stroke-width:2; stroke-opacity:0.1; fill:none" points="
  188.612,1115.42 2352.76,1115.42 
  "></polyline>
<polyline clip-path="url(#clip6502)" style="stroke:#000000; stroke-width:2; stroke-opacity:0.1; fill:none" points="
  188.612,905.806 2352.76,905.806 
  "></polyline>
<polyline clip-path="url(#clip6502)" style="stroke:#000000; stroke-width:2; stroke-opacity:0.1; fill:none" points="
  188.612,696.19 2352.76,696.19 
  "></polyline>
<polyline clip-path="url(#clip6502)" style="stroke:#000000; stroke-width:2; stroke-opacity:0.1; fill:none" points="
  188.612,486.574 2352.76,486.574 
  "></polyline>
<polyline clip-path="url(#clip6502)" style="stroke:#000000; stroke-width:2; stroke-opacity:0.1; fill:none" points="
  188.612,276.958 2352.76,276.958 
  "></polyline>
<polyline clip-path="url(#clip6500)" style="stroke:#000000; stroke-width:4; stroke-opacity:1; fill:none" points="
  188.612,1486.45 2352.76,1486.45 
  "></polyline>
<polyline clip-path="url(#clip6500)" style="stroke:#000000; stroke-width:4; stroke-opacity:1; fill:none" points="
  188.612,1486.45 188.612,123.472 
  "></polyline>
<polyline clip-path="url(#clip6500)" style="stroke:#000000; stroke-width:4; stroke-opacity:1; fill:none" points="
  215.135,1486.45 215.135,1470.09 
  "></polyline>
<polyline clip-path="url(#clip6500)" style="stroke:#000000; stroke-width:4; stroke-opacity:1; fill:none" points="
  769.618,1486.45 769.618,1470.09 
  "></polyline>
<polyline clip-path="url(#clip6500)" style="stroke:#000000; stroke-width:4; stroke-opacity:1; fill:none" points="
  1324.1,1486.45 1324.1,1470.09 
  "></polyline>
<polyline clip-path="url(#clip6500)" style="stroke:#000000; stroke-width:4; stroke-opacity:1; fill:none" points="
  1878.59,1486.45 1878.59,1470.09 
  "></polyline>
<polyline clip-path="url(#clip6500)" style="stroke:#000000; stroke-width:4; stroke-opacity:1; fill:none" points="
  188.612,1325.04 214.582,1325.04 
  "></polyline>
<polyline clip-path="url(#clip6500)" style="stroke:#000000; stroke-width:4; stroke-opacity:1; fill:none" points="
  188.612,1115.42 214.582,1115.42 
  "></polyline>
<polyline clip-path="url(#clip6500)" style="stroke:#000000; stroke-width:4; stroke-opacity:1; fill:none" points="
  188.612,905.806 214.582,905.806 
  "></polyline>
<polyline clip-path="url(#clip6500)" style="stroke:#000000; stroke-width:4; stroke-opacity:1; fill:none" points="
  188.612,696.19 214.582,696.19 
  "></polyline>
<polyline clip-path="url(#clip6500)" style="stroke:#000000; stroke-width:4; stroke-opacity:1; fill:none" points="
  188.612,486.574 214.582,486.574 
  "></polyline>
<polyline clip-path="url(#clip6500)" style="stroke:#000000; stroke-width:4; stroke-opacity:1; fill:none" points="
  188.612,276.958 214.582,276.958 
  "></polyline>
<path clip-path="url(#clip6500)" d="M 0 0 M97.4157 1535.98 L105.055 1535.98 L105.055 1509.62 L96.7444 1511.29 L96.7444 1507.03 L105.008 1505.36 L109.684 1505.36 L109.684 1535.98 L117.323 1535.98 L117.323 1539.92 L97.4157 1539.92 L97.4157 1535.98 Z" fill="#000000" fill-rule="evenodd" fill-opacity="1"></path><path clip-path="url(#clip6500)" d="M 0 0 M122.531 1539.2 L122.531 1534.94 Q124.291 1535.78 126.096 1536.22 Q127.902 1536.66 129.638 1536.66 Q134.267 1536.66 136.698 1533.55 Q139.152 1530.43 139.499 1524.09 Q138.156 1526.08 136.096 1527.14 Q134.036 1528.21 131.536 1528.21 Q126.351 1528.21 123.318 1525.08 Q120.309 1521.93 120.309 1516.49 Q120.309 1511.17 123.457 1507.95 Q126.605 1504.73 131.837 1504.73 Q137.832 1504.73 140.98 1509.34 Q144.152 1513.92 144.152 1522.67 Q144.152 1530.85 140.263 1535.73 Q136.397 1540.59 129.846 1540.59 Q128.087 1540.59 126.281 1540.24 Q124.476 1539.9 122.531 1539.2 M131.837 1524.55 Q134.985 1524.55 136.814 1522.4 Q138.665 1520.24 138.665 1516.49 Q138.665 1512.77 136.814 1510.61 Q134.985 1508.44 131.837 1508.44 Q128.689 1508.44 126.837 1510.61 Q125.008 1512.77 125.008 1516.49 Q125.008 1520.24 126.837 1522.4 Q128.689 1524.55 131.837 1524.55 Z" fill="#000000" fill-rule="evenodd" fill-opacity="1"></path><path clip-path="url(#clip6500)" d="M 0 0 M159.8 1520.78 Q156.651 1520.78 154.8 1522.93 Q152.971 1525.08 152.971 1528.83 Q152.971 1532.56 154.8 1534.73 Q156.651 1536.89 159.8 1536.89 Q162.948 1536.89 164.776 1534.73 Q166.628 1532.56 166.628 1528.83 Q166.628 1525.08 164.776 1522.93 Q162.948 1520.78 159.8 1520.78 M169.082 1506.12 L169.082 1510.38 Q167.323 1509.55 165.517 1509.11 Q163.735 1508.67 161.975 1508.67 Q157.346 1508.67 154.892 1511.8 Q152.462 1514.92 152.114 1521.24 Q153.48 1519.23 155.54 1518.16 Q157.601 1517.07 160.077 1517.07 Q165.286 1517.07 168.295 1520.24 Q171.327 1523.39 171.327 1528.83 Q171.327 1534.16 168.179 1537.37 Q165.031 1540.59 159.8 1540.59 Q153.804 1540.59 150.633 1536.01 Q147.462 1531.4 147.462 1522.67 Q147.462 1514.48 151.351 1509.62 Q155.239 1504.73 161.79 1504.73 Q163.55 1504.73 165.332 1505.08 Q167.138 1505.43 169.082 1506.12 Z" fill="#000000" fill-rule="evenodd" fill-opacity="1"></path><path clip-path="url(#clip6500)" d="M 0 0 M186.397 1508.44 Q182.786 1508.44 180.957 1512 Q179.151 1515.55 179.151 1522.67 Q179.151 1529.78 180.957 1533.35 Q182.786 1536.89 186.397 1536.89 Q190.031 1536.89 191.836 1533.35 Q193.665 1529.78 193.665 1522.67 Q193.665 1515.55 191.836 1512 Q190.031 1508.44 186.397 1508.44 M186.397 1504.73 Q192.207 1504.73 195.262 1509.34 Q198.341 1513.92 198.341 1522.67 Q198.341 1531.4 195.262 1536.01 Q192.207 1540.59 186.397 1540.59 Q180.587 1540.59 177.508 1536.01 Q174.452 1531.4 174.452 1522.67 Q174.452 1513.92 177.508 1509.34 Q180.587 1504.73 186.397 1504.73 Z" fill="#000000" fill-rule="evenodd" fill-opacity="1"></path><path clip-path="url(#clip6500)" d="M 0 0 M200.656 1525.04 L213.133 1525.04 L213.133 1528.83 L200.656 1528.83 L200.656 1525.04 Z" fill="#000000" fill-rule="evenodd" fill-opacity="1"></path><path clip-path="url(#clip6500)" d="M 0 0 M228.202 1508.44 Q224.591 1508.44 222.762 1512 Q220.957 1515.55 220.957 1522.67 Q220.957 1529.78 222.762 1533.35 Q224.591 1536.89 228.202 1536.89 Q231.836 1536.89 233.642 1533.35 Q235.47 1529.78 235.47 1522.67 Q235.47 1515.55 233.642 1512 Q231.836 1508.44 228.202 1508.44 M228.202 1504.73 Q234.012 1504.73 237.068 1509.34 Q240.146 1513.92 240.146 1522.67 Q240.146 1531.4 237.068 1536.01 Q234.012 1540.59 228.202 1540.59 Q222.392 1540.59 219.313 1536.01 Q216.258 1531.4 216.258 1522.67 Q216.258 1513.92 219.313 1509.34 Q222.392 1504.73 228.202 1504.73 Z" fill="#000000" fill-rule="evenodd" fill-opacity="1"></path><path clip-path="url(#clip6500)" d="M 0 0 M246.026 1535.98 L253.665 1535.98 L253.665 1509.62 L245.355 1511.29 L245.355 1507.03 L253.619 1505.36 L258.294 1505.36 L258.294 1535.98 L265.933 1535.98 L265.933 1539.92 L246.026 1539.92 L246.026 1535.98 Z" fill="#000000" fill-rule="evenodd" fill-opacity="1"></path><path clip-path="url(#clip6500)" d="M 0 0 M268.248 1525.04 L280.725 1525.04 L280.725 1528.83 L268.248 1528.83 L268.248 1525.04 Z" fill="#000000" fill-rule="evenodd" fill-opacity="1"></path><path clip-path="url(#clip6500)" d="M 0 0 M295.794 1508.44 Q292.183 1508.44 290.354 1512 Q288.549 1515.55 288.549 1522.67 Q288.549 1529.78 290.354 1533.35 Q292.183 1536.89 295.794 1536.89 Q299.428 1536.89 301.234 1533.35 Q303.063 1529.78 303.063 1522.67 Q303.063 1515.55 301.234 1512 Q299.428 1508.44 295.794 1508.44 M295.794 1504.73 Q301.604 1504.73 304.66 1509.34 Q307.739 1513.92 307.739 1522.67 Q307.739 1531.4 304.66 1536.01 Q301.604 1540.59 295.794 1540.59 Q289.984 1540.59 286.905 1536.01 Q283.85 1531.4 283.85 1522.67 Q283.85 1513.92 286.905 1509.34 Q289.984 1504.73 295.794 1504.73 Z" fill="#000000" fill-rule="evenodd" fill-opacity="1"></path><path clip-path="url(#clip6500)" d="M 0 0 M313.618 1535.98 L321.257 1535.98 L321.257 1509.62 L312.947 1511.29 L312.947 1507.03 L321.211 1505.36 L325.887 1505.36 L325.887 1535.98 L333.526 1535.98 L333.526 1539.92 L313.618 1539.92 L313.618 1535.98 Z" fill="#000000" fill-rule="evenodd" fill-opacity="1"></path><path clip-path="url(#clip6500)" d="M 0 0 M652.35 1535.98 L659.989 1535.98 L659.989 1509.62 L651.679 1511.29 L651.679 1507.03 L659.943 1505.36 L664.619 1505.36 L664.619 1535.98 L672.258 1535.98 L672.258 1539.92 L652.35 1539.92 L652.35 1535.98 Z" fill="#000000" fill-rule="evenodd" fill-opacity="1"></path><path clip-path="url(#clip6500)" d="M 0 0 M677.466 1539.2 L677.466 1534.94 Q679.225 1535.78 681.031 1536.22 Q682.836 1536.66 684.573 1536.66 Q689.202 1536.66 691.633 1533.55 Q694.086 1530.43 694.434 1524.09 Q693.091 1526.08 691.031 1527.14 Q688.971 1528.21 686.471 1528.21 Q681.286 1528.21 678.253 1525.08 Q675.244 1521.93 675.244 1516.49 Q675.244 1511.17 678.392 1507.95 Q681.54 1504.73 686.772 1504.73 Q692.767 1504.73 695.915 1509.34 Q699.086 1513.92 699.086 1522.67 Q699.086 1530.85 695.197 1535.73 Q691.332 1540.59 684.781 1540.59 Q683.022 1540.59 681.216 1540.24 Q679.411 1539.9 677.466 1539.2 M686.772 1524.55 Q689.92 1524.55 691.748 1522.4 Q693.6 1520.24 693.6 1516.49 Q693.6 1512.77 691.748 1510.61 Q689.92 1508.44 686.772 1508.44 Q683.623 1508.44 681.772 1510.61 Q679.943 1512.77 679.943 1516.49 Q679.943 1520.24 681.772 1522.4 Q683.623 1524.55 686.772 1524.55 Z" fill="#000000" fill-rule="evenodd" fill-opacity="1"></path><path clip-path="url(#clip6500)" d="M 0 0 M702.975 1505.36 L725.197 1505.36 L725.197 1507.35 L712.651 1539.92 L707.767 1539.92 L719.572 1509.3 L702.975 1509.3 L702.975 1505.36 Z" fill="#000000" fill-rule="evenodd" fill-opacity="1"></path><path clip-path="url(#clip6500)" d="M 0 0 M740.845 1520.78 Q737.697 1520.78 735.845 1522.93 Q734.017 1525.08 734.017 1528.83 Q734.017 1532.56 735.845 1534.73 Q737.697 1536.89 740.845 1536.89 Q743.994 1536.89 745.822 1534.73 Q747.674 1532.56 747.674 1528.83 Q747.674 1525.08 745.822 1522.93 Q743.994 1520.78 740.845 1520.78 M750.128 1506.12 L750.128 1510.38 Q748.368 1509.55 746.563 1509.11 Q744.781 1508.67 743.021 1508.67 Q738.392 1508.67 735.938 1511.8 Q733.507 1514.92 733.16 1521.24 Q734.526 1519.23 736.586 1518.16 Q738.646 1517.07 741.123 1517.07 Q746.331 1517.07 749.341 1520.24 Q752.373 1523.39 752.373 1528.83 Q752.373 1534.16 749.225 1537.37 Q746.077 1540.59 740.845 1540.59 Q734.85 1540.59 731.679 1536.01 Q728.507 1531.4 728.507 1522.67 Q728.507 1514.48 732.396 1509.62 Q736.285 1504.73 742.836 1504.73 Q744.595 1504.73 746.378 1505.08 Q748.183 1505.43 750.128 1506.12 Z" fill="#000000" fill-rule="evenodd" fill-opacity="1"></path><path clip-path="url(#clip6500)" d="M 0 0 M754.688 1525.04 L767.165 1525.04 L767.165 1528.83 L754.688 1528.83 L754.688 1525.04 Z" fill="#000000" fill-rule="evenodd" fill-opacity="1"></path><path clip-path="url(#clip6500)" d="M 0 0 M782.234 1508.44 Q778.623 1508.44 776.794 1512 Q774.989 1515.55 774.989 1522.67 Q774.989 1529.78 776.794 1533.35 Q778.623 1536.89 782.234 1536.89 Q785.868 1536.89 787.674 1533.35 Q789.503 1529.78 789.503 1522.67 Q789.503 1515.55 787.674 1512 Q785.868 1508.44 782.234 1508.44 M782.234 1504.73 Q788.044 1504.73 791.1 1509.34 Q794.178 1513.92 794.178 1522.67 Q794.178 1531.4 791.1 1536.01 Q788.044 1540.59 782.234 1540.59 Q776.424 1540.59 773.345 1536.01 Q770.29 1531.4 770.29 1522.67 Q770.29 1513.92 773.345 1509.34 Q776.424 1504.73 782.234 1504.73 Z" fill="#000000" fill-rule="evenodd" fill-opacity="1"></path><path clip-path="url(#clip6500)" d="M 0 0 M800.058 1535.98 L807.697 1535.98 L807.697 1509.62 L799.387 1511.29 L799.387 1507.03 L807.651 1505.36 L812.326 1505.36 L812.326 1535.98 L819.965 1535.98 L819.965 1539.92 L800.058 1539.92 L800.058 1535.98 Z" fill="#000000" fill-rule="evenodd" fill-opacity="1"></path><path clip-path="url(#clip6500)" d="M 0 0 M822.28 1525.04 L834.757 1525.04 L834.757 1528.83 L822.28 1528.83 L822.28 1525.04 Z" fill="#000000" fill-rule="evenodd" fill-opacity="1"></path><path clip-path="url(#clip6500)" d="M 0 0 M849.826 1508.44 Q846.215 1508.44 844.386 1512 Q842.581 1515.55 842.581 1522.67 Q842.581 1529.78 844.386 1533.35 Q846.215 1536.89 849.826 1536.89 Q853.461 1536.89 855.266 1533.35 Q857.095 1529.78 857.095 1522.67 Q857.095 1515.55 855.266 1512 Q853.461 1508.44 849.826 1508.44 M849.826 1504.73 Q855.636 1504.73 858.692 1509.34 Q861.771 1513.92 861.771 1522.67 Q861.771 1531.4 858.692 1536.01 Q855.636 1540.59 849.826 1540.59 Q844.016 1540.59 840.937 1536.01 Q837.882 1531.4 837.882 1522.67 Q837.882 1513.92 840.937 1509.34 Q844.016 1504.73 849.826 1504.73 Z" fill="#000000" fill-rule="evenodd" fill-opacity="1"></path><path clip-path="url(#clip6500)" d="M 0 0 M867.65 1535.98 L875.289 1535.98 L875.289 1509.62 L866.979 1511.29 L866.979 1507.03 L875.243 1505.36 L879.919 1505.36 L879.919 1535.98 L887.558 1535.98 L887.558 1539.92 L867.65 1539.92 L867.65 1535.98 Z" fill="#000000" fill-rule="evenodd" fill-opacity="1"></path><path clip-path="url(#clip6500)" d="M 0 0 M1207.35 1535.98 L1214.99 1535.98 L1214.99 1509.62 L1206.68 1511.29 L1206.68 1507.03 L1214.95 1505.36 L1219.62 1505.36 L1219.62 1535.98 L1227.26 1535.98 L1227.26 1539.92 L1207.35 1539.92 L1207.35 1535.98 Z" fill="#000000" fill-rule="evenodd" fill-opacity="1"></path><path clip-path="url(#clip6500)" d="M 0 0 M1232.47 1539.2 L1232.47 1534.94 Q1234.23 1535.78 1236.04 1536.22 Q1237.84 1536.66 1239.58 1536.66 Q1244.21 1536.66 1246.64 1533.55 Q1249.09 1530.43 1249.44 1524.09 Q1248.1 1526.08 1246.04 1527.14 Q1243.97 1528.21 1241.47 1528.21 Q1236.29 1528.21 1233.26 1525.08 Q1230.25 1521.93 1230.25 1516.49 Q1230.25 1511.17 1233.4 1507.95 Q1236.54 1504.73 1241.78 1504.73 Q1247.77 1504.73 1250.92 1509.34 Q1254.09 1513.92 1254.09 1522.67 Q1254.09 1530.85 1250.2 1535.73 Q1246.34 1540.59 1239.79 1540.59 Q1238.03 1540.59 1236.22 1540.24 Q1234.41 1539.9 1232.47 1539.2 M1241.78 1524.55 Q1244.92 1524.55 1246.75 1522.4 Q1248.6 1520.24 1248.6 1516.49 Q1248.6 1512.77 1246.75 1510.61 Q1244.92 1508.44 1241.78 1508.44 Q1238.63 1508.44 1236.78 1510.61 Q1234.95 1512.77 1234.95 1516.49 Q1234.95 1520.24 1236.78 1522.4 Q1238.63 1524.55 1241.78 1524.55 Z" fill="#000000" fill-rule="evenodd" fill-opacity="1"></path><path clip-path="url(#clip6500)" d="M 0 0 M1259.3 1539.2 L1259.3 1534.94 Q1261.06 1535.78 1262.86 1536.22 Q1264.67 1536.66 1266.41 1536.66 Q1271.03 1536.66 1273.47 1533.55 Q1275.92 1530.43 1276.27 1524.09 Q1274.92 1526.08 1272.86 1527.14 Q1270.8 1528.21 1268.3 1528.21 Q1263.12 1528.21 1260.09 1525.08 Q1257.08 1521.93 1257.08 1516.49 Q1257.08 1511.17 1260.22 1507.95 Q1263.37 1504.73 1268.6 1504.73 Q1274.6 1504.73 1277.75 1509.34 Q1280.92 1513.92 1280.92 1522.67 Q1280.92 1530.85 1277.03 1535.73 Q1273.16 1540.59 1266.61 1540.59 Q1264.85 1540.59 1263.05 1540.24 Q1261.24 1539.9 1259.3 1539.2 M1268.6 1524.55 Q1271.75 1524.55 1273.58 1522.4 Q1275.43 1520.24 1275.43 1516.49 Q1275.43 1512.77 1273.58 1510.61 Q1271.75 1508.44 1268.6 1508.44 Q1265.46 1508.44 1263.6 1510.61 Q1261.78 1512.77 1261.78 1516.49 Q1261.78 1520.24 1263.6 1522.4 Q1265.46 1524.55 1268.6 1524.55 Z" fill="#000000" fill-rule="evenodd" fill-opacity="1"></path><path clip-path="url(#clip6500)" d="M 0 0 M1290.02 1535.98 L1306.34 1535.98 L1306.34 1539.92 L1284.39 1539.92 L1284.39 1535.98 Q1287.05 1533.23 1291.64 1528.6 Q1296.24 1523.95 1297.42 1522.61 Q1299.67 1520.08 1300.55 1518.35 Q1301.45 1516.59 1301.45 1514.9 Q1301.45 1512.14 1299.51 1510.41 Q1297.59 1508.67 1294.48 1508.67 Q1292.28 1508.67 1289.83 1509.43 Q1287.4 1510.2 1284.62 1511.75 L1284.62 1507.03 Q1287.45 1505.89 1289.9 1505.31 Q1292.35 1504.73 1294.39 1504.73 Q1299.76 1504.73 1302.96 1507.42 Q1306.15 1510.11 1306.15 1514.6 Q1306.15 1516.73 1305.34 1518.65 Q1304.55 1520.54 1302.45 1523.14 Q1301.87 1523.81 1298.77 1527.03 Q1295.66 1530.22 1290.02 1535.98 Z" fill="#000000" fill-rule="evenodd" fill-opacity="1"></path><path clip-path="url(#clip6500)" d="M 0 0 M1308.65 1525.04 L1321.13 1525.04 L1321.13 1528.83 L1308.65 1528.83 L1308.65 1525.04 Z" fill="#000000" fill-rule="evenodd" fill-opacity="1"></path><path clip-path="url(#clip6500)" d="M 0 0 M1336.2 1508.44 Q1332.59 1508.44 1330.76 1512 Q1328.95 1515.55 1328.95 1522.67 Q1328.95 1529.78 1330.76 1533.35 Q1332.59 1536.89 1336.2 1536.89 Q1339.83 1536.89 1341.64 1533.35 Q1343.47 1529.78 1343.47 1522.67 Q1343.47 1515.55 1341.64 1512 Q1339.83 1508.44 1336.2 1508.44 M1336.2 1504.73 Q1342.01 1504.73 1345.06 1509.34 Q1348.14 1513.92 1348.14 1522.67 Q1348.14 1531.4 1345.06 1536.01 Q1342.01 1540.59 1336.2 1540.59 Q1330.39 1540.59 1327.31 1536.01 Q1324.25 1531.4 1324.25 1522.67 Q1324.25 1513.92 1327.31 1509.34 Q1330.39 1504.73 1336.2 1504.73 Z" fill="#000000" fill-rule="evenodd" fill-opacity="1"></path><path clip-path="url(#clip6500)" d="M 0 0 M1354.02 1535.98 L1361.66 1535.98 L1361.66 1509.62 L1353.35 1511.29 L1353.35 1507.03 L1361.61 1505.36 L1366.29 1505.36 L1366.29 1535.98 L1373.93 1535.98 L1373.93 1539.92 L1354.02 1539.92 L1354.02 1535.98 Z" fill="#000000" fill-rule="evenodd" fill-opacity="1"></path><path clip-path="url(#clip6500)" d="M 0 0 M1376.24 1525.04 L1388.72 1525.04 L1388.72 1528.83 L1376.24 1528.83 L1376.24 1525.04 Z" fill="#000000" fill-rule="evenodd" fill-opacity="1"></path><path clip-path="url(#clip6500)" d="M 0 0 M1403.79 1508.44 Q1400.18 1508.44 1398.35 1512 Q1396.54 1515.55 1396.54 1522.67 Q1396.54 1529.78 1398.35 1533.35 Q1400.18 1536.89 1403.79 1536.89 Q1407.42 1536.89 1409.23 1533.35 Q1411.06 1529.78 1411.06 1522.67 Q1411.06 1515.55 1409.23 1512 Q1407.42 1508.44 1403.79 1508.44 M1403.79 1504.73 Q1409.6 1504.73 1412.65 1509.34 Q1415.73 1513.92 1415.73 1522.67 Q1415.73 1531.4 1412.65 1536.01 Q1409.6 1540.59 1403.79 1540.59 Q1397.98 1540.59 1394.9 1536.01 Q1391.84 1531.4 1391.84 1522.67 Q1391.84 1513.92 1394.9 1509.34 Q1397.98 1504.73 1403.79 1504.73 Z" fill="#000000" fill-rule="evenodd" fill-opacity="1"></path><path clip-path="url(#clip6500)" d="M 0 0 M1421.61 1535.98 L1429.25 1535.98 L1429.25 1509.62 L1420.94 1511.29 L1420.94 1507.03 L1429.21 1505.36 L1433.88 1505.36 L1433.88 1535.98 L1441.52 1535.98 L1441.52 1539.92 L1421.61 1539.92 L1421.61 1535.98 Z" fill="#000000" fill-rule="evenodd" fill-opacity="1"></path><path clip-path="url(#clip6500)" d="M 0 0 M1765.17 1535.98 L1781.49 1535.98 L1781.49 1539.92 L1759.55 1539.92 L1759.55 1535.98 Q1762.21 1533.23 1766.79 1528.6 Q1771.4 1523.95 1772.58 1522.61 Q1774.82 1520.08 1775.7 1518.35 Q1776.61 1516.59 1776.61 1514.9 Q1776.61 1512.14 1774.66 1510.41 Q1772.74 1508.67 1769.64 1508.67 Q1767.44 1508.67 1764.99 1509.43 Q1762.56 1510.2 1759.78 1511.75 L1759.78 1507.03 Q1762.6 1505.89 1765.06 1505.31 Q1767.51 1504.73 1769.55 1504.73 Q1774.92 1504.73 1778.11 1507.42 Q1781.31 1510.11 1781.31 1514.6 Q1781.31 1516.73 1780.5 1518.65 Q1779.71 1520.54 1777.6 1523.14 Q1777.02 1523.81 1773.92 1527.03 Q1770.82 1530.22 1765.17 1535.98 Z" fill="#000000" fill-rule="evenodd" fill-opacity="1"></path><path clip-path="url(#clip6500)" d="M 0 0 M1796.56 1508.44 Q1792.95 1508.44 1791.12 1512 Q1789.31 1515.55 1789.31 1522.67 Q1789.31 1529.78 1791.12 1533.35 Q1792.95 1536.89 1796.56 1536.89 Q1800.19 1536.89 1802 1533.35 Q1803.83 1529.78 1803.83 1522.67 Q1803.83 1515.55 1802 1512 Q1800.19 1508.44 1796.56 1508.44 M1796.56 1504.73 Q1802.37 1504.73 1805.43 1509.34 Q1808.5 1513.92 1808.5 1522.67 Q1808.5 1531.4 1805.43 1536.01 Q1802.37 1540.59 1796.56 1540.59 Q1790.75 1540.59 1787.67 1536.01 Q1784.62 1531.4 1784.62 1522.67 Q1784.62 1513.92 1787.67 1509.34 Q1790.75 1504.73 1796.56 1504.73 Z" fill="#000000" fill-rule="evenodd" fill-opacity="1"></path><path clip-path="url(#clip6500)" d="M 0 0 M1823.57 1508.44 Q1819.96 1508.44 1818.13 1512 Q1816.33 1515.55 1816.33 1522.67 Q1816.33 1529.78 1818.13 1533.35 Q1819.96 1536.89 1823.57 1536.89 Q1827.21 1536.89 1829.01 1533.35 Q1830.84 1529.78 1830.84 1522.67 Q1830.84 1515.55 1829.01 1512 Q1827.21 1508.44 1823.57 1508.44 M1823.57 1504.73 Q1829.38 1504.73 1832.44 1509.34 Q1835.52 1513.92 1835.52 1522.67 Q1835.52 1531.4 1832.44 1536.01 Q1829.38 1540.59 1823.57 1540.59 Q1817.76 1540.59 1814.69 1536.01 Q1811.63 1531.4 1811.63 1522.67 Q1811.63 1513.92 1814.69 1509.34 Q1817.76 1504.73 1823.57 1504.73 Z" fill="#000000" fill-rule="evenodd" fill-opacity="1"></path><path clip-path="url(#clip6500)" d="M 0 0 M1850.59 1523.51 Q1847.25 1523.51 1845.33 1525.29 Q1843.43 1527.07 1843.43 1530.2 Q1843.43 1533.32 1845.33 1535.11 Q1847.25 1536.89 1850.59 1536.89 Q1853.92 1536.89 1855.84 1535.11 Q1857.76 1533.3 1857.76 1530.2 Q1857.76 1527.07 1855.84 1525.29 Q1853.94 1523.51 1850.59 1523.51 M1845.91 1521.52 Q1842.9 1520.78 1841.21 1518.72 Q1839.55 1516.66 1839.55 1513.69 Q1839.55 1509.55 1842.49 1507.14 Q1845.45 1504.73 1850.59 1504.73 Q1855.75 1504.73 1858.69 1507.14 Q1861.63 1509.55 1861.63 1513.69 Q1861.63 1516.66 1859.94 1518.72 Q1858.27 1520.78 1855.29 1521.52 Q1858.67 1522.3 1860.54 1524.6 Q1862.44 1526.89 1862.44 1530.2 Q1862.44 1535.22 1859.36 1537.91 Q1856.31 1540.59 1850.59 1540.59 Q1844.87 1540.59 1841.79 1537.91 Q1838.74 1535.22 1838.74 1530.2 Q1838.74 1526.89 1840.63 1524.6 Q1842.53 1522.3 1845.91 1521.52 M1844.2 1514.13 Q1844.2 1516.82 1845.87 1518.32 Q1847.56 1519.83 1850.59 1519.83 Q1853.6 1519.83 1855.29 1518.32 Q1857 1516.82 1857 1514.13 Q1857 1511.45 1855.29 1509.94 Q1853.6 1508.44 1850.59 1508.44 Q1847.56 1508.44 1845.87 1509.94 Q1844.2 1511.45 1844.2 1514.13 Z" fill="#000000" fill-rule="evenodd" fill-opacity="1"></path><path clip-path="url(#clip6500)" d="M 0 0 M1864.75 1525.04 L1877.23 1525.04 L1877.23 1528.83 L1864.75 1528.83 L1864.75 1525.04 Z" fill="#000000" fill-rule="evenodd" fill-opacity="1"></path><path clip-path="url(#clip6500)" d="M 0 0 M1892.3 1508.44 Q1888.69 1508.44 1886.86 1512 Q1885.06 1515.55 1885.06 1522.67 Q1885.06 1529.78 1886.86 1533.35 Q1888.69 1536.89 1892.3 1536.89 Q1895.93 1536.89 1897.74 1533.35 Q1899.57 1529.78 1899.57 1522.67 Q1899.57 1515.55 1897.74 1512 Q1895.93 1508.44 1892.3 1508.44 M1892.3 1504.73 Q1898.11 1504.73 1901.17 1509.34 Q1904.24 1513.92 1904.24 1522.67 Q1904.24 1531.4 1901.17 1536.01 Q1898.11 1540.59 1892.3 1540.59 Q1886.49 1540.59 1883.41 1536.01 Q1880.36 1531.4 1880.36 1522.67 Q1880.36 1513.92 1883.41 1509.34 Q1886.49 1504.73 1892.3 1504.73 Z" fill="#000000" fill-rule="evenodd" fill-opacity="1"></path><path clip-path="url(#clip6500)" d="M 0 0 M1910.12 1535.98 L1917.76 1535.98 L1917.76 1509.62 L1909.45 1511.29 L1909.45 1507.03 L1917.72 1505.36 L1922.39 1505.36 L1922.39 1535.98 L1930.03 1535.98 L1930.03 1539.92 L1910.12 1539.92 L1910.12 1535.98 Z" fill="#000000" fill-rule="evenodd" fill-opacity="1"></path><path clip-path="url(#clip6500)" d="M 0 0 M1932.35 1525.04 L1944.82 1525.04 L1944.82 1528.83 L1932.35 1528.83 L1932.35 1525.04 Z" fill="#000000" fill-rule="evenodd" fill-opacity="1"></path><path clip-path="url(#clip6500)" d="M 0 0 M1959.89 1508.44 Q1956.28 1508.44 1954.45 1512 Q1952.65 1515.55 1952.65 1522.67 Q1952.65 1529.78 1954.45 1533.35 Q1956.28 1536.89 1959.89 1536.89 Q1963.53 1536.89 1965.33 1533.35 Q1967.16 1529.78 1967.16 1522.67 Q1967.16 1515.55 1965.33 1512 Q1963.53 1508.44 1959.89 1508.44 M1959.89 1504.73 Q1965.7 1504.73 1968.76 1509.34 Q1971.84 1513.92 1971.84 1522.67 Q1971.84 1531.4 1968.76 1536.01 Q1965.7 1540.59 1959.89 1540.59 Q1954.08 1540.59 1951 1536.01 Q1947.95 1531.4 1947.95 1522.67 Q1947.95 1513.92 1951 1509.34 Q1954.08 1504.73 1959.89 1504.73 Z" fill="#000000" fill-rule="evenodd" fill-opacity="1"></path><path clip-path="url(#clip6500)" d="M 0 0 M1977.72 1535.98 L1985.36 1535.98 L1985.36 1509.62 L1977.05 1511.29 L1977.05 1507.03 L1985.31 1505.36 L1989.99 1505.36 L1989.99 1535.98 L1997.62 1535.98 L1997.62 1539.92 L1977.72 1539.92 L1977.72 1535.98 Z" fill="#000000" fill-rule="evenodd" fill-opacity="1"></path><path clip-path="url(#clip6500)" d="M 0 0 M89.3577 1307.76 L111.58 1307.76 L111.58 1309.75 L99.0336 1342.32 L94.1494 1342.32 L105.955 1311.69 L89.3577 1311.69 L89.3577 1307.76 Z" fill="#000000" fill-rule="evenodd" fill-opacity="1"></path><path clip-path="url(#clip6500)" d="M 0 0 M116.696 1307.76 L135.052 1307.76 L135.052 1311.69 L120.978 1311.69 L120.978 1320.17 Q121.996 1319.82 123.015 1319.66 Q124.033 1319.47 125.052 1319.47 Q130.839 1319.47 134.219 1322.64 Q137.598 1325.81 137.598 1331.23 Q137.598 1336.81 134.126 1339.91 Q130.654 1342.99 124.334 1342.99 Q122.158 1342.99 119.89 1342.62 Q117.645 1342.25 115.237 1341.51 L115.237 1336.81 Q117.321 1337.94 119.543 1338.5 Q121.765 1339.05 124.242 1339.05 Q128.246 1339.05 130.584 1336.95 Q132.922 1334.84 132.922 1331.23 Q132.922 1327.62 130.584 1325.51 Q128.246 1323.41 124.242 1323.41 Q122.367 1323.41 120.492 1323.82 Q118.64 1324.24 116.696 1325.12 L116.696 1307.76 Z" fill="#000000" fill-rule="evenodd" fill-opacity="1"></path><path clip-path="url(#clip6500)" d="M 0 0 M152.668 1310.84 Q149.056 1310.84 147.228 1314.4 Q145.422 1317.94 145.422 1325.07 Q145.422 1332.18 147.228 1335.74 Q149.056 1339.29 152.668 1339.29 Q156.302 1339.29 158.107 1335.74 Q159.936 1332.18 159.936 1325.07 Q159.936 1317.94 158.107 1314.4 Q156.302 1310.84 152.668 1310.84 M152.668 1307.13 Q158.478 1307.13 161.533 1311.74 Q164.612 1316.32 164.612 1325.07 Q164.612 1333.8 161.533 1338.41 Q158.478 1342.99 152.668 1342.99 Q146.857 1342.99 143.779 1338.41 Q140.723 1333.8 140.723 1325.07 Q140.723 1316.32 143.779 1311.74 Q146.857 1307.13 152.668 1307.13 Z" fill="#000000" fill-rule="evenodd" fill-opacity="1"></path><path clip-path="url(#clip6500)" d="M 0 0 M98.7327 1116.29 Q95.3994 1116.29 93.4781 1118.07 Q91.5799 1119.86 91.5799 1122.98 Q91.5799 1126.11 93.4781 1127.89 Q95.3994 1129.67 98.7327 1129.67 Q102.066 1129.67 103.987 1127.89 Q105.909 1126.08 105.909 1122.98 Q105.909 1119.86 103.987 1118.07 Q102.089 1116.29 98.7327 1116.29 M94.0568 1114.3 Q91.0475 1113.56 89.3577 1111.5 Q87.6911 1109.44 87.6911 1106.48 Q87.6911 1102.33 90.6309 1099.92 Q93.5938 1097.52 98.7327 1097.52 Q103.895 1097.52 106.834 1099.92 Q109.774 1102.33 109.774 1106.48 Q109.774 1109.44 108.084 1111.5 Q106.418 1113.56 103.432 1114.3 Q106.811 1115.09 108.686 1117.38 Q110.584 1119.67 110.584 1122.98 Q110.584 1128 107.506 1130.69 Q104.45 1133.37 98.7327 1133.37 Q93.0151 1133.37 89.9364 1130.69 Q86.8809 1128 86.8809 1122.98 Q86.8809 1119.67 88.779 1117.38 Q90.6772 1115.09 94.0568 1114.3 M92.3438 1106.92 Q92.3438 1109.6 94.0105 1111.11 Q95.7003 1112.61 98.7327 1112.61 Q101.742 1112.61 103.432 1111.11 Q105.145 1109.6 105.145 1106.92 Q105.145 1104.23 103.432 1102.73 Q101.742 1101.22 98.7327 1101.22 Q95.7003 1101.22 94.0105 1102.73 Q92.3438 1104.23 92.3438 1106.92 Z" fill="#000000" fill-rule="evenodd" fill-opacity="1"></path><path clip-path="url(#clip6500)" d="M 0 0 M125.654 1101.22 Q122.043 1101.22 120.214 1104.79 Q118.408 1108.33 118.408 1115.46 Q118.408 1122.56 120.214 1126.13 Q122.043 1129.67 125.654 1129.67 Q129.288 1129.67 131.094 1126.13 Q132.922 1122.56 132.922 1115.46 Q132.922 1108.33 131.094 1104.79 Q129.288 1101.22 125.654 1101.22 M125.654 1097.52 Q131.464 1097.52 134.52 1102.12 Q137.598 1106.71 137.598 1115.46 Q137.598 1124.18 134.52 1128.79 Q131.464 1133.37 125.654 1133.37 Q119.844 1133.37 116.765 1128.79 Q113.709 1124.18 113.709 1115.46 Q113.709 1106.71 116.765 1102.12 Q119.844 1097.52 125.654 1097.52 Z" fill="#000000" fill-rule="evenodd" fill-opacity="1"></path><path clip-path="url(#clip6500)" d="M 0 0 M152.668 1101.22 Q149.056 1101.22 147.228 1104.79 Q145.422 1108.33 145.422 1115.46 Q145.422 1122.56 147.228 1126.13 Q149.056 1129.67 152.668 1129.67 Q156.302 1129.67 158.107 1126.13 Q159.936 1122.56 159.936 1115.46 Q159.936 1108.33 158.107 1104.79 Q156.302 1101.22 152.668 1101.22 M152.668 1097.52 Q158.478 1097.52 161.533 1102.12 Q164.612 1106.71 164.612 1115.46 Q164.612 1124.18 161.533 1128.79 Q158.478 1133.37 152.668 1133.37 Q146.857 1133.37 143.779 1128.79 Q140.723 1124.18 140.723 1115.46 Q140.723 1106.71 143.779 1102.12 Q146.857 1097.52 152.668 1097.52 Z" fill="#000000" fill-rule="evenodd" fill-opacity="1"></path><path clip-path="url(#clip6500)" d="M 0 0 M99.728 906.674 Q96.3947 906.674 94.4734 908.457 Q92.5753 910.239 92.5753 913.364 Q92.5753 916.489 94.4734 918.271 Q96.3947 920.054 99.728 920.054 Q103.061 920.054 104.983 918.271 Q106.904 916.466 106.904 913.364 Q106.904 910.239 104.983 908.457 Q103.085 906.674 99.728 906.674 M95.0521 904.684 Q92.0429 903.943 90.3531 901.883 Q88.6864 899.822 88.6864 896.86 Q88.6864 892.716 91.6262 890.309 Q94.5892 887.901 99.728 887.901 Q104.89 887.901 107.83 890.309 Q110.77 892.716 110.77 896.86 Q110.77 899.822 109.08 901.883 Q107.413 903.943 104.427 904.684 Q107.807 905.471 109.682 907.762 Q111.58 910.054 111.58 913.364 Q111.58 918.387 108.501 921.072 Q105.446 923.758 99.728 923.758 Q94.0105 923.758 90.9318 921.072 Q87.8763 918.387 87.8763 913.364 Q87.8763 910.054 89.7744 907.762 Q91.6725 905.471 95.0521 904.684 M93.3392 897.299 Q93.3392 899.985 95.0058 901.489 Q96.6956 902.994 99.728 902.994 Q102.737 902.994 104.427 901.489 Q106.14 899.985 106.14 897.299 Q106.14 894.614 104.427 893.11 Q102.737 891.605 99.728 891.605 Q96.6956 891.605 95.0058 893.11 Q93.3392 894.614 93.3392 897.299 Z" fill="#000000" fill-rule="evenodd" fill-opacity="1"></path><path clip-path="url(#clip6500)" d="M 0 0 M116.696 888.526 L135.052 888.526 L135.052 892.461 L120.978 892.461 L120.978 900.934 Q121.996 900.586 123.015 900.424 Q124.033 900.239 125.052 900.239 Q130.839 900.239 134.219 903.41 Q137.598 906.582 137.598 911.998 Q137.598 917.577 134.126 920.679 Q130.654 923.758 124.334 923.758 Q122.158 923.758 119.89 923.387 Q117.645 923.017 115.237 922.276 L115.237 917.577 Q117.321 918.711 119.543 919.267 Q121.765 919.822 124.242 919.822 Q128.246 919.822 130.584 917.716 Q132.922 915.609 132.922 911.998 Q132.922 908.387 130.584 906.281 Q128.246 904.174 124.242 904.174 Q122.367 904.174 120.492 904.591 Q118.64 905.008 116.696 905.887 L116.696 888.526 Z" fill="#000000" fill-rule="evenodd" fill-opacity="1"></path><path clip-path="url(#clip6500)" d="M 0 0 M152.668 891.605 Q149.056 891.605 147.228 895.17 Q145.422 898.711 145.422 905.841 Q145.422 912.947 147.228 916.512 Q149.056 920.054 152.668 920.054 Q156.302 920.054 158.107 916.512 Q159.936 912.947 159.936 905.841 Q159.936 898.711 158.107 895.17 Q156.302 891.605 152.668 891.605 M152.668 887.901 Q158.478 887.901 161.533 892.508 Q164.612 897.091 164.612 905.841 Q164.612 914.568 161.533 919.174 Q158.478 923.758 152.668 923.758 Q146.857 923.758 143.779 919.174 Q140.723 914.568 140.723 905.841 Q140.723 897.091 143.779 892.508 Q146.857 887.901 152.668 887.901 Z" fill="#000000" fill-rule="evenodd" fill-opacity="1"></path><path clip-path="url(#clip6500)" d="M 0 0 M88.9642 712.753 L88.9642 708.493 Q90.7235 709.327 92.529 709.767 Q94.3346 710.206 96.0707 710.206 Q100.7 710.206 103.131 707.105 Q105.584 703.98 105.932 697.637 Q104.589 699.628 102.529 700.693 Q100.469 701.757 97.9688 701.757 Q92.7836 701.757 89.7512 698.632 Q86.742 695.484 86.742 690.044 Q86.742 684.72 89.8901 681.503 Q93.0383 678.285 98.2697 678.285 Q104.265 678.285 107.413 682.892 Q110.584 687.475 110.584 696.225 Q110.584 704.396 106.696 709.28 Q102.83 714.142 96.279 714.142 Q94.5197 714.142 92.7142 713.794 Q90.9086 713.447 88.9642 712.753 M98.2697 698.1 Q101.418 698.1 103.247 695.947 Q105.098 693.794 105.098 690.044 Q105.098 686.318 103.247 684.165 Q101.418 681.989 98.2697 681.989 Q95.1216 681.989 93.2697 684.165 Q91.441 686.318 91.441 690.044 Q91.441 693.794 93.2697 695.947 Q95.1216 698.1 98.2697 698.1 Z" fill="#000000" fill-rule="evenodd" fill-opacity="1"></path><path clip-path="url(#clip6500)" d="M 0 0 M125.654 681.989 Q122.043 681.989 120.214 685.554 Q118.408 689.095 118.408 696.225 Q118.408 703.331 120.214 706.896 Q122.043 710.438 125.654 710.438 Q129.288 710.438 131.094 706.896 Q132.922 703.331 132.922 696.225 Q132.922 689.095 131.094 685.554 Q129.288 681.989 125.654 681.989 M125.654 678.285 Q131.464 678.285 134.52 682.892 Q137.598 687.475 137.598 696.225 Q137.598 704.952 134.52 709.558 Q131.464 714.142 125.654 714.142 Q119.844 714.142 116.765 709.558 Q113.709 704.952 113.709 696.225 Q113.709 687.475 116.765 682.892 Q119.844 678.285 125.654 678.285 Z" fill="#000000" fill-rule="evenodd" fill-opacity="1"></path><path clip-path="url(#clip6500)" d="M 0 0 M152.668 681.989 Q149.056 681.989 147.228 685.554 Q145.422 689.095 145.422 696.225 Q145.422 703.331 147.228 706.896 Q149.056 710.438 152.668 710.438 Q156.302 710.438 158.107 706.896 Q159.936 703.331 159.936 696.225 Q159.936 689.095 158.107 685.554 Q156.302 681.989 152.668 681.989 M152.668 678.285 Q158.478 678.285 161.533 682.892 Q164.612 687.475 164.612 696.225 Q164.612 704.952 161.533 709.558 Q158.478 714.142 152.668 714.142 Q146.857 714.142 143.779 709.558 Q140.723 704.952 140.723 696.225 Q140.723 687.475 143.779 682.892 Q146.857 678.285 152.668 678.285 Z" fill="#000000" fill-rule="evenodd" fill-opacity="1"></path><path clip-path="url(#clip6500)" d="M 0 0 M89.9596 503.137 L89.9596 498.878 Q91.7188 499.711 93.5244 500.151 Q95.3299 500.59 97.066 500.59 Q101.696 500.59 104.126 497.489 Q106.58 494.364 106.927 488.021 Q105.584 490.012 103.524 491.077 Q101.464 492.141 98.9642 492.141 Q93.779 492.141 90.7466 489.016 Q87.7374 485.868 87.7374 480.429 Q87.7374 475.104 90.8855 471.887 Q94.0336 468.669 99.2651 468.669 Q105.26 468.669 108.409 473.276 Q111.58 477.859 111.58 486.609 Q111.58 494.78 107.691 499.665 Q103.825 504.526 97.2743 504.526 Q95.5151 504.526 93.7096 504.178 Q91.904 503.831 89.9596 503.137 M99.2651 488.484 Q102.413 488.484 104.242 486.331 Q106.094 484.179 106.094 480.429 Q106.094 476.702 104.242 474.549 Q102.413 472.373 99.2651 472.373 Q96.1169 472.373 94.2651 474.549 Q92.4364 476.702 92.4364 480.429 Q92.4364 484.179 94.2651 486.331 Q96.1169 488.484 99.2651 488.484 Z" fill="#000000" fill-rule="evenodd" fill-opacity="1"></path><path clip-path="url(#clip6500)" d="M 0 0 M116.696 469.294 L135.052 469.294 L135.052 473.229 L120.978 473.229 L120.978 481.702 Q121.996 481.354 123.015 481.192 Q124.033 481.007 125.052 481.007 Q130.839 481.007 134.219 484.179 Q137.598 487.35 137.598 492.766 Q137.598 498.345 134.126 501.447 Q130.654 504.526 124.334 504.526 Q122.158 504.526 119.89 504.155 Q117.645 503.785 115.237 503.044 L115.237 498.345 Q117.321 499.479 119.543 500.035 Q121.765 500.59 124.242 500.59 Q128.246 500.59 130.584 498.484 Q132.922 496.378 132.922 492.766 Q132.922 489.155 130.584 487.049 Q128.246 484.942 124.242 484.942 Q122.367 484.942 120.492 485.359 Q118.64 485.776 116.696 486.655 L116.696 469.294 Z" fill="#000000" fill-rule="evenodd" fill-opacity="1"></path><path clip-path="url(#clip6500)" d="M 0 0 M152.668 472.373 Q149.056 472.373 147.228 475.938 Q145.422 479.479 145.422 486.609 Q145.422 493.715 147.228 497.28 Q149.056 500.822 152.668 500.822 Q156.302 500.822 158.107 497.28 Q159.936 493.715 159.936 486.609 Q159.936 479.479 158.107 475.938 Q156.302 472.373 152.668 472.373 M152.668 468.669 Q158.478 468.669 161.533 473.276 Q164.612 477.859 164.612 486.609 Q164.612 495.336 161.533 499.942 Q158.478 504.526 152.668 504.526 Q146.857 504.526 143.779 499.942 Q140.723 495.336 140.723 486.609 Q140.723 477.859 143.779 473.276 Q146.857 468.669 152.668 468.669 Z" fill="#000000" fill-rule="evenodd" fill-opacity="1"></path><path clip-path="url(#clip6500)" d="M 0 0 M63.6634 290.303 L71.3023 290.303 L71.3023 263.938 L62.9921 265.604 L62.9921 261.345 L71.256 259.678 L75.9319 259.678 L75.9319 290.303 L83.5707 290.303 L83.5707 294.238 L63.6634 294.238 L63.6634 290.303 Z" fill="#000000" fill-rule="evenodd" fill-opacity="1"></path><path clip-path="url(#clip6500)" d="M 0 0 M98.6401 262.757 Q95.029 262.757 93.2003 266.322 Q91.3948 269.864 91.3948 276.993 Q91.3948 284.1 93.2003 287.664 Q95.029 291.206 98.6401 291.206 Q102.274 291.206 104.08 287.664 Q105.909 284.1 105.909 276.993 Q105.909 269.864 104.08 266.322 Q102.274 262.757 98.6401 262.757 M98.6401 259.053 Q104.45 259.053 107.506 263.66 Q110.584 268.243 110.584 276.993 Q110.584 285.72 107.506 290.326 Q104.45 294.91 98.6401 294.91 Q92.8299 294.91 89.7512 290.326 Q86.6957 285.72 86.6957 276.993 Q86.6957 268.243 89.7512 263.66 Q92.8299 259.053 98.6401 259.053 Z" fill="#000000" fill-rule="evenodd" fill-opacity="1"></path><path clip-path="url(#clip6500)" d="M 0 0 M125.654 262.757 Q122.043 262.757 120.214 266.322 Q118.408 269.864 118.408 276.993 Q118.408 284.1 120.214 287.664 Q122.043 291.206 125.654 291.206 Q129.288 291.206 131.094 287.664 Q132.922 284.1 132.922 276.993 Q132.922 269.864 131.094 266.322 Q129.288 262.757 125.654 262.757 M125.654 259.053 Q131.464 259.053 134.52 263.66 Q137.598 268.243 137.598 276.993 Q137.598 285.72 134.52 290.326 Q131.464 294.91 125.654 294.91 Q119.844 294.91 116.765 290.326 Q113.709 285.72 113.709 276.993 Q113.709 268.243 116.765 263.66 Q119.844 259.053 125.654 259.053 Z" fill="#000000" fill-rule="evenodd" fill-opacity="1"></path><path clip-path="url(#clip6500)" d="M 0 0 M152.668 262.757 Q149.056 262.757 147.228 266.322 Q145.422 269.864 145.422 276.993 Q145.422 284.1 147.228 287.664 Q149.056 291.206 152.668 291.206 Q156.302 291.206 158.107 287.664 Q159.936 284.1 159.936 276.993 Q159.936 269.864 158.107 266.322 Q156.302 262.757 152.668 262.757 M152.668 259.053 Q158.478 259.053 161.533 263.66 Q164.612 268.243 164.612 276.993 Q164.612 285.72 161.533 290.326 Q158.478 294.91 152.668 294.91 Q146.857 294.91 143.779 290.326 Q140.723 285.72 140.723 276.993 Q140.723 268.243 143.779 263.66 Q146.857 259.053 152.668 259.053 Z" fill="#000000" fill-rule="evenodd" fill-opacity="1"></path><path clip-path="url(#clip6500)" d="M 0 0 M505.61 20.1573 L494.51 50.2555 L516.75 50.2555 L505.61 20.1573 M500.992 12.096 L510.268 12.096 L533.318 72.576 L524.811 72.576 L519.302 57.061 L492.039 57.061 L486.53 72.576 L477.902 72.576 L500.992 12.096 Z" fill="#000000" fill-rule="evenodd" fill-opacity="1"></path><path clip-path="url(#clip6500)" d="M 0 0 M547.051 14.324 L547.051 27.2059 L562.404 27.2059 L562.404 32.9987 L547.051 32.9987 L547.051 57.6282 Q547.051 63.1779 548.549 64.7578 Q550.089 66.3376 554.747 66.3376 L562.404 66.3376 L562.404 72.576 L554.747 72.576 Q546.119 72.576 542.838 69.3758 Q539.556 66.1351 539.556 57.6282 L539.556 32.9987 L534.088 32.9987 L534.088 27.2059 L539.556 27.2059 L539.556 14.324 L547.051 14.324 Z" fill="#000000" fill-rule="evenodd" fill-opacity="1"></path><path clip-path="url(#clip6500)" d="M 0 0 M605.546 35.9153 Q608.341 30.8922 612.23 28.5022 Q616.119 26.1121 621.385 26.1121 Q628.474 26.1121 632.322 31.0947 Q636.171 36.0368 636.171 45.1919 L636.171 72.576 L628.676 72.576 L628.676 45.4349 Q628.676 38.913 626.367 35.7533 Q624.058 32.5936 619.319 32.5936 Q613.526 32.5936 610.164 36.4419 Q606.801 40.2903 606.801 46.9338 L606.801 72.576 L599.307 72.576 L599.307 45.4349 Q599.307 38.8725 596.998 35.7533 Q594.689 32.5936 589.869 32.5936 Q584.157 32.5936 580.795 36.4824 Q577.432 40.3308 577.432 46.9338 L577.432 72.576 L569.938 72.576 L569.938 27.2059 L577.432 27.2059 L577.432 34.2544 Q579.985 30.082 583.549 28.0971 Q587.114 26.1121 592.016 26.1121 Q596.958 26.1121 600.401 28.6237 Q603.885 31.1352 605.546 35.9153 Z" fill="#000000" fill-rule="evenodd" fill-opacity="1"></path><path clip-path="url(#clip6500)" d="M 0 0 M661.57 32.4315 Q655.574 32.4315 652.091 37.1306 Q648.607 41.7891 648.607 49.9314 Q648.607 58.0738 652.05 62.7728 Q655.534 67.4314 661.57 67.4314 Q667.525 67.4314 671.008 62.7323 Q674.492 58.0333 674.492 49.9314 Q674.492 41.8701 671.008 37.1711 Q667.525 32.4315 661.57 32.4315 M661.57 26.1121 Q671.292 26.1121 676.842 32.4315 Q682.391 38.7509 682.391 49.9314 Q682.391 61.0714 676.842 67.4314 Q671.292 73.7508 661.57 73.7508 Q651.807 73.7508 646.257 67.4314 Q640.748 61.0714 640.748 49.9314 Q640.748 38.7509 646.257 32.4315 Q651.807 26.1121 661.57 26.1121 Z" fill="#000000" fill-rule="evenodd" fill-opacity="1"></path><path clip-path="url(#clip6500)" d="M 0 0 M719.133 28.5427 L719.133 35.5912 Q715.973 33.9709 712.571 33.1607 Q709.168 32.3505 705.522 32.3505 Q699.972 32.3505 697.177 34.0519 Q694.423 35.7533 694.423 39.156 Q694.423 41.7486 696.407 43.2475 Q698.392 44.7058 704.388 46.0426 L706.94 46.6097 Q714.88 48.3111 718.201 51.4303 Q721.564 54.509 721.564 60.0587 Q721.564 66.3781 716.54 70.0644 Q711.558 73.7508 702.808 73.7508 Q699.162 73.7508 695.192 73.0216 Q691.263 72.3329 686.888 70.9151 L686.888 63.2184 Q691.02 65.3654 695.03 66.4591 Q699.041 67.5124 702.97 67.5124 Q708.236 67.5124 711.072 65.73 Q713.907 63.9071 713.907 60.6258 Q713.907 57.5877 711.841 55.9673 Q709.816 54.3469 702.889 52.8481 L700.296 52.2405 Q693.369 50.7821 690.291 47.7845 Q687.212 44.7463 687.212 39.4801 Q687.212 33.0797 691.749 29.5959 Q696.286 26.1121 704.631 26.1121 Q708.763 26.1121 712.409 26.7198 Q716.054 27.3274 719.133 28.5427 Z" fill="#000000" fill-rule="evenodd" fill-opacity="1"></path><path clip-path="url(#clip6500)" d="M 0 0 M736.592 65.7705 L736.592 89.8329 L729.098 89.8329 L729.098 27.2059 L736.592 27.2059 L736.592 34.0924 Q738.942 30.0415 742.507 28.0971 Q746.112 26.1121 751.095 26.1121 Q759.359 26.1121 764.503 32.6746 Q769.688 39.2371 769.688 49.9314 Q769.688 60.6258 764.503 67.1883 Q759.359 73.7508 751.095 73.7508 Q746.112 73.7508 742.507 71.8063 Q738.942 69.8214 736.592 65.7705 M761.951 49.9314 Q761.951 41.7081 758.548 37.0496 Q755.186 32.3505 749.272 32.3505 Q743.357 32.3505 739.955 37.0496 Q736.592 41.7081 736.592 49.9314 Q736.592 58.1548 739.955 62.8538 Q743.357 67.5124 749.272 67.5124 Q755.186 67.5124 758.548 62.8538 Q761.951 58.1548 761.951 49.9314 Z" fill="#000000" fill-rule="evenodd" fill-opacity="1"></path><path clip-path="url(#clip6500)" d="M 0 0 M815.221 45.1919 L815.221 72.576 L807.767 72.576 L807.767 45.4349 Q807.767 38.994 805.255 35.7938 Q802.744 32.5936 797.721 32.5936 Q791.685 32.5936 788.201 36.4419 Q784.717 40.2903 784.717 46.9338 L784.717 72.576 L777.223 72.576 L777.223 9.54393 L784.717 9.54393 L784.717 34.2544 Q787.391 30.163 790.996 28.1376 Q794.642 26.1121 799.381 26.1121 Q807.2 26.1121 811.21 30.9732 Q815.221 35.7938 815.221 45.1919 Z" fill="#000000" fill-rule="evenodd" fill-opacity="1"></path><path clip-path="url(#clip6500)" d="M 0 0 M861.846 48.0275 L861.846 51.6733 L827.576 51.6733 Q828.062 59.3701 832.194 63.421 Q836.366 67.4314 843.779 67.4314 Q848.073 67.4314 852.084 66.3781 Q856.135 65.3249 860.105 63.2184 L860.105 70.267 Q856.094 71.9684 851.881 72.8596 Q847.668 73.7508 843.334 73.7508 Q832.477 73.7508 826.117 67.4314 Q819.798 61.1119 819.798 50.3365 Q819.798 39.1965 825.793 32.6746 Q831.829 26.1121 842.037 26.1121 Q851.193 26.1121 856.499 32.0264 Q861.846 37.9003 861.846 48.0275 M854.393 45.84 Q854.312 39.7232 850.949 36.0774 Q847.628 32.4315 842.119 32.4315 Q835.88 32.4315 832.113 35.9558 Q828.386 39.4801 827.819 45.8805 L854.393 45.84 Z" fill="#000000" fill-rule="evenodd" fill-opacity="1"></path><path clip-path="url(#clip6500)" d="M 0 0 M895.955 34.1734 Q894.699 33.4443 893.2 33.1202 Q891.742 32.7556 889.96 32.7556 Q883.64 32.7556 880.238 36.8875 Q876.875 40.9789 876.875 48.6757 L876.875 72.576 L869.381 72.576 L869.381 27.2059 L876.875 27.2059 L876.875 34.2544 Q879.225 30.1225 882.992 28.1376 Q886.759 26.1121 892.147 26.1121 Q892.917 26.1121 893.849 26.2337 Q894.78 26.3147 895.915 26.5172 L895.955 34.1734 Z" fill="#000000" fill-rule="evenodd" fill-opacity="1"></path><path clip-path="url(#clip6500)" d="M 0 0 M903.773 27.2059 L911.227 27.2059 L911.227 72.576 L903.773 72.576 L903.773 27.2059 M903.773 9.54393 L911.227 9.54393 L911.227 18.9825 L903.773 18.9825 L903.773 9.54393 Z" fill="#000000" fill-rule="evenodd" fill-opacity="1"></path><path clip-path="url(#clip6500)" d="M 0 0 M951.695 28.9478 L951.695 35.9153 Q948.536 34.1734 945.336 33.3227 Q942.176 32.4315 938.935 32.4315 Q931.684 32.4315 927.674 37.0496 Q923.663 41.6271 923.663 49.9314 Q923.663 58.2358 927.674 62.8538 Q931.684 67.4314 938.935 67.4314 Q942.176 67.4314 945.336 66.5807 Q948.536 65.6895 951.695 63.9476 L951.695 70.8341 Q948.576 72.2924 945.214 73.0216 Q941.892 73.7508 938.125 73.7508 Q927.876 73.7508 921.84 67.3098 Q915.804 60.8689 915.804 49.9314 Q915.804 38.832 921.881 32.472 Q927.998 26.1121 938.611 26.1121 Q942.054 26.1121 945.336 26.8413 Q948.617 27.5299 951.695 28.9478 Z" fill="#000000" fill-rule="evenodd" fill-opacity="1"></path><path clip-path="url(#clip6500)" d="M 0 0 M993.096 65.7705 L993.096 89.8329 L985.602 89.8329 L985.602 27.2059 L993.096 27.2059 L993.096 34.0924 Q995.445 30.0415 999.01 28.0971 Q1002.62 26.1121 1007.6 26.1121 Q1015.86 26.1121 1021.01 32.6746 Q1026.19 39.2371 1026.19 49.9314 Q1026.19 60.6258 1021.01 67.1883 Q1015.86 73.7508 1007.6 73.7508 Q1002.62 73.7508 999.01 71.8063 Q995.445 69.8214 993.096 65.7705 M1018.45 49.9314 Q1018.45 41.7081 1015.05 37.0496 Q1011.69 32.3505 1005.78 32.3505 Q999.861 32.3505 996.458 37.0496 Q993.096 41.7081 993.096 49.9314 Q993.096 58.1548 996.458 62.8538 Q999.861 67.5124 1005.78 67.5124 Q1011.69 67.5124 1015.05 62.8538 Q1018.45 58.1548 1018.45 49.9314 Z" fill="#000000" fill-rule="evenodd" fill-opacity="1"></path><path clip-path="url(#clip6500)" d="M 0 0 M1060.3 34.1734 Q1059.04 33.4443 1057.55 33.1202 Q1056.09 32.7556 1054.3 32.7556 Q1047.99 32.7556 1044.58 36.8875 Q1041.22 40.9789 1041.22 48.6757 L1041.22 72.576 L1033.73 72.576 L1033.73 27.2059 L1041.22 27.2059 L1041.22 34.2544 Q1043.57 30.1225 1047.34 28.1376 Q1051.1 26.1121 1056.49 26.1121 Q1057.26 26.1121 1058.19 26.2337 Q1059.13 26.3147 1060.26 26.5172 L1060.3 34.1734 Z" fill="#000000" fill-rule="evenodd" fill-opacity="1"></path><path clip-path="url(#clip6500)" d="M 0 0 M1105.1 48.0275 L1105.1 51.6733 L1070.83 51.6733 Q1071.32 59.3701 1075.45 63.421 Q1079.62 67.4314 1087.04 67.4314 Q1091.33 67.4314 1095.34 66.3781 Q1099.39 65.3249 1103.36 63.2184 L1103.36 70.267 Q1099.35 71.9684 1095.14 72.8596 Q1090.93 73.7508 1086.59 73.7508 Q1075.73 73.7508 1069.37 67.4314 Q1063.05 61.1119 1063.05 50.3365 Q1063.05 39.1965 1069.05 32.6746 Q1075.09 26.1121 1085.29 26.1121 Q1094.45 26.1121 1099.76 32.0264 Q1105.1 37.9003 1105.1 48.0275 M1097.65 45.84 Q1097.57 39.7232 1094.21 36.0774 Q1090.88 32.4315 1085.38 32.4315 Q1079.14 32.4315 1075.37 35.9558 Q1071.64 39.4801 1071.08 45.8805 L1097.65 45.84 Z" fill="#000000" fill-rule="evenodd" fill-opacity="1"></path><path clip-path="url(#clip6500)" d="M 0 0 M1141.84 28.5427 L1141.84 35.5912 Q1138.69 33.9709 1135.28 33.1607 Q1131.88 32.3505 1128.23 32.3505 Q1122.68 32.3505 1119.89 34.0519 Q1117.13 35.7533 1117.13 39.156 Q1117.13 41.7486 1119.12 43.2475 Q1121.1 44.7058 1127.1 46.0426 L1129.65 46.6097 Q1137.59 48.3111 1140.91 51.4303 Q1144.28 54.509 1144.28 60.0587 Q1144.28 66.3781 1139.25 70.0644 Q1134.27 73.7508 1125.52 73.7508 Q1121.87 73.7508 1117.9 73.0216 Q1113.97 72.3329 1109.6 70.9151 L1109.6 63.2184 Q1113.73 65.3654 1117.74 66.4591 Q1121.75 67.5124 1125.68 67.5124 Q1130.95 67.5124 1133.78 65.73 Q1136.62 63.9071 1136.62 60.6258 Q1136.62 57.5877 1134.55 55.9673 Q1132.53 54.3469 1125.6 52.8481 L1123.01 52.2405 Q1116.08 50.7821 1113 47.7845 Q1109.92 44.7463 1109.92 39.4801 Q1109.92 33.0797 1114.46 29.5959 Q1119 26.1121 1127.34 26.1121 Q1131.47 26.1121 1135.12 26.7198 Q1138.77 27.3274 1141.84 28.5427 Z" fill="#000000" fill-rule="evenodd" fill-opacity="1"></path><path clip-path="url(#clip6500)" d="M 0 0 M1181.02 28.5427 L1181.02 35.5912 Q1177.86 33.9709 1174.45 33.1607 Q1171.05 32.3505 1167.41 32.3505 Q1161.86 32.3505 1159.06 34.0519 Q1156.31 35.7533 1156.31 39.156 Q1156.31 41.7486 1158.29 43.2475 Q1160.28 44.7058 1166.27 46.0426 L1168.82 46.6097 Q1176.76 48.3111 1180.09 51.4303 Q1183.45 54.509 1183.45 60.0587 Q1183.45 66.3781 1178.42 70.0644 Q1173.44 73.7508 1164.69 73.7508 Q1161.05 73.7508 1157.08 73.0216 Q1153.15 72.3329 1148.77 70.9151 L1148.77 63.2184 Q1152.9 65.3654 1156.91 66.4591 Q1160.92 67.5124 1164.85 67.5124 Q1170.12 67.5124 1172.96 65.73 Q1175.79 63.9071 1175.79 60.6258 Q1175.79 57.5877 1173.73 55.9673 Q1171.7 54.3469 1164.77 52.8481 L1162.18 52.2405 Q1155.25 50.7821 1152.17 47.7845 Q1149.1 44.7463 1149.1 39.4801 Q1149.1 33.0797 1153.63 29.5959 Q1158.17 26.1121 1166.51 26.1121 Q1170.65 26.1121 1174.29 26.7198 Q1177.94 27.3274 1181.02 28.5427 Z" fill="#000000" fill-rule="evenodd" fill-opacity="1"></path><path clip-path="url(#clip6500)" d="M 0 0 M1190.5 54.671 L1190.5 27.2059 L1197.95 27.2059 L1197.95 54.3874 Q1197.95 60.8284 1200.46 64.0691 Q1202.97 67.2693 1208 67.2693 Q1214.03 67.2693 1217.52 63.421 Q1221.04 59.5726 1221.04 52.9291 L1221.04 27.2059 L1228.49 27.2059 L1228.49 72.576 L1221.04 72.576 L1221.04 65.6084 Q1218.33 69.7404 1214.72 71.7658 Q1211.16 73.7508 1206.42 73.7508 Q1198.6 73.7508 1194.55 68.8897 Q1190.5 64.0286 1190.5 54.671 M1209.25 26.1121 L1209.25 26.1121 Z" fill="#000000" fill-rule="evenodd" fill-opacity="1"></path><path clip-path="url(#clip6500)" d="M 0 0 M1262.6 34.1734 Q1261.35 33.4443 1259.85 33.1202 Q1258.39 32.7556 1256.61 32.7556 Q1250.29 32.7556 1246.88 36.8875 Q1243.52 40.9789 1243.52 48.6757 L1243.52 72.576 L1236.03 72.576 L1236.03 27.2059 L1243.52 27.2059 L1243.52 34.2544 Q1245.87 30.1225 1249.64 28.1376 Q1253.41 26.1121 1258.79 26.1121 Q1259.56 26.1121 1260.5 26.2337 Q1261.43 26.3147 1262.56 26.5172 L1262.6 34.1734 Z" fill="#000000" fill-rule="evenodd" fill-opacity="1"></path><path clip-path="url(#clip6500)" d="M 0 0 M1307.41 48.0275 L1307.41 51.6733 L1273.13 51.6733 Q1273.62 59.3701 1277.75 63.421 Q1281.93 67.4314 1289.34 67.4314 Q1293.63 67.4314 1297.64 66.3781 Q1301.69 65.3249 1305.66 63.2184 L1305.66 70.267 Q1301.65 71.9684 1297.44 72.8596 Q1293.23 73.7508 1288.89 73.7508 Q1278.04 73.7508 1271.68 67.4314 Q1265.36 61.1119 1265.36 50.3365 Q1265.36 39.1965 1271.35 32.6746 Q1277.39 26.1121 1287.6 26.1121 Q1296.75 26.1121 1302.06 32.0264 Q1307.41 37.9003 1307.41 48.0275 M1299.95 45.84 Q1299.87 39.7232 1296.51 36.0774 Q1293.19 32.4315 1287.68 32.4315 Q1281.44 32.4315 1277.67 35.9558 Q1273.94 39.4801 1273.38 45.8805 L1299.95 45.84 Z" fill="#000000" fill-rule="evenodd" fill-opacity="1"></path><path clip-path="url(#clip6500)" d="M 0 0 M1341.6 27.2059 L1349.05 27.2059 L1349.05 72.576 L1341.6 72.576 L1341.6 27.2059 M1341.6 9.54393 L1349.05 9.54393 L1349.05 18.9825 L1341.6 18.9825 L1341.6 9.54393 Z" fill="#000000" fill-rule="evenodd" fill-opacity="1"></path><path clip-path="url(#clip6500)" d="M 0 0 M1394.58 45.1919 L1394.58 72.576 L1387.13 72.576 L1387.13 45.4349 Q1387.13 38.994 1384.62 35.7938 Q1382.1 32.5936 1377.08 32.5936 Q1371.05 32.5936 1367.56 36.4419 Q1364.08 40.2903 1364.08 46.9338 L1364.08 72.576 L1356.58 72.576 L1356.58 27.2059 L1364.08 27.2059 L1364.08 34.2544 Q1366.75 30.163 1370.36 28.1376 Q1374 26.1121 1378.74 26.1121 Q1386.56 26.1121 1390.57 30.9732 Q1394.58 35.7938 1394.58 45.1919 Z" fill="#000000" fill-rule="evenodd" fill-opacity="1"></path><path clip-path="url(#clip6500)" d="M 0 0 M1429.09 12.096 L1437.28 12.096 L1437.28 65.6895 L1466.73 65.6895 L1466.73 72.576 L1429.09 72.576 L1429.09 12.096 Z" fill="#000000" fill-rule="evenodd" fill-opacity="1"></path><path clip-path="url(#clip6500)" d="M 0 0 M1472.32 54.671 L1472.32 27.2059 L1479.77 27.2059 L1479.77 54.3874 Q1479.77 60.8284 1482.28 64.0691 Q1484.79 67.2693 1489.82 67.2693 Q1495.85 67.2693 1499.34 63.421 Q1502.86 59.5726 1502.86 52.9291 L1502.86 27.2059 L1510.32 27.2059 L1510.32 72.576 L1502.86 72.576 L1502.86 65.6084 Q1500.15 69.7404 1496.54 71.7658 Q1492.98 73.7508 1488.24 73.7508 Q1480.42 73.7508 1476.37 68.8897 Q1472.32 64.0286 1472.32 54.671 M1491.07 26.1121 L1491.07 26.1121 Z" fill="#000000" fill-rule="evenodd" fill-opacity="1"></path><path clip-path="url(#clip6500)" d="M 0 0 M1555.85 27.2059 L1539.44 49.2833 L1556.7 72.576 L1547.91 72.576 L1534.7 54.752 L1521.5 72.576 L1512.71 72.576 L1530.33 48.8377 L1514.2 27.2059 L1522.99 27.2059 L1535.03 43.369 L1547.06 27.2059 L1555.85 27.2059 Z" fill="#000000" fill-rule="evenodd" fill-opacity="1"></path><path clip-path="url(#clip6500)" d="M 0 0 M1600.77 48.0275 L1600.77 51.6733 L1566.5 51.6733 Q1566.99 59.3701 1571.12 63.421 Q1575.29 67.4314 1582.7 67.4314 Q1587 67.4314 1591.01 66.3781 Q1595.06 65.3249 1599.03 63.2184 L1599.03 70.267 Q1595.02 71.9684 1590.81 72.8596 Q1586.59 73.7508 1582.26 73.7508 Q1571.4 73.7508 1565.04 67.4314 Q1558.72 61.1119 1558.72 50.3365 Q1558.72 39.1965 1564.72 32.6746 Q1570.75 26.1121 1580.96 26.1121 Q1590.12 26.1121 1595.42 32.0264 Q1600.77 37.9003 1600.77 48.0275 M1593.32 45.84 Q1593.24 39.7232 1589.87 36.0774 Q1586.55 32.4315 1581.04 32.4315 Q1574.81 32.4315 1571.04 35.9558 Q1567.31 39.4801 1566.74 45.8805 L1593.32 45.84 Z" fill="#000000" fill-rule="evenodd" fill-opacity="1"></path><path clip-path="url(#clip6500)" d="M 0 0 M1643.91 35.9153 Q1646.71 30.8922 1650.6 28.5022 Q1654.49 26.1121 1659.75 26.1121 Q1666.84 26.1121 1670.69 31.0947 Q1674.54 36.0368 1674.54 45.1919 L1674.54 72.576 L1667.04 72.576 L1667.04 45.4349 Q1667.04 38.913 1664.74 35.7533 Q1662.43 32.5936 1657.69 32.5936 Q1651.89 32.5936 1648.53 36.4419 Q1645.17 40.2903 1645.17 46.9338 L1645.17 72.576 L1637.68 72.576 L1637.68 45.4349 Q1637.68 38.8725 1635.37 35.7533 Q1633.06 32.5936 1628.24 32.5936 Q1622.53 32.5936 1619.16 36.4824 Q1615.8 40.3308 1615.8 46.9338 L1615.8 72.576 L1608.31 72.576 L1608.31 27.2059 L1615.8 27.2059 L1615.8 34.2544 Q1618.35 30.082 1621.92 28.0971 Q1625.48 26.1121 1630.38 26.1121 Q1635.33 26.1121 1638.77 28.6237 Q1642.25 31.1352 1643.91 35.9153 Z" fill="#000000" fill-rule="evenodd" fill-opacity="1"></path><path clip-path="url(#clip6500)" d="M 0 0 M1714.93 49.9314 Q1714.93 41.7081 1711.52 37.0496 Q1708.16 32.3505 1702.25 32.3505 Q1696.33 32.3505 1692.93 37.0496 Q1689.57 41.7081 1689.57 49.9314 Q1689.57 58.1548 1692.93 62.8538 Q1696.33 67.5124 1702.25 67.5124 Q1708.16 67.5124 1711.52 62.8538 Q1714.93 58.1548 1714.93 49.9314 M1689.57 34.0924 Q1691.92 30.0415 1695.48 28.0971 Q1699.09 26.1121 1704.07 26.1121 Q1712.33 26.1121 1717.48 32.6746 Q1722.66 39.2371 1722.66 49.9314 Q1722.66 60.6258 1717.48 67.1883 Q1712.33 73.7508 1704.07 73.7508 Q1699.09 73.7508 1695.48 71.8063 Q1691.92 69.8214 1689.57 65.7705 L1689.57 72.576 L1682.07 72.576 L1682.07 9.54393 L1689.57 9.54393 L1689.57 34.0924 Z" fill="#000000" fill-rule="evenodd" fill-opacity="1"></path><path clip-path="url(#clip6500)" d="M 0 0 M1748.06 32.4315 Q1742.07 32.4315 1738.58 37.1306 Q1735.1 41.7891 1735.1 49.9314 Q1735.1 58.0738 1738.54 62.7728 Q1742.03 67.4314 1748.06 67.4314 Q1754.02 67.4314 1757.5 62.7323 Q1760.99 58.0333 1760.99 49.9314 Q1760.99 41.8701 1757.5 37.1711 Q1754.02 32.4315 1748.06 32.4315 M1748.06 26.1121 Q1757.78 26.1121 1763.33 32.4315 Q1768.88 38.7509 1768.88 49.9314 Q1768.88 61.0714 1763.33 67.4314 Q1757.78 73.7508 1748.06 73.7508 Q1738.3 73.7508 1732.75 67.4314 Q1727.24 61.0714 1727.24 49.9314 Q1727.24 38.7509 1732.75 32.4315 Q1738.3 26.1121 1748.06 26.1121 Z" fill="#000000" fill-rule="evenodd" fill-opacity="1"></path><path clip-path="url(#clip6500)" d="M 0 0 M1775.93 54.671 L1775.93 27.2059 L1783.39 27.2059 L1783.39 54.3874 Q1783.39 60.8284 1785.9 64.0691 Q1788.41 67.2693 1793.43 67.2693 Q1799.47 67.2693 1802.95 63.421 Q1806.48 59.5726 1806.48 52.9291 L1806.48 27.2059 L1813.93 27.2059 L1813.93 72.576 L1806.48 72.576 L1806.48 65.6084 Q1803.76 69.7404 1800.16 71.7658 Q1796.59 73.7508 1791.85 73.7508 Q1784.03 73.7508 1779.98 68.8897 Q1775.93 64.0286 1775.93 54.671 M1794.69 26.1121 L1794.69 26.1121 Z" fill="#000000" fill-rule="evenodd" fill-opacity="1"></path><path clip-path="url(#clip6500)" d="M 0 0 M1848.04 34.1734 Q1846.78 33.4443 1845.28 33.1202 Q1843.83 32.7556 1842.04 32.7556 Q1835.72 32.7556 1832.32 36.8875 Q1828.96 40.9789 1828.96 48.6757 L1828.96 72.576 L1821.47 72.576 L1821.47 27.2059 L1828.96 27.2059 L1828.96 34.2544 Q1831.31 30.1225 1835.08 28.1376 Q1838.84 26.1121 1844.23 26.1121 Q1845 26.1121 1845.93 26.2337 Q1846.86 26.3147 1848 26.5172 L1848.04 34.1734 Z" fill="#000000" fill-rule="evenodd" fill-opacity="1"></path><path clip-path="url(#clip6500)" d="M 0 0 M1884.25 49.3643 Q1884.25 41.2625 1880.89 36.8065 Q1877.57 32.3505 1871.53 32.3505 Q1865.54 32.3505 1862.18 36.8065 Q1858.85 41.2625 1858.85 49.3643 Q1858.85 57.4256 1862.18 61.8816 Q1865.54 66.3376 1871.53 66.3376 Q1877.57 66.3376 1880.89 61.8816 Q1884.25 57.4256 1884.25 49.3643 M1891.71 66.9452 Q1891.71 78.5308 1886.56 84.1616 Q1881.42 89.8329 1870.81 89.8329 Q1866.88 89.8329 1863.39 89.2252 Q1859.91 88.6581 1856.63 87.4428 L1856.63 80.1917 Q1859.91 81.9741 1863.11 82.8248 Q1866.31 83.6755 1869.63 83.6755 Q1876.96 83.6755 1880.61 79.8271 Q1884.25 76.0193 1884.25 68.282 L1884.25 64.5957 Q1881.95 68.6061 1878.34 70.5911 Q1874.73 72.576 1869.71 72.576 Q1861.37 72.576 1856.26 66.2161 Q1851.16 59.8562 1851.16 49.3643 Q1851.16 38.832 1856.26 32.472 Q1861.37 26.1121 1869.71 26.1121 Q1874.73 26.1121 1878.34 28.0971 Q1881.95 30.082 1884.25 34.0924 L1884.25 27.2059 L1891.71 27.2059 L1891.71 66.9452 Z" fill="#000000" fill-rule="evenodd" fill-opacity="1"></path><path clip-path="url(#clip6500)" d="M 0 0 M1895.76 46.5287 L1917.59 46.5287 L1917.59 53.1722 L1895.76 53.1722 L1895.76 46.5287 Z" fill="#000000" fill-rule="evenodd" fill-opacity="1"></path><path clip-path="url(#clip6500)" d="M 0 0 M1971.02 16.7545 L1971.02 25.383 Q1966.89 21.5346 1962.19 19.6307 Q1957.53 17.7268 1952.27 17.7268 Q1941.9 17.7268 1936.39 24.0867 Q1930.88 30.4061 1930.88 42.3968 Q1930.88 54.3469 1936.39 60.7069 Q1941.9 67.0263 1952.27 67.0263 Q1957.53 67.0263 1962.19 65.1223 Q1966.89 63.2184 1971.02 59.3701 L1971.02 67.9175 Q1966.73 70.8341 1961.91 72.2924 Q1957.13 73.7508 1951.78 73.7508 Q1938.05 73.7508 1930.15 65.3654 Q1922.25 56.9395 1922.25 42.3968 Q1922.25 27.8135 1930.15 19.4281 Q1938.05 11.0023 1951.78 11.0023 Q1957.21 11.0023 1961.99 12.4606 Q1966.81 13.8784 1971.02 16.7545 Z" fill="#000000" fill-rule="evenodd" fill-opacity="1"></path><path clip-path="url(#clip6500)" d="M 0 0 M1978.84 27.2059 L1986.3 27.2059 L1986.3 72.576 L1978.84 72.576 L1978.84 27.2059 M1978.84 9.54393 L1986.3 9.54393 L1986.3 18.9825 L1978.84 18.9825 L1978.84 9.54393 Z" fill="#000000" fill-rule="evenodd" fill-opacity="1"></path><path clip-path="url(#clip6500)" d="M 0 0 M2001.49 14.324 L2001.49 27.2059 L2016.84 27.2059 L2016.84 32.9987 L2001.49 32.9987 L2001.49 57.6282 Q2001.49 63.1779 2002.99 64.7578 Q2004.53 66.3376 2009.18 66.3376 L2016.84 66.3376 L2016.84 72.576 L2009.18 72.576 Q2000.56 72.576 1997.27 69.3758 Q1993.99 66.1351 1993.99 57.6282 L1993.99 32.9987 L1988.52 32.9987 L1988.52 27.2059 L1993.99 27.2059 L1993.99 14.324 L2001.49 14.324 Z" fill="#000000" fill-rule="evenodd" fill-opacity="1"></path><path clip-path="url(#clip6500)" d="M 0 0 M2043.54 76.7889 Q2040.38 84.8907 2037.38 87.3618 Q2034.38 89.8329 2029.36 89.8329 L2023.4 89.8329 L2023.4 83.5945 L2027.78 83.5945 Q2030.86 83.5945 2032.56 82.1361 Q2034.26 80.6778 2036.33 75.2496 L2037.66 71.8468 L2019.31 27.2059 L2027.21 27.2059 L2041.39 62.6918 L2055.57 27.2059 L2063.47 27.2059 L2043.54 76.7889 Z" fill="#000000" fill-rule="evenodd" fill-opacity="1"></path><polyline clip-path="url(#clip6502)" style="stroke:#009af9; stroke-width:4; stroke-opacity:1; fill:none" points="
  249.861,1402.6 252.803,1380.8 255.459,1370.32 258.401,1412.66 261.247,1398.4 264.188,1393.37 267.035,1395.05 269.976,1388.76 272.917,1392.53 275.764,1403.02 
  278.705,1408.47 281.551,1404.27 284.493,1394.21 287.434,1384.57 290.091,1416.43 293.032,1401.76 295.879,1399.24 298.82,1380.38 301.666,1394.63 304.608,1392.12 
  307.549,1394.63 310.395,1382.89 313.337,1406.79 316.183,1400.92 319.124,1390.44 322.066,1416.43 324.722,1402.6 327.664,1407.63 330.51,1395.89 333.451,1403.43 
  336.298,1389.18 339.239,1407.63 342.18,1391.28 345.027,1384.15 347.968,1421.88 350.814,1390.02 353.756,1359.42 356.697,1395.47 359.449,1408.47 362.39,1401.76 
  365.236,1392.12 368.178,1395.05 371.024,1388.76 373.965,1395.47 376.907,1385.83 379.753,1399.24 382.694,1387.5 385.541,1402.18 388.482,1413.08 391.423,1379.54 
  394.08,1399.66 397.021,1410.14 399.868,1400.5 402.809,1397.57 405.656,1401.76 408.597,1397.57 411.538,1408.05 414.385,1383.31 417.326,1420.62 420.172,1426.91 
  423.114,1406.79 426.055,1425.23 428.712,1387.92 431.653,1413.08 434.499,1392.95 437.441,1396.31 440.287,1400.5 443.228,1397.98 446.17,1389.18 449.016,1415.59 
  451.957,1405.11 454.804,1414.75 457.745,1389.6 460.686,1392.12 463.343,1391.28 466.284,1400.5 469.131,1406.37 472.072,1384.57 474.919,1387.92 477.86,1394.21 
  480.801,1401.34 483.648,1402.18 486.589,1396.73 489.435,1396.31 492.377,1396.73 495.318,1410.98 498.07,1398.82 501.011,1399.66 503.857,1398.82 506.799,1392.95 
  509.645,1387.92 512.586,1401.76 515.528,1402.18 518.374,1388.34 521.315,1403.02 524.162,1413.08 527.103,1405.95 530.044,1421.46 532.701,1411.82 535.642,1400.92 
  538.489,1405.53 541.43,1399.24 544.276,1381.63 547.218,1397.15 550.159,1391.28 553.005,1377.02 555.947,1417.27 558.793,1403.85 561.735,1418.11 564.676,1418.95 
  567.332,1412.24 570.274,1405.11 573.12,1398.4 576.062,1392.53 578.908,1396.73 581.849,1397.57 584.791,1387.92 587.637,1387.5 590.578,1405.53 593.425,1383.31 
  596.366,1413.08 599.307,1388.76 601.964,1405.53 604.905,1410.14 607.752,1408.47 610.693,1404.27 613.539,1386.67 616.481,1397.15 619.422,1377.44 622.268,1369.9 
  625.21,1403.43 628.056,1369.9 630.998,1405.53 633.939,1414.33 636.69,1405.53 639.632,1411.4 642.478,1405.11 645.419,1397.98 648.266,1390.02 651.207,1389.18 
  654.148,1387.08 656.995,1387.92 659.936,1394.63 662.783,1377.86 665.724,1379.96 668.665,1400.5 671.322,1375.77 674.263,1400.5 677.11,1395.05 680.051,1385.41 
  682.897,1397.98 685.839,1385.83 688.78,1392.12 691.626,1387.5 694.568,1382.89 697.414,1398.4 700.355,1388.76 703.297,1410.98 705.953,1399.66 708.895,1400.08 
  711.741,1399.24 714.682,1397.57 717.529,1388.76 720.47,1392.12 723.411,1401.34 726.258,1408.47 729.199,1402.6 732.046,1382.05 734.987,1391.7 737.928,1374.51 
  740.585,1417.27 743.526,1396.73 746.373,1393.79 749.314,1389.6 752.16,1390.02 755.102,1388.76 758.043,1392.12 760.889,1378.7 763.831,1394.21 766.677,1373.67 
  769.618,1389.6 772.56,1386.25 775.311,1387.5 778.253,1392.53 781.099,1396.31 
  "></polyline>
<polyline clip-path="url(#clip6502)" style="stroke:#009af9; stroke-width:4; stroke-opacity:1; fill:none" points="
  876.549,1441.17 879.206,1447.87 882.147,1435.3 884.993,1422.3 887.935,1417.69 890.781,1413.5 893.722,1425.65 896.664,1346.42 899.51,1370.73 902.452,1362.77 
  905.298,1377.44 908.239,1366.54 911.181,1353.97 913.932,1383.73 916.873,1358.58 919.72,1372.83 922.661,1372.41 925.508,1371.99 928.449,1361.09 931.39,1351.87 
  934.237,1374.51 937.178,1361.51 940.024,1354.8 942.966,1348.1 945.907,1353.13 948.564,1383.31 951.505,1359.42 954.351,1376.6 957.293,1355.64 960.139,1356.9 
  963.08,1349.77 966.022,1360.25 968.868,1374.93 971.809,1337.62 974.656,1404.27 977.597,1353.13 980.538,1348.52 983.195,1359 986.136,1353.13 988.983,1351.45 
  991.924,1362.77 994.771,1353.97 997.712,1361.09 1000.65,1353.55 1003.5,1373.67 1006.44,1361.51 1009.29,1366.96 1012.23,1332.17 1015.17,1356.06 1017.83,1356.06 
  1020.77,1381.63 1023.61,1379.54 1026.56,1349.35 1029.4,1353.55 1032.34,1354.38 1035.28,1359.83 1038.13,1343.9 1041.07,1353.13 1043.92,1357.32 1046.86,1377.44 
  1049.8,1352.71 1052.55,1366.54 1055.49,1355.64 1058.34,1385.83 1061.28,1358.58 1064.13,1352.71 1067.07,1355.64 1070.01,1377.44 1072.86,1358.16 1075.8,1381.63 
  1078.65,1344.32 1081.59,1376.18 1084.53,1346.84 1087.18,1371.57 1090.13,1375.77 1092.97,1376.18 1095.91,1368.22 1098.76,1359.42 1101.7,1361.51 1104.64,1348.93 
  1107.49,1338.45 1110.43,1371.99 1113.28,1361.93 1116.22,1288.15 1119.16,1275.99 1121.82,1270.54 1124.76,1284.37 1127.6,1259.64 1130.54,1262.15 1133.39,1257.54 
  1136.33,1267.18 1139.27,1248.74 1142.12,1256.28 1145.06,1248.32 1147.91,1256.28 1150.85,1336.36 1153.79,1353.13 1156.45,1348.93 1159.39,1343.07 1162.24,1346 
  1165.18,1345.16 1168.02,1346 1170.96,1345.58 1173.91,1339.71 1176.75,1351.45 1179.69,1346.42 1182.54,1331.75 1185.48,1363.19 1188.42,1354.8 1191.17,1359.42 
  1194.12,1347.68 1196.96,1354.38 1199.9,1343.9 1202.75,1343.48 1205.69,1344.74 1208.63,1332.58 1211.48,1338.87 1214.42,1317.49 1217.27,1309.11 1220.21,1278.92 
  1223.15,1327.55 1225.81,1344.74 1228.75,1362.77 1231.59,1327.55 1234.53,1334.68 1237.38,1324.2 1240.32,1338.45 1243.26,1329.65 1246.11,1325.04 1249.05,1327.13 
  1251.9,1333.84 1254.84,1319.17 1257.78,1342.65 1260.44,1304.92 1263.38,1334.26 1266.22,1329.23 1269.17,1345.58 1272.01,1325.46 1274.95,1323.78 1277.89,1331.75 
  1280.74,1344.74 1283.68,1343.48 1286.53,1327.55 1289.47,1242.45 1292.41,1262.15 1295.07,1270.54 1298.01,1263.41 1300.86,1251.25 1303.8,1268.02 1306.64,1260.06 
  1309.59,1250.83 1312.53,1260.9 1315.37,1260.9 1318.31,1270.12 1321.16,1227.78 1324.1,1223.58 1327.04,1237 1329.79,1265.93 1332.74,1272.21 1335.58,1255.45 
  1338.52,1267.18 1341.37,1258.38 1344.31,1265.93 1347.25,1253.35 1350.1,1283.95 1353.04,1262.99 1355.89,1256.7 1358.83,1239.93 1361.77,1227.36 1364.43,1246.22 
  1367.37,1277.66 1370.21,1269.7 1373.16,1260.9 1376,1259.22 1378.94,1252.93 1381.88,1275.15 1384.73,1270.12 1387.67,1252.51 1390.52,1284.79 1393.46,1270.12 
  1396.4,1270.54 1399.06,1255.86 1402,1277.25 1404.85,1270.96 1407.79,1252.93 1410.63,1257.96 1413.57,1263.41 1416.52,1268.44 1419.36,1263.41 1422.3,1251.25 
  1425.15,1251.67 1428.09,1265.51 1431.03,1270.96 1433.69,1269.7 1436.63,1261.73 1439.48,1262.99 1442.42,1258.38 1445.26,1262.15 1448.21,1257.96 1451.15,1272.21 
  1453.99,1244.96 1456.93,1257.54 1459.78,1265.93 1462.72,1271.38 1465.66,1275.57 1468.42,1262.99 1471.36,1260.9 1474.2,1271.8 1477.14,1249.58 1479.99,1256.28 
  1482.93,1263.83 1485.87,1262.57 1488.72,1257.54 1491.66,1279.76 1494.51,1273.05 1497.45,1247.9 1500.39,1250.41 1503.05,1239.51 1505.99,1251.67 1508.83,1266.76 
  1511.78,1279.76 1514.62,1256.28 1517.56,1260.48 1520.51,1245.38 1523.35,1258.38 1526.29,1286.89 1529.14,1273.47 1532.08,1260.9 1535.02,1234.48 1537.68,1244.55 
  1540.62,1298.63 1543.47,1262.57 1546.41,1261.73 1549.25,1266.76 1552.2,1255.45 1555.14,1276.41 1557.98,1270.54 1560.92,1257.54 1563.77,1250.41 1566.71,1265.51 
  1569.65,1262.57 1572.31,1275.99 1575.25,1270.12 1578.1,1263.83 1581.04,1256.28 1583.89,1260.06 1586.83,1268.86 1589.77,1273.47 1592.61,1260.9 1595.56,1248.32 
  1598.4,1276.83 1601.34,1238.26 1604.28,1248.32 1607.04,1251.25 1609.98,1288.56 1612.82,1263.83 1615.77,1249.58 1618.61,1270.54 1621.55,1255.45 1624.49,1265.93 
  1627.34,1269.7 1630.28,1293.6 1633.13,1279.76 1636.07,371.16 1639.01,354.013 1641.67,392.666 1644.61,367.764 1647.46,356.067 1650.4,352.965 1653.24,359.254 
  1656.18,354.684 1659.13,364.368 1661.97,352.923 1664.91,339.55 1667.76,355.145 1670.7,333.052 1673.64,365.919 1676.3,353.175 1679.24,361.392 1682.09,363.404 
  1685.03,359.966 1687.87,359.086 1690.82,359.547 1693.76,348.479 1696.6,367.051 1699.55,380.467 1702.39,362.566 1705.33,360.386 1708.27,407.088 1710.93,337.412 
  1713.87,363.152 1716.72,352.336 1719.66,357.157 1722.51,355.816 1725.45,442.848 1728.39,467.332 1731.24,402.225 1734.18,358.751 1737.02,354.349 1739.96,376.232 
  1742.91,351.959 1745.66,345.209 1748.6,372.837 1751.44,360.805 1754.39,352.211 1757.23,354.558 1760.17,492.737 1763.12,345.419 1765.96,371.914 1768.9,343.449 
  1771.75,348.815 1774.69,338.795 1777.63,353.426 1780.29,357.702 1783.23,366.842 1786.08,357.074 1789.02,349.905 1791.86,360.05 1794.81,351.33 1797.75,349.569 
  1800.59,351.456 1803.53,356.277 1806.38,201.874 1809.32,185.105 1812.26,209.546 1814.92,221.452 1817.86,208.288 1820.71,206.318 1823.65,187.955 1826.5,192.064 
  1829.44,215.122 1832.38,207.995 1835.22,210.929 1838.17,204.557 1841.01,177.475 1843.95,198.981 1846.9,216.673 1849.55,204.012 1852.49,194.621 1855.34,219.398 
  1858.28,200.784 1861.13,206.989 1864.07,201.916 1867.01,189.884 1869.86,180.367 1872.8,191.309 1875.64,183.26 1878.59,195.04 1881.53,168.671 1884.28,217.889 
  1887.22,207.03 1890.07,194.999 1893.01,189.339 1895.85,190.764 1898.79,194.957 1901.74,185.734 1904.58,187.201 1907.52,196.717 1910.37,186.656 1913.31,197.556 
  1916.25,198.227 1918.91,194.957 1921.85,198.897 1924.7,181.583 1927.64,189.255 1930.49,192.525 1933.43,185.985 1936.37,176.636 1939.21,186.53 1942.16,214.074 
  1945,219.021 1947.94,201.58 1950.88,230.256 1953.54,186.614 1956.48,184.099 1959.33,197.053 1962.27,192.064 1965.12,287.858 1968.06,193.699 1971,192.525 
  1973.85,196.34 1976.79,221.41 1979.63,205.228 1982.57,183.931 1985.52,186.74 1988.17,175.965 1991.11,200.91 1993.96,274.359 1996.9,189.884 1999.75,199.317 
  2002.69,194.202 2005.63,186.656 2008.48,178.187 2011.42,178.062 2014.26,205.06 2017.21,184.979 2020.15,167.497 2022.9,168.922 2025.84,235.664 2028.69,478.609 
  2031.63,205.773 2034.47,200.658 2037.42,278.342 2040.36,198.52 2043.2,211.391 2046.14,210.594 2048.99,213.864 2051.93,206.192 2054.87,204.85 2057.53,227.615 
  2060.47,204.557 2063.32,216.254 2066.26,196.634 2069.11,191.561 2072.05,195.753 2074.99,203.174 2077.83,205.06 2080.78,204.138 2083.62,189.716 2086.56,228.327 
  2089.51,231.681 2092.16,204.431 2095.1,207.785 2097.95,203.593 2100.89,198.143 2103.74,207.785 2106.68,209.462 2109.62,195.627 2112.47,201.497 2115.41,219.943 
  2118.25,196.047 2121.2,202.545 2124.14,203.593 2126.79,191.98 2129.73,189.632 2132.58,202.209 2135.52,192.693 2138.37,218.476 2141.31,203.76 2144.25,198.562 
  2147.1,197.472 2150.04,193.783 2152.89,172.486 2155.83,214.451 2158.77,220.152 2161.52,211.265 2164.46,214.786 2167.31,212.229 2170.25,208.959 2173.1,196.675 
  2176.04,191.687 2178.98,193.992 2181.82,189.339 2184.77,207.366 2187.61,162.047 2190.55,181.96 2193.49,207.659 2196.15,205.899 2199.09,189.632 2201.94,204.054 
  2204.88,210.636 2207.73,209.378 2210.67,200.952 2213.61,209.043 2216.46,188.375 2219.4,207.156 2222.24,212.103 2225.18,218.979 2228.13,210.007 2230.78,257.925 
  2233.72,222.123 2236.57,208.582 2239.51,200.742 2242.36,205.102 2245.3,200.323 2248.24,185.859 2251.09,200.742 2254.03,208.749 2256.88,195.418 2259.82,209.001 
  2262.76,181.751 2265.41,199.568 2268.36,217.134 2271.2,209.504 2274.14,206.108 2276.99,207.743 2279.93,203.09 2282.87,193.909 2285.72,214.828 2288.66,255.703 
  2291.51,222.836 
  "></polyline>
</svg>