<svg xmlns="http://www.w3.org/2000/svg" xmlns:xlink="http://www.w3.org/1999/xlink" width="600" height="400" viewBox="0 0 2400 1600" style="width: 100%; height: 100%;">
<defs>
  <clipPath id="clip3400">
    <rect x="0" y="0" width="2400" height="1600"></rect>
  </clipPath>
</defs>
<path clip-path="url(#clip3400)" d="
M0 1600 L2400 1600 L2400 0 L0 0  Z
  " fill="#ffffff" fill-rule="evenodd" fill-opacity="1"></path>
<defs>
  <clipPath id="clip3401">
    <rect x="480" y="0" width="1681" height="1600"></rect>
  </clipPath>
</defs>
<path clip-path="url(#clip3400)" d="
M174.775 1503.47 L2321.26 1503.47 L2321.26 125.984 L174.775 125.984  Z
  " fill="#ffffff" fill-rule="evenodd" fill-opacity="1"></path>
<defs>
  <clipPath id="clip3402">
    <rect x="174" y="125" width="2147" height="1378"></rect>
  </clipPath>
</defs>
<polyline clip-path="url(#clip3402)" style="stroke:#000000; stroke-width:1.6; stroke-opacity:0.1; fill:none" points="
  177.892,1503.47 177.892,125.984 
  "></polyline>
<polyline clip-path="url(#clip3402)" style="stroke:#000000; stroke-width:1.6; stroke-opacity:0.1; fill:none" points="
  705.56,1503.47 705.56,125.984 
  "></polyline>
<polyline clip-path="url(#clip3402)" style="stroke:#000000; stroke-width:1.6; stroke-opacity:0.1; fill:none" points="
  1233.15,1503.47 1233.15,125.984 
  "></polyline>
<polyline clip-path="url(#clip3402)" style="stroke:#000000; stroke-width:1.6; stroke-opacity:0.1; fill:none" points="
  1760.82,1503.47 1760.82,125.984 
  "></polyline>
<polyline clip-path="url(#clip3402)" style="stroke:#000000; stroke-width:1.6; stroke-opacity:0.1; fill:none" points="
  2288.49,1503.47 2288.49,125.984 
  "></polyline>
<polyline clip-path="url(#clip3402)" style="stroke:#000000; stroke-width:1.6; stroke-opacity:0.1; fill:none" points="
  174.775,1298.42 2321.26,1298.42 
  "></polyline>
<polyline clip-path="url(#clip3402)" style="stroke:#000000; stroke-width:1.6; stroke-opacity:0.1; fill:none" points="
  174.775,966.271 2321.26,966.271 
  "></polyline>
<polyline clip-path="url(#clip3402)" style="stroke:#000000; stroke-width:1.6; stroke-opacity:0.1; fill:none" points="
  174.775,634.125 2321.26,634.125 
  "></polyline>
<polyline clip-path="url(#clip3402)" style="stroke:#000000; stroke-width:1.6; stroke-opacity:0.1; fill:none" points="
  174.775,301.98 2321.26,301.98 
  "></polyline>
<polyline clip-path="url(#clip3400)" style="stroke:#000000; stroke-width:3.2; stroke-opacity:1; fill:none" points="
  174.775,1503.47 2321.26,1503.47 
  "></polyline>
<polyline clip-path="url(#clip3400)" style="stroke:#000000; stroke-width:3.2; stroke-opacity:1; fill:none" points="
  174.775,1503.47 174.775,125.984 
  "></polyline>
<polyline clip-path="url(#clip3400)" style="stroke:#000000; stroke-width:3.2; stroke-opacity:1; fill:none" points="
  177.892,1503.47 177.892,1482.81 
  "></polyline>
<polyline clip-path="url(#clip3400)" style="stroke:#000000; stroke-width:3.2; stroke-opacity:1; fill:none" points="
  705.56,1503.47 705.56,1482.81 
  "></polyline>
<polyline clip-path="url(#clip3400)" style="stroke:#000000; stroke-width:3.2; stroke-opacity:1; fill:none" points="
  1233.15,1503.47 1233.15,1482.81 
  "></polyline>
<polyline clip-path="url(#clip3400)" style="stroke:#000000; stroke-width:3.2; stroke-opacity:1; fill:none" points="
  1760.82,1503.47 1760.82,1482.81 
  "></polyline>
<polyline clip-path="url(#clip3400)" style="stroke:#000000; stroke-width:3.2; stroke-opacity:1; fill:none" points="
  2288.49,1503.47 2288.49,1482.81 
  "></polyline>
<polyline clip-path="url(#clip3400)" style="stroke:#000000; stroke-width:3.2; stroke-opacity:1; fill:none" points="
  174.775,1298.42 206.972,1298.42 
  "></polyline>
<polyline clip-path="url(#clip3400)" style="stroke:#000000; stroke-width:3.2; stroke-opacity:1; fill:none" points="
  174.775,966.271 206.972,966.271 
  "></polyline>
<polyline clip-path="url(#clip3400)" style="stroke:#000000; stroke-width:3.2; stroke-opacity:1; fill:none" points="
  174.775,634.125 206.972,634.125 
  "></polyline>
<polyline clip-path="url(#clip3400)" style="stroke:#000000; stroke-width:3.2; stroke-opacity:1; fill:none" points="
  174.775,301.98 206.972,301.98 
  "></polyline>
<g clip-path="url(#clip3400)">
<text style="fill:#000000; fill-opacity:1; font-family:Arial,Helvetica Neue,Helvetica,sans-serif; font-size:48px; text-anchor:middle;" transform="rotate(0, 177.892, 1557.47)" x="177.892" y="1557.47">1946-01-01</text>
</g>
<g clip-path="url(#clip3400)">
<text style="fill:#000000; fill-opacity:1; font-family:Arial,Helvetica Neue,Helvetica,sans-serif; font-size:48px; text-anchor:middle;" transform="rotate(0, 705.56, 1557.47)" x="705.56" y="1557.47">1965-01-01</text>
</g>
<g clip-path="url(#clip3400)">
<text style="fill:#000000; fill-opacity:1; font-family:Arial,Helvetica Neue,Helvetica,sans-serif; font-size:48px; text-anchor:middle;" transform="rotate(0, 1233.15, 1557.47)" x="1233.15" y="1557.47">1984-01-01</text>
</g>
<g clip-path="url(#clip3400)">
<text style="fill:#000000; fill-opacity:1; font-family:Arial,Helvetica Neue,Helvetica,sans-serif; font-size:48px; text-anchor:middle;" transform="rotate(0, 1760.82, 1557.47)" x="1760.82" y="1557.47">2003-01-01</text>
</g>
<g clip-path="url(#clip3400)">
<text style="fill:#000000; fill-opacity:1; font-family:Arial,Helvetica Neue,Helvetica,sans-serif; font-size:48px; text-anchor:middle;" transform="rotate(0, 2288.49, 1557.47)" x="2288.49" y="1557.47">2022-01-01</text>
</g>
<g clip-path="url(#clip3400)">
<text style="fill:#000000; fill-opacity:1; font-family:Arial,Helvetica Neue,Helvetica,sans-serif; font-size:48px; text-anchor:end;" transform="rotate(0, 150.775, 1315.92)" x="150.775" y="1315.92">200</text>
</g>
<g clip-path="url(#clip3400)">
<text style="fill:#000000; fill-opacity:1; font-family:Arial,Helvetica Neue,Helvetica,sans-serif; font-size:48px; text-anchor:end;" transform="rotate(0, 150.775, 983.771)" x="150.775" y="983.771">400</text>
</g>
<g clip-path="url(#clip3400)">
<text style="fill:#000000; fill-opacity:1; font-family:Arial,Helvetica Neue,Helvetica,sans-serif; font-size:48px; text-anchor:end;" transform="rotate(0, 150.775, 651.625)" x="150.775" y="651.625">600</text>
</g>
<g clip-path="url(#clip3400)">
<text style="fill:#000000; fill-opacity:1; font-family:Arial,Helvetica Neue,Helvetica,sans-serif; font-size:48px; text-anchor:end;" transform="rotate(0, 150.775, 319.48)" x="150.775" y="319.48">800</text>
</g>
<g clip-path="url(#clip3400)">
<text style="fill:#000000; fill-opacity:1; font-family:Arial,Helvetica Neue,Helvetica,sans-serif; font-size:84px; text-anchor:middle;" transform="rotate(0, 1248.02, 73.2)" x="1248.02" y="73.2">Consumer price index (NCPI Base 100 au 1.1.1948)</text>
</g>
<polyline clip-path="url(#clip3402)" style="stroke:#009af9; stroke-width:3.2; stroke-opacity:1; fill:none" points="
  235.525,1464.49 237.882,1463.46 240.087,1463.09 242.444,1463.19 244.725,1463.46 247.082,1462.94 249.363,1460.87 251.72,1459.91 254.077,1460.69 256.358,1462.4 
  258.715,1462.68 260.996,1462.61 263.353,1459.61 265.634,1457.88 267.839,1459.44 270.196,1460.32 272.477,1460.14 274.834,1459.81 277.115,1445.89 279.472,1443.48 
  281.829,1444.28 284.11,1447.27 286.467,1448.1 288.748,1446.5 291.105,1446.47 293.386,1447.73 295.591,1447.83 297.948,1449.33 300.229,1449.23 302.586,1448.41 
  304.867,1448.81 307.224,1446.2 309.581,1444.83 311.862,1441.19 314.219,1439.98 316.5,1439.78 318.857,1440.21 321.138,1436.97 323.343,1434.28 325.7,1428.68 
  327.981,1429.7 330.338,1429.58 332.619,1426.77 334.976,1426.97 337.333,1427.7 339.614,1429.05 341.971,1428.88 344.252,1428.73 346.609,1428.75 348.966,1427.14 
  351.171,1427.07 353.528,1428.82 355.809,1428.75 358.166,1427.85 360.447,1426.71 362.804,1425.91 365.161,1425.98 367.442,1426.28 369.799,1426.49 372.08,1426.91 
  374.437,1427.09 376.718,1427.52 378.923,1428.15 381.28,1429.76 383.561,1429.81 385.918,1429.1 388.199,1426.72 390.556,1427.26 392.913,1426.44 395.194,1426.91 
  397.551,1426.57 399.832,1426.49 402.189,1426.59 404.47,1426.09 406.675,1426.38 409.032,1427.9 411.313,1427.89 413.67,1425.79 415.951,1425.56 418.308,1424.86 
  420.665,1424.2 422.946,1424.03 425.303,1424.45 427.584,1424.1 429.941,1424.3 432.222,1425.25 434.427,1427.21 436.784,1427.7 439.065,1427.94 441.422,1427.6 
  443.703,1425.86 446.06,1425.56 448.417,1424.85 450.698,1425.01 453.055,1424.7 455.336,1424.62 457.693,1424.78 460.05,1426.33 462.255,1424.65 464.612,1426.64 
  466.893,1427.55 469.25,1425.69 471.531,1425.46 473.888,1425.59 476.245,1424.81 478.526,1424.43 480.883,1420.75 483.164,1419.77 485.521,1419.05 487.802,1417.89 
  490.007,1418.52 492.364,1417.97 494.645,1417.77 497.002,1415.95 499.283,1414.43 501.64,1411.66 503.997,1412.06 506.278,1412.74 508.635,1412.24 510.916,1411.96 
  513.273,1412.81 515.554,1413.99 517.759,1415.68 520.116,1415.07 522.397,1414.95 524.754,1414.04 527.035,1413.97 529.392,1413.39 531.749,1412.34 534.03,1413.24 
  536.387,1413.01 538.668,1412.94 541.025,1412.81 543.306,1413.65 545.511,1414.6 547.868,1414.82 550.149,1415.53 552.506,1413.47 554.787,1412.82 557.144,1410.33 
  559.501,1410.83 561.782,1412.39 564.139,1412.19 566.42,1411.89 568.777,1412.28 571.134,1413.01 573.339,1413.65 575.696,1413.22 577.977,1413.47 580.334,1411.45 
  582.615,1412.18 584.972,1412.16 587.329,1410.28 589.61,1410.88 591.967,1410.62 594.248,1410.42 596.605,1410.52 598.886,1411.3 601.091,1412.64 603.448,1412.56 
  605.729,1412.44 608.086,1410.91 610.367,1411.01 612.724,1409.62 615.081,1409.9 617.362,1410.47 619.719,1410.05 622,1409.54 624.357,1408.97 626.638,1409.98 
  628.843,1410.66 631.2,1410.52 633.481,1410.38 635.838,1408.17 638.119,1408.34 640.476,1408.34 642.833,1407.08 645.114,1408.87 647.471,1408.31 649.752,1407.71 
  652.109,1407.38 654.39,1406.45 656.595,1406.46 658.952,1406.86 661.233,1402.66 663.59,1401.25 665.871,1401.35 668.228,1400.68 670.585,1399.06 672.866,1400.19 
  675.223,1399.54 677.504,1398.97 679.861,1399.04 682.218,1397.25 684.423,1398.14 686.78,1397.74 689.061,1397.63 691.418,1395.74 693.699,1395.77 696.056,1393.76 
  698.413,1391.4 700.694,1393.69 703.051,1393.59 705.332,1392.38 707.689,1391.78 709.97,1391 712.175,1391.53 714.532,1391.55 716.813,1388.68 719.17,1387.13 
  721.451,1386.58 723.808,1385.64 726.165,1385.09 728.446,1385.75 730.803,1385.44 733.084,1381.92 735.441,1381.97 737.722,1383.83 739.927,1384.66 742.284,1384.34 
  744.565,1383.16 746.922,1381.57 749.203,1380.81 751.56,1379.64 753.917,1379.03 756.198,1379.59 758.555,1379.09 760.836,1378.05 763.193,1378.15 765.474,1378.96 
  767.679,1380.22 770.036,1379.66 772.317,1379.38 774.674,1377.12 776.955,1372.53 779.312,1371.7 781.669,1370.39 783.95,1371.64 786.307,1370.76 788.588,1370.39 
  790.945,1370.13 793.302,1368.76 795.507,1368.5 797.864,1367.93 800.145,1368.18 802.502,1367.93 804.783,1367.45 807.14,1367.47 809.497,1367.04 811.778,1365.83 
  814.136,1365.43 816.416,1364.41 818.774,1363.9 821.055,1363.63 823.259,1363.12 825.616,1362.52 827.897,1361.36 830.254,1361.67 832.535,1360.94 834.893,1361.27 
  837.25,1360.84 839.531,1360.64 841.888,1359.78 844.169,1356.91 846.526,1354.22 848.807,1352.46 851.011,1351.93 853.369,1350.75 855.649,1349.28 858.007,1348.5 
  860.288,1347.41 862.645,1348.21 865.002,1347.08 867.283,1346.18 869.64,1345.68 871.921,1345.05 874.278,1343.16 876.559,1341.21 878.764,1338.64 881.121,1338.41 
  883.402,1336.26 885.759,1335.6 888.04,1335.37 890.397,1335.02 892.754,1333.66 895.035,1331.7 897.392,1330.45 899.673,1329.32 902.03,1327.78 904.387,1326.86 
  906.592,1326.35 908.949,1325.75 911.23,1324.57 913.587,1321.15 915.868,1318.58 918.225,1317.53 920.582,1316.15 922.863,1314.64 925.22,1312.91 927.501,1311.6 
  929.858,1310.47 932.139,1308.98 934.344,1307.8 936.701,1304.76 938.982,1300.76 941.339,1300.34 943.62,1300.71 945.977,1300.26 948.334,1299.55 950.615,1297.24 
  952.972,1295.14 955.253,1292.04 957.61,1288.8 959.891,1282.39 962.096,1280.08 964.453,1275.55 966.734,1272.34 969.091,1271.48 971.372,1267.43 973.729,1266.73 
  976.086,1264.59 978.367,1261.08 980.724,1256.88 983.005,1253.98 985.362,1251.33 987.643,1245.77 989.848,1243.21 992.205,1238.43 994.486,1236.02 996.843,1233.18 
  999.124,1229.68 1001.48,1228.03 1003.84,1225 1006.12,1218.65 1008.48,1215.4 1010.76,1212.97 1013.11,1206.54 1015.47,1204.52 1017.68,1203.47 1020.03,1197.46 
  1022.31,1194.8 1024.67,1194.27 1026.95,1190.9 1029.31,1187.53 1031.67,1187.06 1033.95,1183.59 1036.3,1180.74 1038.58,1177.62 1040.94,1173.06 1043.22,1170.06 
  1045.43,1168.07 1047.78,1165.28 1050.07,1163.53 1052.42,1161.14 1054.7,1158.97 1057.06,1160.29 1059.42,1161.31 1061.7,1159.25 1064.06,1156.97 1066.34,1157.99 
  1068.69,1155.84 1070.97,1154.76 1073.18,1153.42 1075.54,1150.73 1077.82,1149.98 1080.17,1148.62 1082.46,1147.74 1084.81,1147.17 1087.17,1146.31 1089.45,1143.64 
  1091.81,1142.03 1094.09,1142.06 1096.45,1138.19 1098.73,1135.62 1100.93,1134.75 1103.29,1133.52 1105.57,1130.68 1107.93,1128.47 1110.21,1125.98 1112.56,1124.39 
  1114.92,1121.6 1117.2,1118.29 1119.56,1114.96 1121.84,1112.81 1124.2,1110.19 1126.55,1105.92 1128.76,1103.73 1131.12,1100.72 1133.4,1097.39 1135.75,1096.16 
  1138.04,1093.9 1140.39,1092.09 1142.75,1091.64 1145.03,1087.52 1147.39,1082.47 1149.67,1076.59 1152.03,1072.42 1154.31,1069.19 1156.51,1064.92 1158.87,1061.36 
  1161.15,1057.05 1163.51,1051.17 1165.79,1048.26 1168.14,1046.22 1170.5,1041.19 1172.78,1039.61 1175.14,1035.92 1177.42,1032.05 1179.78,1023.91 1182.06,1018.07 
  1184.26,1017.49 1186.62,1015.4 1188.9,1006.89 1191.26,999.768 1193.54,993.241 1195.9,989.737 1198.25,985.037 1200.53,978.128 1202.89,971.934 1205.17,969.659 
  1207.53,962.036 1209.81,960.06 1212.02,958.997 1214.37,956.904 1216.65,953.5 1219.01,951.607 1221.29,941.41 1223.65,936.461 1226.01,929.768 1228.29,923.391 
  1230.64,919.837 1232.92,916.632 1235.28,912.513 1237.64,907.996 1239.84,908.893 1242.2,904.492 1244.48,901.237 1246.84,905.804 1249.12,904.16 1251.48,902.399 
  1253.83,902.599 1256.12,897.982 1258.47,897.401 1260.75,900.34 1263.11,898.115 1265.39,893.581 1267.6,889.695 1269.95,883.218 1272.23,882.288 1274.59,880.71 
  1276.87,876.741 1279.23,879.481 1281.59,879.548 1283.87,873.22 1286.22,871.36 1288.51,870.131 1290.86,871.493 1293.14,874.665 1295.35,878.551 1297.71,879.415 
  1299.99,879.332 1302.34,879.847 1304.62,881.208 1306.98,883.517 1309.34,881.574 1311.62,880.627 1313.98,880.494 1316.26,880.926 1318.61,879.764 1320.9,878.618 
  1323.1,878.834 1325.46,880.71 1327.74,881.707 1330.1,882.653 1332.38,882.653 1334.73,880.129 1337.09,879.116 1339.37,879.049 1341.73,877.472 1344.01,876.027 
  1346.37,875.014 1348.72,874.449 1350.93,873.004 1353.29,873.37 1355.57,872.506 1357.92,871.061 1360.2,867.906 1362.56,866.827 1364.92,865.747 1367.2,864.086 
  1369.56,861.778 1371.84,861.562 1374.19,856.248 1376.48,854.155 1378.68,851.564 1381.04,848.974 1383.32,846.167 1385.68,843.942 1387.96,841.633 1390.31,840.487 
  1392.67,838.262 1394.95,833.861 1397.31,832.433 1399.59,831.486 1401.95,825.441 1404.23,824.511 1406.43,824.362 1408.79,821.057 1411.07,819.197 1413.43,819.546 
  1415.71,818.117 1418.07,814.364 1420.42,809.183 1422.7,800.63 1425.06,796.378 1427.34,796.661 1429.7,796.179 1431.98,795.033 1434.18,793.389 1436.54,796.661 
  1438.82,792.575 1441.18,791.263 1443.46,787.012 1445.82,784.488 1448.17,782.528 1450.46,780.153 1452.81,775.154 1455.09,774.922 1457.45,771.816 1459.81,771.816 
  1462.01,768.296 1464.37,766.984 1466.65,762.732 1469.01,761.022 1471.29,758.979 1473.65,758.149 1476,757.086 1478.28,753 1480.64,750.227 1482.92,750.144 
  1485.28,741.558 1487.56,738.934 1489.76,736.41 1492.12,734.45 1494.4,732.557 1496.76,731.992 1499.04,728.803 1501.4,726.096 1503.75,725.034 1506.04,722.343 
  1508.39,719.238 1510.67,718.341 1513.03,718.092 1515.31,715.717 1517.52,716.049 1519.87,715.235 1522.15,713.425 1524.51,712.943 1526.79,710.735 1529.15,709.672 
  1531.51,706.815 1533.79,705.171 1536.14,702.879 1538.43,701.9 1540.78,698.628 1543.06,697.084 1545.27,696.585 1547.63,696.585 1549.91,695.124 1552.26,693.812 
  1554.54,693.231 1556.9,693.729 1559.26,692.5 1561.54,691.022 1563.9,690.706 1566.18,690.208 1568.53,688.082 1570.89,687.186 1573.1,685.226 1575.45,682.436 
  1577.73,681.705 1580.09,682.12 1582.37,681.29 1584.73,680.891 1587.09,679.912 1589.37,676.889 1591.72,672.638 1594.01,673.534 1596.36,672.305 1598.64,669.449 
  1600.85,671.259 1603.21,671.06 1605.49,669.914 1607.84,669.167 1610.12,666.875 1612.48,665.264 1614.84,662.408 1617.12,659.933 1619.48,658.986 1621.76,659.451 
  1624.11,658.688 1626.4,659.069 1628.6,658.604 1630.96,660.697 1633.24,657.459 1635.6,657.94 1637.88,655.931 1640.23,655.183 1642.59,656.03 1644.87,655.266 
  1647.23,654.702 1649.51,655.549 1651.87,671.822 1654.15,654.13 1656.35,652.988 1658.71,649.188 1660.99,646.432 1663.35,646.913 1665.63,659.167 1667.99,643.293 
  1670.34,640.818 1672.62,637.973 1674.98,637.118 1677.26,633.316 1679.62,641.864 1681.98,628.944 1684.18,626.386 1686.54,622.583 1688.82,621.338 1691.18,614.778 
  1693.46,625.705 1695.81,612.32 1698.17,606.989 1700.45,603.767 1702.81,600.811 1705.09,598.719 1707.45,613.167 1709.73,600.247 1711.93,597.39 1714.29,594.168 
  1716.57,588.356 1718.93,585.234 1721.21,595.497 1723.57,583.523 1725.92,582.28 1728.2,580.467 1730.56,578.956 1732.84,580.949 1735.2,589.601 1737.48,576.863 
  1739.68,576 1742.04,571.915 1744.32,568.792 1746.68,567.165 1748.96,574.671 1751.32,564.225 1753.67,561.087 1755.96,557.184 1758.31,556.237 1760.59,557.483 
  1762.95,565.554 1765.23,551.006 1767.44,547.967 1769.79,548.631 1772.07,548.249 1774.43,548.249 1776.71,557.566 1779.07,543.317 1781.43,538.467 1783.71,539.132 
  1786.06,536.475 1788.35,535.329 1790.7,544.645 1793.06,530.596 1795.26,530.131 1797.62,527.091 1799.9,524.717 1802.26,521.86 1804.54,533.07 1806.9,520.166 
  1809.25,518.256 1811.54,513.889 1813.89,511.331 1816.17,513.324 1818.53,523.288 1820.81,505.917 1823.02,503.841 1825.37,499.856 1827.65,498.228 1830.01,497.663 
  1832.29,504.871 1834.65,489.792 1837.01,486.188 1839.29,479.728 1841.64,483.531 1843.93,484.926 1846.28,491.668 1848.56,472.736 1850.77,470.461 1853.13,466.957 
  1855.41,462.871 1857.76,462.074 1860.04,472.171 1862.4,458.105 1864.76,459.234 1867.04,462.19 1869.4,460.945 1871.68,459.135 1874.03,466.492 1876.32,450.167 
  1878.52,446.314 1880.88,443.258 1883.16,441.215 1885.52,439.754 1887.8,451.977 1890.15,437.495 1892.51,436.25 1894.79,429.441 1897.15,424.924 1899.43,421.187 
  1901.79,428.544 1904.14,414.959 1906.35,405.892 1908.71,402.836 1910.99,394.798 1913.34,389.367 1915.62,395.363 1917.98,390.613 1920.34,389.251 1922.62,391.178 
  1924.98,401.59 1927.26,408.831 1929.61,422.532 1931.9,401.026 1934.1,403.284 1936.46,400.112 1938.74,398.983 1941.1,393.552 1943.38,404.629 1945.73,388.471 
  1948.09,389.816 1950.37,390.945 1952.73,385.979 1955.01,387.673 1957.37,397.854 1959.65,383.14 1961.85,376.015 1964.21,372.395 1966.49,370.02 1968.85,370.485 
  1971.13,374.67 1973.49,361.102 1975.84,360.753 1978.12,359.408 1980.48,357.598 1982.76,353.529 1985.12,359.175 1987.4,339.047 1989.6,329.664 1991.96,325.828 
  1994.24,325.147 1996.6,326.608 1998.88,338.582 2001.24,320.165 2003.59,318.803 2005.88,316.893 2008.23,312.708 2010.51,313.389 2012.87,322.423 2015.23,300.153 
  2017.43,295.636 2019.79,291.235 2022.07,293.145 2024.43,294.739 2026.71,307.278 2029.07,286.834 2031.42,281.071 2033.7,279.377 2036.06,280.274 2038.34,283.446 
  2040.7,295.652 2042.98,270.227 2045.18,270.11 2047.54,268.882 2049.82,271.804 2052.18,267.287 2054.46,282.998 2056.82,263.335 2059.18,260.96 2061.46,263.783 
  2063.81,263.783 2066.09,262.77 2068.45,275.209 2070.73,258.485 2072.94,258.701 2075.29,258.253 2077.58,257.805 2079.93,256.443 2082.21,270.443 2084.57,255.994 
  2086.93,257.24 2089.21,260.395 2091.57,263.551 2093.85,271.904 2096.2,280.723 2098.48,258.02 2100.69,256.111 2103.05,255.43 2105.33,249.667 2107.68,247.076 
  2109.97,262.089 2112.32,248.886 2114.68,251.145 2116.96,253.619 2119.32,252.723 2121.6,257.456 2123.96,274.063 2126.31,256.194 2128.52,255.928 2130.87,254.965 
  2133.16,250.564 2135.51,247.259 2137.79,262.654 2140.15,246.86 2142.51,246.163 2144.79,246.578 2147.15,245.482 2149.43,242.177 2151.78,251.112 2154.06,232.146 
  2156.27,232.013 2158.63,228.443 2160.91,227.347 2163.26,226.649 2165.55,236.547 2167.9,219.79 2170.26,221.983 2172.54,220.471 2174.9,224.324 2177.18,223.494 
  2179.54,235.584 2181.82,217.997 2184.02,216.768 2186.38,213.596 2188.66,208.796 2191.02,206.455 2193.3,216.353 2195.65,197.122 2198.01,193.817 2200.29,192.305 
  2202.65,192.721 2204.93,197.394 2207.29,210.025 2209.57,188.469 2211.77,186.128 2214.13,183.52 2216.41,180.215 2218.77,181.176 2221.05,191.06 2223.41,174.17 
  2225.76,176.37 2228.04,176.508 2230.4,175.964 2232.68,173.905 2235.04,183.238 2237.4,164.97 2239.6,174.453 
  "></polyline>
</svg>