<svg xmlns="http://www.w3.org/2000/svg" xmlns:xlink="http://www.w3.org/1999/xlink" width="600" height="400" viewBox="0 0 2400 1600" style="width: 100%; height: 100%;">
<defs>
  <clipPath id="clip4200">
    <rect x="0" y="0" width="2400" height="1600"></rect>
  </clipPath>
</defs>
<path clip-path="url(#clip4200)" d="
M0 1600 L2400 1600 L2400 0 L0 0  Z
  " fill="#ffffff" fill-rule="evenodd" fill-opacity="1"></path>
<defs>
  <clipPath id="clip4201">
    <rect x="480" y="0" width="1681" height="1600"></rect>
  </clipPath>
</defs>
<path clip-path="url(#clip4200)" d="
M174.775 1503.47 L2321.26 1503.47 L2321.26 125.984 L174.775 125.984  Z
  " fill="#ffffff" fill-rule="evenodd" fill-opacity="1"></path>
<defs>
  <clipPath id="clip4202">
    <rect x="174" y="125" width="2147" height="1378"></rect>
  </clipPath>
</defs>
<polyline clip-path="url(#clip4202)" style="stroke:#000000; stroke-width:1.6; stroke-opacity:0.1; fill:none" points="
  228.103,1503.47 228.103,125.984 
  "></polyline>
<polyline clip-path="url(#clip4202)" style="stroke:#000000; stroke-width:1.6; stroke-opacity:0.1; fill:none" points="
  809.094,1503.47 809.094,125.984 
  "></polyline>
<polyline clip-path="url(#clip4202)" style="stroke:#000000; stroke-width:1.6; stroke-opacity:0.1; fill:none" points="
  1389.82,1503.47 1389.82,125.984 
  "></polyline>
<polyline clip-path="url(#clip4202)" style="stroke:#000000; stroke-width:1.6; stroke-opacity:0.1; fill:none" points="
  1970.81,1503.47 1970.81,125.984 
  "></polyline>
<polyline clip-path="url(#clip4202)" style="stroke:#000000; stroke-width:1.6; stroke-opacity:0.1; fill:none" points="
  174.775,1443.4 2321.26,1443.4 
  "></polyline>
<polyline clip-path="url(#clip4202)" style="stroke:#000000; stroke-width:1.6; stroke-opacity:0.1; fill:none" points="
  174.775,1217.13 2321.26,1217.13 
  "></polyline>
<polyline clip-path="url(#clip4202)" style="stroke:#000000; stroke-width:1.6; stroke-opacity:0.1; fill:none" points="
  174.775,990.859 2321.26,990.859 
  "></polyline>
<polyline clip-path="url(#clip4202)" style="stroke:#000000; stroke-width:1.6; stroke-opacity:0.1; fill:none" points="
  174.775,764.588 2321.26,764.588 
  "></polyline>
<polyline clip-path="url(#clip4202)" style="stroke:#000000; stroke-width:1.6; stroke-opacity:0.1; fill:none" points="
  174.775,538.317 2321.26,538.317 
  "></polyline>
<polyline clip-path="url(#clip4202)" style="stroke:#000000; stroke-width:1.6; stroke-opacity:0.1; fill:none" points="
  174.775,312.046 2321.26,312.046 
  "></polyline>
<polyline clip-path="url(#clip4200)" style="stroke:#000000; stroke-width:3.2; stroke-opacity:1; fill:none" points="
  174.775,1503.47 2321.26,1503.47 
  "></polyline>
<polyline clip-path="url(#clip4200)" style="stroke:#000000; stroke-width:3.2; stroke-opacity:1; fill:none" points="
  174.775,1503.47 174.775,125.984 
  "></polyline>
<polyline clip-path="url(#clip4200)" style="stroke:#000000; stroke-width:3.2; stroke-opacity:1; fill:none" points="
  228.103,1503.47 228.103,1482.81 
  "></polyline>
<polyline clip-path="url(#clip4200)" style="stroke:#000000; stroke-width:3.2; stroke-opacity:1; fill:none" points="
  809.094,1503.47 809.094,1482.81 
  "></polyline>
<polyline clip-path="url(#clip4200)" style="stroke:#000000; stroke-width:3.2; stroke-opacity:1; fill:none" points="
  1389.82,1503.47 1389.82,1482.81 
  "></polyline>
<polyline clip-path="url(#clip4200)" style="stroke:#000000; stroke-width:3.2; stroke-opacity:1; fill:none" points="
  1970.81,1503.47 1970.81,1482.81 
  "></polyline>
<polyline clip-path="url(#clip4200)" style="stroke:#000000; stroke-width:3.2; stroke-opacity:1; fill:none" points="
  174.775,1443.4 206.972,1443.4 
  "></polyline>
<polyline clip-path="url(#clip4200)" style="stroke:#000000; stroke-width:3.2; stroke-opacity:1; fill:none" points="
  174.775,1217.13 206.972,1217.13 
  "></polyline>
<polyline clip-path="url(#clip4200)" style="stroke:#000000; stroke-width:3.2; stroke-opacity:1; fill:none" points="
  174.775,990.859 206.972,990.859 
  "></polyline>
<polyline clip-path="url(#clip4200)" style="stroke:#000000; stroke-width:3.2; stroke-opacity:1; fill:none" points="
  174.775,764.588 206.972,764.588 
  "></polyline>
<polyline clip-path="url(#clip4200)" style="stroke:#000000; stroke-width:3.2; stroke-opacity:1; fill:none" points="
  174.775,538.317 206.972,538.317 
  "></polyline>
<polyline clip-path="url(#clip4200)" style="stroke:#000000; stroke-width:3.2; stroke-opacity:1; fill:none" points="
  174.775,312.046 206.972,312.046 
  "></polyline>
<g clip-path="url(#clip4200)">
<text style="fill:#000000; fill-opacity:1; font-family:Arial,Helvetica Neue,Helvetica,sans-serif; font-size:48px; text-anchor:middle;" transform="rotate(0, 228.103, 1557.47)" x="228.103" y="1557.47">2000-01-01</text>
</g>
<g clip-path="url(#clip4200)">
<text style="fill:#000000; fill-opacity:1; font-family:Arial,Helvetica Neue,Helvetica,sans-serif; font-size:48px; text-anchor:middle;" transform="rotate(0, 809.094, 1557.47)" x="809.094" y="1557.47">2006-01-01</text>
</g>
<g clip-path="url(#clip4200)">
<text style="fill:#000000; fill-opacity:1; font-family:Arial,Helvetica Neue,Helvetica,sans-serif; font-size:48px; text-anchor:middle;" transform="rotate(0, 1389.82, 1557.47)" x="1389.82" y="1557.47">2012-01-01</text>
</g>
<g clip-path="url(#clip4200)">
<text style="fill:#000000; fill-opacity:1; font-family:Arial,Helvetica Neue,Helvetica,sans-serif; font-size:48px; text-anchor:middle;" transform="rotate(0, 1970.81, 1557.47)" x="1970.81" y="1557.47">2018-01-01</text>
</g>
<g clip-path="url(#clip4200)">
<text style="fill:#000000; fill-opacity:1; font-family:Arial,Helvetica Neue,Helvetica,sans-serif; font-size:48px; text-anchor:end;" transform="rotate(0, 150.775, 1460.9)" x="150.775" y="1460.9">600</text>
</g>
<g clip-path="url(#clip4200)">
<text style="fill:#000000; fill-opacity:1; font-family:Arial,Helvetica Neue,Helvetica,sans-serif; font-size:48px; text-anchor:end;" transform="rotate(0, 150.775, 1234.63)" x="150.775" y="1234.63">650</text>
</g>
<g clip-path="url(#clip4200)">
<text style="fill:#000000; fill-opacity:1; font-family:Arial,Helvetica Neue,Helvetica,sans-serif; font-size:48px; text-anchor:end;" transform="rotate(0, 150.775, 1008.36)" x="150.775" y="1008.36">700</text>
</g>
<g clip-path="url(#clip4200)">
<text style="fill:#000000; fill-opacity:1; font-family:Arial,Helvetica Neue,Helvetica,sans-serif; font-size:48px; text-anchor:end;" transform="rotate(0, 150.775, 782.088)" x="150.775" y="782.088">750</text>
</g>
<g clip-path="url(#clip4200)">
<text style="fill:#000000; fill-opacity:1; font-family:Arial,Helvetica Neue,Helvetica,sans-serif; font-size:48px; text-anchor:end;" transform="rotate(0, 150.775, 555.817)" x="150.775" y="555.817">800</text>
</g>
<g clip-path="url(#clip4200)">
<text style="fill:#000000; fill-opacity:1; font-family:Arial,Helvetica Neue,Helvetica,sans-serif; font-size:48px; text-anchor:end;" transform="rotate(0, 150.775, 329.546)" x="150.775" y="329.546">850</text>
</g>
<g clip-path="url(#clip4200)">
<text style="fill:#000000; fill-opacity:1; font-family:Arial,Helvetica Neue,Helvetica,sans-serif; font-size:84px; text-anchor:middle;" transform="rotate(0, 1248.02, 73.2)" x="1248.02" y="73.2">Consumer price index (NCPI Base 100 au 1.1.1948)</text>
</g>
<polyline clip-path="url(#clip4202)" style="stroke:#009af9; stroke-width:3.2; stroke-opacity:1; fill:none" points="
  235.525,1464.49 243.741,1429.28 251.428,1422.31 259.644,1411.95 267.596,1408.55 275.812,1390.68 283.764,1420.46 291.981,1383.98 300.197,1369.46 308.149,1360.68 
  316.365,1352.62 324.317,1346.92 332.533,1386.29 340.485,1351.08 348.171,1343.3 356.388,1334.52 364.339,1318.68 372.556,1310.17 380.507,1338.14 388.724,1305.51 
  396.941,1302.13 404.892,1297.18 413.109,1293.07 421.06,1298.5 429.277,1322.07 437.228,1287.36 444.915,1285.01 453.131,1273.88 461.083,1265.37 469.299,1260.94 
  477.251,1281.39 485.467,1252.93 493.684,1244.37 501.635,1233.74 509.852,1231.16 517.804,1234.55 526.02,1256.55 533.972,1216.9 541.658,1208.62 549.875,1210.43 
  557.826,1209.39 566.043,1209.39 573.994,1234.78 582.211,1195.95 590.427,1182.74 598.379,1184.55 606.595,1177.31 614.547,1174.18 622.763,1199.57 630.98,1161.29 
  638.667,1160.02 646.883,1151.74 654.835,1145.27 663.051,1137.48 671.003,1168.03 679.219,1132.87 687.436,1127.66 695.387,1115.76 703.604,1108.79 711.555,1114.22 
  719.772,1141.37 727.723,1094.04 735.41,1088.38 743.627,1077.52 751.578,1073.09 759.795,1071.55 767.746,1091.19 775.963,1050.1 784.179,1040.28 792.131,1022.67 
  800.347,1033.04 808.299,1036.84 816.515,1055.21 824.467,1003.62 832.153,997.421 840.37,987.872 848.321,976.739 856.538,974.567 864.49,1002.08 872.706,963.752 
  880.923,966.829 888.874,974.884 897.091,971.49 905.042,966.557 913.259,986.605 921.21,942.12 928.897,931.621 937.113,923.294 945.065,917.728 953.281,913.746 
  961.233,947.053 969.449,907.591 977.666,904.197 985.618,885.643 993.834,873.334 1001.79,863.151 1010,883.199 1018.22,846.181 1025.91,821.472 1034.12,813.146 
  1042.07,791.243 1050.29,776.444 1058.24,792.781 1066.46,779.839 1074.67,776.128 1082.63,781.377 1090.84,809.752 1098.79,829.482 1107.01,866.817 1114.96,808.213 
  1122.65,814.367 1130.87,805.724 1138.82,802.647 1147.03,787.849 1154.98,818.033 1163.2,774.001 1171.42,777.666 1179.37,780.744 1187.59,767.213 1195.54,771.829 
  1203.75,799.569 1211.71,759.474 1219.39,740.06 1227.61,730.195 1235.56,723.723 1243.78,724.99 1251.73,736.394 1259.94,699.422 1268.16,698.471 1276.11,694.806 
  1284.33,689.873 1292.28,678.786 1300.5,694.172 1308.45,639.324 1316.14,613.756 1324.35,603.302 1332.3,601.446 1340.52,605.429 1348.47,638.057 1356.69,587.87 
  1364.9,584.159 1372.86,578.955 1381.07,567.551 1389.02,569.407 1397.24,594.025 1405.46,533.339 1413.14,521.03 1421.36,509.037 1429.31,514.242 1437.53,518.586 
  1445.48,552.753 1453.7,497.045 1461.91,481.342 1469.86,476.726 1478.08,479.17 1486.03,487.813 1494.25,521.075 1502.2,451.791 1509.89,451.474 1518.1,448.125 
  1526.06,456.09 1534.27,443.781 1542.22,486.591 1550.44,433.01 1558.66,426.539 1566.61,434.232 1574.82,434.232 1582.78,431.472 1590.99,465.367 1598.94,419.796 
  1606.63,420.384 1614.85,419.163 1622.8,417.941 1631.02,414.23 1638.97,452.379 1647.18,413.008 1655.4,416.402 1663.35,425 1671.57,433.599 1679.52,456.362 
  1687.74,480.392 1695.69,418.529 1703.37,413.325 1711.59,411.469 1719.54,395.766 1727.76,388.707 1735.71,429.616 1743.93,393.639 1752.14,399.794 1760.1,406.537 
  1768.31,404.093 1776.26,416.99 1784.48,462.245 1792.7,413.551 1800.38,412.827 1808.6,410.202 1816.55,398.21 1824.77,389.204 1832.72,431.155 1840.94,388.118 
  1849.15,386.218 1857.1,387.349 1865.32,384.362 1873.27,375.357 1881.49,399.703 1889.44,348.023 1897.13,347.661 1905.34,337.931 1913.29,334.945 1921.51,333.044 
  1929.46,360.015 1937.68,314.354 1945.9,320.327 1953.85,316.209 1962.06,326.708 1970.01,324.446 1978.23,357.391 1986.18,309.466 1993.87,306.118 2002.09,297.474 
  2010.04,284.396 2018.25,278.015 2026.21,304.986 2034.42,252.582 2042.64,243.576 2050.59,239.458 2058.81,240.59 2066.76,253.325 2074.97,287.744 2082.93,229.005 
  2090.61,222.624 2098.83,215.519 2106.78,206.513 2115,209.132 2122.95,236.064 2131.17,190.041 2139.38,196.036 2147.33,196.41 2155.55,194.928 2163.5,189.317 
  2171.72,214.749 2179.93,164.97 2187.62,190.81 
  "></polyline>
<polyline clip-path="url(#clip4202)" style="stroke:#e26f46; stroke-width:3.2; stroke-opacity:1; fill:none" points="
  235.525,1454.82 243.741,1448.25 251.428,1441.26 259.644,1432.03 267.596,1426.53 275.812,1416.46 283.764,1404.58 291.981,1396.01 300.197,1387.3 308.149,1379.17 
  316.365,1376.38 324.317,1371.44 332.533,1361.79 340.485,1355.61 348.171,1349.26 356.388,1342.95 364.339,1341.14 372.556,1335.96 380.507,1325.44 388.724,1318.7 
  396.941,1312.42 404.892,1307.92 413.109,1308.35 421.06,1305.5 429.277,1298.85 437.228,1294.9 444.915,1290.31 453.131,1285.77 461.083,1284.32 469.299,1278.62 
  477.251,1268.91 485.467,1262.2 493.684,1255.47 501.635,1250.56 509.852,1249.45 517.804,1243.95 526.02,1234.85 533.972,1229.54 541.658,1225.17 549.875,1222.12 
  557.826,1222.58 566.043,1217.75 573.994,1208.53 582.211,1204.48 590.427,1200.57 598.379,1196.04 606.595,1194.81 614.547,1188.79 622.763,1179.45 630.98,1173.92 
  638.667,1169.24 646.883,1163.36 654.835,1162.2 663.051,1157.03 671.003,1148.04 679.219,1142.35 687.436,1135.95 695.387,1131.26 703.604,1130.77 711.555,1125.34 
  719.772,1115.39 727.723,1108.47 735.41,1101.65 743.627,1096.12 751.578,1093.92 759.795,1085.9 767.746,1073.27 775.963,1064.35 784.179,1057.43 792.131,1052.34 
  800.347,1050.11 808.299,1041.62 816.515,1029.9 824.467,1022.12 832.153,1014.18 840.37,1008.16 848.321,1004.29 856.538,995.158 864.49,984.11 872.706,980.518 
  880.923,977.277 888.874,974.613 897.091,975.846 905.042,971.79 913.259,962.982 921.21,957.925 928.897,951.787 937.113,944.145 945.065,941.091 953.281,933.72 
  961.233,923.419 969.449,916.359 977.666,909.073 985.618,901.555 993.834,897.239 1001.79,888.794 1010,873.096 1018.22,861.29 1025.91,847.171 1034.12,833.521 
  1042.07,823.452 1050.29,813.038 1058.24,799.654 1066.46,791.554 1074.67,790.089 1082.63,792.131 1090.84,801.577 1098.79,805.549 1107.01,808.247 1114.96,811.483 
  1122.65,814.797 1130.87,815.606 1138.82,816.641 1147.03,809.706 1154.98,798.562 1163.2,795.129 1171.42,789.234 1179.37,784.997 1187.59,784.613 1195.54,781.066 
  1203.75,771.319 1211.71,765.844 1219.39,759.101 1227.61,752.132 1235.56,748.279 1243.78,739.229 1251.73,726.591 1259.94,718.508 1268.16,712.234 1276.11,705.808 
  1284.33,702.114 1292.28,691.406 1300.5,676.076 1308.45,664.061 1316.14,651.933 1324.35,640.761 1332.3,634.284 1340.52,622.92 1348.47,609.168 1356.69,601.622 
  1364.9,595.846 1372.86,591.609 1381.07,590.682 1389.02,581.67 1397.24,567.042 1405.46,557.188 1413.14,548.448 1421.36,540.902 1429.31,539.052 1437.53,530.007 
  1445.48,515.922 1453.7,508.845 1461.91,503.613 1469.86,500.96 1478.08,501.814 1486.03,493.464 1494.25,480.804 1502.2,474.69 1509.89,471.533 1518.1,467.415 
  1526.06,468.343 1534.27,461.492 1542.22,449.675 1550.44,447.48 1558.66,445.325 1566.61,443.244 1574.82,444.403 1582.78,441.405 1590.99,433.129 1598.94,431.398 
  1606.63,430.323 1614.85,427.823 1622.8,430.092 1631.02,427.784 1638.97,421.663 1647.18,422.313 1655.4,423.965 1663.35,428.615 1671.57,436.421 1679.52,436.959 
  1687.74,432.077 1695.69,431.885 1703.37,429.305 1711.59,424.768 1719.54,424.271 1727.76,416.43 1735.71,406.356 1743.93,404.857 1752.14,403.703 1760.1,404.393 
  1768.31,412.703 1776.26,415.808 1784.48,413.709 1792.7,415.78 1800.38,415.582 1808.6,413.415 1816.55,416.798 1824.77,413.189 1832.72,403.686 1840.94,400.41 
  1849.15,396.852 1857.1,392.497 1865.32,392.683 1873.27,387.536 1881.49,377.099 1889.44,370.825 1897.13,364.416 1905.34,357.628 1913.29,354.585 1921.51,346.96 
  1929.46,337.038 1937.68,333.061 1945.9,330.442 1953.85,328.756 1962.06,331.562 1970.01,328.615 1978.23,321.877 1986.18,319.767 1993.87,315.276 2002.09,310.502 
  2010.04,307.786 2018.25,298.803 2026.21,284.577 2034.42,275.826 2042.64,267.635 2050.59,262.116 2058.81,262.535 2066.76,256.408 2074.97,246.113 2082.93,241.48 
  2090.61,236.847 2098.83,233.056 2106.78,232.491 2115,224.58 2122.95,213.117 2131.17,209.042 2139.38,205.58 2147.33,202.305 2155.55,203.335 2163.5,197.814 
  2171.72,192.158 
  "></polyline>
</svg>