<svg xmlns="http://www.w3.org/2000/svg" xmlns:xlink="http://www.w3.org/1999/xlink" width="600" height="400" viewBox="0 0 2400 1600" style="width: 100%; height: 100%;">
<defs>
  <clipPath id="clip7300">
    <rect x="0" y="0" width="2400" height="1600"></rect>
  </clipPath>
</defs>
<path clip-path="url(#clip7300)" d="
M0 1600 L2400 1600 L2400 0 L0 0  Z
  " fill="#ffffff" fill-rule="evenodd" fill-opacity="1"></path>
<defs>
  <clipPath id="clip7301">
    <rect x="480" y="0" width="1681" height="1600"></rect>
  </clipPath>
</defs>
<path clip-path="url(#clip7300)" d="
M163.774 1486.45 L2352.76 1486.45 L2352.76 123.472 L163.774 123.472  Z
  " fill="#ffffff" fill-rule="evenodd" fill-opacity="1"></path>
<defs>
  <clipPath id="clip7302">
    <rect x="163" y="123" width="2190" height="1364"></rect>
  </clipPath>
</defs>
<polyline clip-path="url(#clip7302)" style="stroke:#000000; stroke-width:2; stroke-opacity:0.1; fill:none" points="
  225.726,1486.45 225.726,123.472 
  "></polyline>
<polyline clip-path="url(#clip7302)" style="stroke:#000000; stroke-width:2; stroke-opacity:0.1; fill:none" points="
  745.792,1486.45 745.792,123.472 
  "></polyline>
<polyline clip-path="url(#clip7302)" style="stroke:#000000; stroke-width:2; stroke-opacity:0.1; fill:none" points="
  1265.86,1486.45 1265.86,123.472 
  "></polyline>
<polyline clip-path="url(#clip7302)" style="stroke:#000000; stroke-width:2; stroke-opacity:0.1; fill:none" points="
  1785.92,1486.45 1785.92,123.472 
  "></polyline>
<polyline clip-path="url(#clip7302)" style="stroke:#000000; stroke-width:2; stroke-opacity:0.1; fill:none" points="
  2305.51,1486.45 2305.51,123.472 
  "></polyline>
<polyline clip-path="url(#clip7302)" style="stroke:#000000; stroke-width:2; stroke-opacity:0.1; fill:none" points="
  163.774,1443.22 2352.76,1443.22 
  "></polyline>
<polyline clip-path="url(#clip7302)" style="stroke:#000000; stroke-width:2; stroke-opacity:0.1; fill:none" points="
  163.774,1224.88 2352.76,1224.88 
  "></polyline>
<polyline clip-path="url(#clip7302)" style="stroke:#000000; stroke-width:2; stroke-opacity:0.1; fill:none" points="
  163.774,1006.53 2352.76,1006.53 
  "></polyline>
<polyline clip-path="url(#clip7302)" style="stroke:#000000; stroke-width:2; stroke-opacity:0.1; fill:none" points="
  163.774,788.191 2352.76,788.191 
  "></polyline>
<polyline clip-path="url(#clip7302)" style="stroke:#000000; stroke-width:2; stroke-opacity:0.1; fill:none" points="
  163.774,569.849 2352.76,569.849 
  "></polyline>
<polyline clip-path="url(#clip7302)" style="stroke:#000000; stroke-width:2; stroke-opacity:0.1; fill:none" points="
  163.774,351.506 2352.76,351.506 
  "></polyline>
<polyline clip-path="url(#clip7302)" style="stroke:#000000; stroke-width:2; stroke-opacity:0.1; fill:none" points="
  163.774,133.163 2352.76,133.163 
  "></polyline>
<polyline clip-path="url(#clip7300)" style="stroke:#000000; stroke-width:4; stroke-opacity:1; fill:none" points="
  163.774,1486.45 2352.76,1486.45 
  "></polyline>
<polyline clip-path="url(#clip7300)" style="stroke:#000000; stroke-width:4; stroke-opacity:1; fill:none" points="
  163.774,1486.45 163.774,123.472 
  "></polyline>
<polyline clip-path="url(#clip7300)" style="stroke:#000000; stroke-width:4; stroke-opacity:1; fill:none" points="
  225.726,1486.45 225.726,1470.09 
  "></polyline>
<polyline clip-path="url(#clip7300)" style="stroke:#000000; stroke-width:4; stroke-opacity:1; fill:none" points="
  745.792,1486.45 745.792,1470.09 
  "></polyline>
<polyline clip-path="url(#clip7300)" style="stroke:#000000; stroke-width:4; stroke-opacity:1; fill:none" points="
  1265.86,1486.45 1265.86,1470.09 
  "></polyline>
<polyline clip-path="url(#clip7300)" style="stroke:#000000; stroke-width:4; stroke-opacity:1; fill:none" points="
  1785.92,1486.45 1785.92,1470.09 
  "></polyline>
<polyline clip-path="url(#clip7300)" style="stroke:#000000; stroke-width:4; stroke-opacity:1; fill:none" points="
  2305.51,1486.45 2305.51,1470.09 
  "></polyline>
<polyline clip-path="url(#clip7300)" style="stroke:#000000; stroke-width:4; stroke-opacity:1; fill:none" points="
  163.774,1443.22 190.042,1443.22 
  "></polyline>
<polyline clip-path="url(#clip7300)" style="stroke:#000000; stroke-width:4; stroke-opacity:1; fill:none" points="
  163.774,1224.88 190.042,1224.88 
  "></polyline>
<polyline clip-path="url(#clip7300)" style="stroke:#000000; stroke-width:4; stroke-opacity:1; fill:none" points="
  163.774,1006.53 190.042,1006.53 
  "></polyline>
<polyline clip-path="url(#clip7300)" style="stroke:#000000; stroke-width:4; stroke-opacity:1; fill:none" points="
  163.774,788.191 190.042,788.191 
  "></polyline>
<polyline clip-path="url(#clip7300)" style="stroke:#000000; stroke-width:4; stroke-opacity:1; fill:none" points="
  163.774,569.849 190.042,569.849 
  "></polyline>
<polyline clip-path="url(#clip7300)" style="stroke:#000000; stroke-width:4; stroke-opacity:1; fill:none" points="
  163.774,351.506 190.042,351.506 
  "></polyline>
<polyline clip-path="url(#clip7300)" style="stroke:#000000; stroke-width:4; stroke-opacity:1; fill:none" points="
  163.774,133.163 190.042,133.163 
  "></polyline>
<path clip-path="url(#clip7300)" d="M 0 0 M112.313 1535.98 L128.632 1535.98 L128.632 1539.92 L106.688 1539.92 L106.688 1535.98 Q109.35 1533.23 113.933 1528.6 Q118.54 1523.95 119.72 1522.61 Q121.965 1520.08 122.845 1518.35 Q123.748 1516.59 123.748 1514.9 Q123.748 1512.14 121.803 1510.41 Q119.882 1508.67 116.78 1508.67 Q114.581 1508.67 112.128 1509.43 Q109.697 1510.2 106.919 1511.75 L106.919 1507.03 Q109.743 1505.89 112.197 1505.31 Q114.651 1504.73 116.688 1504.73 Q122.058 1504.73 125.252 1507.42 Q128.447 1510.11 128.447 1514.6 Q128.447 1516.73 127.637 1518.65 Q126.85 1520.54 124.743 1523.14 Q124.164 1523.81 121.063 1527.03 Q117.961 1530.22 112.313 1535.98 Z" fill="#000000" fill-rule="evenodd" fill-opacity="1"></path><path clip-path="url(#clip7300)" d="M 0 0 M143.701 1508.44 Q140.09 1508.44 138.262 1512 Q136.456 1515.55 136.456 1522.67 Q136.456 1529.78 138.262 1533.35 Q140.09 1536.89 143.701 1536.89 Q147.336 1536.89 149.141 1533.35 Q150.97 1529.78 150.97 1522.67 Q150.97 1515.55 149.141 1512 Q147.336 1508.44 143.701 1508.44 M143.701 1504.73 Q149.512 1504.73 152.567 1509.34 Q155.646 1513.92 155.646 1522.67 Q155.646 1531.4 152.567 1536.01 Q149.512 1540.59 143.701 1540.59 Q137.891 1540.59 134.813 1536.01 Q131.757 1531.4 131.757 1522.67 Q131.757 1513.92 134.813 1509.34 Q137.891 1504.73 143.701 1504.73 Z" fill="#000000" fill-rule="evenodd" fill-opacity="1"></path><path clip-path="url(#clip7300)" d="M 0 0 M170.715 1508.44 Q167.104 1508.44 165.275 1512 Q163.47 1515.55 163.47 1522.67 Q163.47 1529.78 165.275 1533.35 Q167.104 1536.89 170.715 1536.89 Q174.349 1536.89 176.155 1533.35 Q177.984 1529.78 177.984 1522.67 Q177.984 1515.55 176.155 1512 Q174.349 1508.44 170.715 1508.44 M170.715 1504.73 Q176.525 1504.73 179.581 1509.34 Q182.66 1513.92 182.66 1522.67 Q182.66 1531.4 179.581 1536.01 Q176.525 1540.59 170.715 1540.59 Q164.905 1540.59 161.826 1536.01 Q158.771 1531.4 158.771 1522.67 Q158.771 1513.92 161.826 1509.34 Q164.905 1504.73 170.715 1504.73 Z" fill="#000000" fill-rule="evenodd" fill-opacity="1"></path><path clip-path="url(#clip7300)" d="M 0 0 M197.729 1523.51 Q194.396 1523.51 192.474 1525.29 Q190.576 1527.07 190.576 1530.2 Q190.576 1533.32 192.474 1535.11 Q194.396 1536.89 197.729 1536.89 Q201.062 1536.89 202.984 1535.11 Q204.905 1533.3 204.905 1530.2 Q204.905 1527.07 202.984 1525.29 Q201.085 1523.51 197.729 1523.51 M193.053 1521.52 Q190.044 1520.78 188.354 1518.72 Q186.687 1516.66 186.687 1513.69 Q186.687 1509.55 189.627 1507.14 Q192.59 1504.73 197.729 1504.73 Q202.891 1504.73 205.831 1507.14 Q208.771 1509.55 208.771 1513.69 Q208.771 1516.66 207.081 1518.72 Q205.414 1520.78 202.428 1521.52 Q205.808 1522.3 207.683 1524.6 Q209.581 1526.89 209.581 1530.2 Q209.581 1535.22 206.502 1537.91 Q203.446 1540.59 197.729 1540.59 Q192.011 1540.59 188.933 1537.91 Q185.877 1535.22 185.877 1530.2 Q185.877 1526.89 187.775 1524.6 Q189.673 1522.3 193.053 1521.52 M191.34 1514.13 Q191.34 1516.82 193.007 1518.32 Q194.697 1519.83 197.729 1519.83 Q200.738 1519.83 202.428 1518.32 Q204.141 1516.82 204.141 1514.13 Q204.141 1511.45 202.428 1509.94 Q200.738 1508.44 197.729 1508.44 Q194.697 1508.44 193.007 1509.94 Q191.34 1511.45 191.34 1514.13 Z" fill="#000000" fill-rule="evenodd" fill-opacity="1"></path><path clip-path="url(#clip7300)" d="M 0 0 M211.895 1525.04 L224.372 1525.04 L224.372 1528.83 L211.895 1528.83 L211.895 1525.04 Z" fill="#000000" fill-rule="evenodd" fill-opacity="1"></path><path clip-path="url(#clip7300)" d="M 0 0 M239.442 1508.44 Q235.831 1508.44 234.002 1512 Q232.196 1515.55 232.196 1522.67 Q232.196 1529.78 234.002 1533.35 Q235.831 1536.89 239.442 1536.89 Q243.076 1536.89 244.881 1533.35 Q246.71 1529.78 246.71 1522.67 Q246.71 1515.55 244.881 1512 Q243.076 1508.44 239.442 1508.44 M239.442 1504.73 Q245.252 1504.73 248.307 1509.34 Q251.386 1513.92 251.386 1522.67 Q251.386 1531.4 248.307 1536.01 Q245.252 1540.59 239.442 1540.59 Q233.631 1540.59 230.553 1536.01 Q227.497 1531.4 227.497 1522.67 Q227.497 1513.92 230.553 1509.34 Q233.631 1504.73 239.442 1504.73 Z" fill="#000000" fill-rule="evenodd" fill-opacity="1"></path><path clip-path="url(#clip7300)" d="M 0 0 M257.266 1535.98 L264.904 1535.98 L264.904 1509.62 L256.594 1511.29 L256.594 1507.03 L264.858 1505.36 L269.534 1505.36 L269.534 1535.98 L277.173 1535.98 L277.173 1539.92 L257.266 1539.92 L257.266 1535.98 Z" fill="#000000" fill-rule="evenodd" fill-opacity="1"></path><path clip-path="url(#clip7300)" d="M 0 0 M279.488 1525.04 L291.965 1525.04 L291.965 1528.83 L279.488 1528.83 L279.488 1525.04 Z" fill="#000000" fill-rule="evenodd" fill-opacity="1"></path><path clip-path="url(#clip7300)" d="M 0 0 M307.034 1508.44 Q303.423 1508.44 301.594 1512 Q299.789 1515.55 299.789 1522.67 Q299.789 1529.78 301.594 1533.35 Q303.423 1536.89 307.034 1536.89 Q310.668 1536.89 312.474 1533.35 Q314.302 1529.78 314.302 1522.67 Q314.302 1515.55 312.474 1512 Q310.668 1508.44 307.034 1508.44 M307.034 1504.73 Q312.844 1504.73 315.9 1509.34 Q318.978 1513.92 318.978 1522.67 Q318.978 1531.4 315.9 1536.01 Q312.844 1540.59 307.034 1540.59 Q301.224 1540.59 298.145 1536.01 Q295.089 1531.4 295.089 1522.67 Q295.089 1513.92 298.145 1509.34 Q301.224 1504.73 307.034 1504.73 Z" fill="#000000" fill-rule="evenodd" fill-opacity="1"></path><path clip-path="url(#clip7300)" d="M 0 0 M324.858 1535.98 L332.497 1535.98 L332.497 1509.62 L324.187 1511.29 L324.187 1507.03 L332.45 1505.36 L337.126 1505.36 L337.126 1535.98 L344.765 1535.98 L344.765 1539.92 L324.858 1539.92 L324.858 1535.98 Z" fill="#000000" fill-rule="evenodd" fill-opacity="1"></path><path clip-path="url(#clip7300)" d="M 0 0 M633.559 1535.98 L649.878 1535.98 L649.878 1539.92 L627.934 1539.92 L627.934 1535.98 Q630.596 1533.23 635.179 1528.6 Q639.785 1523.95 640.966 1522.61 Q643.211 1520.08 644.091 1518.35 Q644.994 1516.59 644.994 1514.9 Q644.994 1512.14 643.049 1510.41 Q641.128 1508.67 638.026 1508.67 Q635.827 1508.67 633.373 1509.43 Q630.943 1510.2 628.165 1511.75 L628.165 1507.03 Q630.989 1505.89 633.443 1505.31 Q635.897 1504.73 637.934 1504.73 Q643.304 1504.73 646.498 1507.42 Q649.693 1510.11 649.693 1514.6 Q649.693 1516.73 648.883 1518.65 Q648.096 1520.54 645.989 1523.14 Q645.41 1523.81 642.309 1527.03 Q639.207 1530.22 633.559 1535.98 Z" fill="#000000" fill-rule="evenodd" fill-opacity="1"></path><path clip-path="url(#clip7300)" d="M 0 0 M664.947 1508.44 Q661.336 1508.44 659.508 1512 Q657.702 1515.55 657.702 1522.67 Q657.702 1529.78 659.508 1533.35 Q661.336 1536.89 664.947 1536.89 Q668.582 1536.89 670.387 1533.35 Q672.216 1529.78 672.216 1522.67 Q672.216 1515.55 670.387 1512 Q668.582 1508.44 664.947 1508.44 M664.947 1504.73 Q670.758 1504.73 673.813 1509.34 Q676.892 1513.92 676.892 1522.67 Q676.892 1531.4 673.813 1536.01 Q670.758 1540.59 664.947 1540.59 Q659.137 1540.59 656.059 1536.01 Q653.003 1531.4 653.003 1522.67 Q653.003 1513.92 656.059 1509.34 Q659.137 1504.73 664.947 1504.73 Z" fill="#000000" fill-rule="evenodd" fill-opacity="1"></path><path clip-path="url(#clip7300)" d="M 0 0 M682.771 1535.98 L690.41 1535.98 L690.41 1509.62 L682.1 1511.29 L682.1 1507.03 L690.364 1505.36 L695.04 1505.36 L695.04 1535.98 L702.679 1535.98 L702.679 1539.92 L682.771 1539.92 L682.771 1535.98 Z" fill="#000000" fill-rule="evenodd" fill-opacity="1"></path><path clip-path="url(#clip7300)" d="M 0 0 M708.558 1535.98 L716.197 1535.98 L716.197 1509.62 L707.887 1511.29 L707.887 1507.03 L716.151 1505.36 L720.827 1505.36 L720.827 1535.98 L728.466 1535.98 L728.466 1539.92 L708.558 1539.92 L708.558 1535.98 Z" fill="#000000" fill-rule="evenodd" fill-opacity="1"></path><path clip-path="url(#clip7300)" d="M 0 0 M730.78 1525.04 L743.257 1525.04 L743.257 1528.83 L730.78 1528.83 L730.78 1525.04 Z" fill="#000000" fill-rule="evenodd" fill-opacity="1"></path><path clip-path="url(#clip7300)" d="M 0 0 M758.326 1508.44 Q754.715 1508.44 752.887 1512 Q751.081 1515.55 751.081 1522.67 Q751.081 1529.78 752.887 1533.35 Q754.715 1536.89 758.326 1536.89 Q761.961 1536.89 763.766 1533.35 Q765.595 1529.78 765.595 1522.67 Q765.595 1515.55 763.766 1512 Q761.961 1508.44 758.326 1508.44 M758.326 1504.73 Q764.137 1504.73 767.192 1509.34 Q770.271 1513.92 770.271 1522.67 Q770.271 1531.4 767.192 1536.01 Q764.137 1540.59 758.326 1540.59 Q752.516 1540.59 749.438 1536.01 Q746.382 1531.4 746.382 1522.67 Q746.382 1513.92 749.438 1509.34 Q752.516 1504.73 758.326 1504.73 Z" fill="#000000" fill-rule="evenodd" fill-opacity="1"></path><path clip-path="url(#clip7300)" d="M 0 0 M776.15 1535.98 L783.789 1535.98 L783.789 1509.62 L775.479 1511.29 L775.479 1507.03 L783.743 1505.36 L788.419 1505.36 L788.419 1535.98 L796.058 1535.98 L796.058 1539.92 L776.15 1539.92 L776.15 1535.98 Z" fill="#000000" fill-rule="evenodd" fill-opacity="1"></path><path clip-path="url(#clip7300)" d="M 0 0 M798.373 1525.04 L810.849 1525.04 L810.849 1528.83 L798.373 1528.83 L798.373 1525.04 Z" fill="#000000" fill-rule="evenodd" fill-opacity="1"></path><path clip-path="url(#clip7300)" d="M 0 0 M825.919 1508.44 Q822.308 1508.44 820.479 1512 Q818.673 1515.55 818.673 1522.67 Q818.673 1529.78 820.479 1533.35 Q822.308 1536.89 825.919 1536.89 Q829.553 1536.89 831.358 1533.35 Q833.187 1529.78 833.187 1522.67 Q833.187 1515.55 831.358 1512 Q829.553 1508.44 825.919 1508.44 M825.919 1504.73 Q831.729 1504.73 834.784 1509.34 Q837.863 1513.92 837.863 1522.67 Q837.863 1531.4 834.784 1536.01 Q831.729 1540.59 825.919 1540.59 Q820.109 1540.59 817.03 1536.01 Q813.974 1531.4 813.974 1522.67 Q813.974 1513.92 817.03 1509.34 Q820.109 1504.73 825.919 1504.73 Z" fill="#000000" fill-rule="evenodd" fill-opacity="1"></path><path clip-path="url(#clip7300)" d="M 0 0 M843.743 1535.98 L851.382 1535.98 L851.382 1509.62 L843.071 1511.29 L843.071 1507.03 L851.335 1505.36 L856.011 1505.36 L856.011 1535.98 L863.65 1535.98 L863.65 1539.92 L843.743 1539.92 L843.743 1535.98 Z" fill="#000000" fill-rule="evenodd" fill-opacity="1"></path><path clip-path="url(#clip7300)" d="M 0 0 M1152.77 1535.98 L1169.09 1535.98 L1169.09 1539.92 L1147.14 1539.92 L1147.14 1535.98 Q1149.8 1533.23 1154.39 1528.6 Q1158.99 1523.95 1160.17 1522.61 Q1162.42 1520.08 1163.3 1518.35 Q1164.2 1516.59 1164.2 1514.9 Q1164.2 1512.14 1162.26 1510.41 Q1160.34 1508.67 1157.24 1508.67 Q1155.04 1508.67 1152.58 1509.43 Q1150.15 1510.2 1147.37 1511.75 L1147.37 1507.03 Q1150.2 1505.89 1152.65 1505.31 Q1155.11 1504.73 1157.14 1504.73 Q1162.51 1504.73 1165.71 1507.42 Q1168.9 1510.11 1168.9 1514.6 Q1168.9 1516.73 1168.09 1518.65 Q1167.3 1520.54 1165.2 1523.14 Q1164.62 1523.81 1161.52 1527.03 Q1158.42 1530.22 1152.77 1535.98 Z" fill="#000000" fill-rule="evenodd" fill-opacity="1"></path><path clip-path="url(#clip7300)" d="M 0 0 M1184.16 1508.44 Q1180.55 1508.44 1178.72 1512 Q1176.91 1515.55 1176.91 1522.67 Q1176.91 1529.78 1178.72 1533.35 Q1180.55 1536.89 1184.16 1536.89 Q1187.79 1536.89 1189.6 1533.35 Q1191.42 1529.78 1191.42 1522.67 Q1191.42 1515.55 1189.6 1512 Q1187.79 1508.44 1184.16 1508.44 M1184.16 1504.73 Q1189.97 1504.73 1193.02 1509.34 Q1196.1 1513.92 1196.1 1522.67 Q1196.1 1531.4 1193.02 1536.01 Q1189.97 1540.59 1184.16 1540.59 Q1178.35 1540.59 1175.27 1536.01 Q1172.21 1531.4 1172.21 1522.67 Q1172.21 1513.92 1175.27 1509.34 Q1178.35 1504.73 1184.16 1504.73 Z" fill="#000000" fill-rule="evenodd" fill-opacity="1"></path><path clip-path="url(#clip7300)" d="M 0 0 M1201.98 1535.98 L1209.62 1535.98 L1209.62 1509.62 L1201.31 1511.29 L1201.31 1507.03 L1209.57 1505.36 L1214.25 1505.36 L1214.25 1535.98 L1221.89 1535.98 L1221.89 1539.92 L1201.98 1539.92 L1201.98 1535.98 Z" fill="#000000" fill-rule="evenodd" fill-opacity="1"></path><path clip-path="url(#clip7300)" d="M 0 0 M1239.8 1509.43 L1228 1527.88 L1239.8 1527.88 L1239.8 1509.43 M1238.58 1505.36 L1244.46 1505.36 L1244.46 1527.88 L1249.39 1527.88 L1249.39 1531.77 L1244.46 1531.77 L1244.46 1539.92 L1239.8 1539.92 L1239.8 1531.77 L1224.2 1531.77 L1224.2 1527.26 L1238.58 1505.36 Z" fill="#000000" fill-rule="evenodd" fill-opacity="1"></path><path clip-path="url(#clip7300)" d="M 0 0 M1251.7 1525.04 L1264.18 1525.04 L1264.18 1528.83 L1251.7 1528.83 L1251.7 1525.04 Z" fill="#000000" fill-rule="evenodd" fill-opacity="1"></path><path clip-path="url(#clip7300)" d="M 0 0 M1279.25 1508.44 Q1275.64 1508.44 1273.81 1512 Q1272 1515.55 1272 1522.67 Q1272 1529.78 1273.81 1533.35 Q1275.64 1536.89 1279.25 1536.89 Q1282.88 1536.89 1284.69 1533.35 Q1286.52 1529.78 1286.52 1522.67 Q1286.52 1515.55 1284.69 1512 Q1282.88 1508.44 1279.25 1508.44 M1279.25 1504.73 Q1285.06 1504.73 1288.11 1509.34 Q1291.19 1513.92 1291.19 1522.67 Q1291.19 1531.4 1288.11 1536.01 Q1285.06 1540.59 1279.25 1540.59 Q1273.44 1540.59 1270.36 1536.01 Q1267.3 1531.4 1267.3 1522.67 Q1267.3 1513.92 1270.36 1509.34 Q1273.44 1504.73 1279.25 1504.73 Z" fill="#000000" fill-rule="evenodd" fill-opacity="1"></path><path clip-path="url(#clip7300)" d="M 0 0 M1297.07 1535.98 L1304.71 1535.98 L1304.71 1509.62 L1296.4 1511.29 L1296.4 1507.03 L1304.66 1505.36 L1309.34 1505.36 L1309.34 1535.98 L1316.98 1535.98 L1316.98 1539.92 L1297.07 1539.92 L1297.07 1535.98 Z" fill="#000000" fill-rule="evenodd" fill-opacity="1"></path><path clip-path="url(#clip7300)" d="M 0 0 M1319.29 1525.04 L1331.77 1525.04 L1331.77 1528.83 L1319.29 1528.83 L1319.29 1525.04 Z" fill="#000000" fill-rule="evenodd" fill-opacity="1"></path><path clip-path="url(#clip7300)" d="M 0 0 M1346.84 1508.44 Q1343.23 1508.44 1341.4 1512 Q1339.6 1515.55 1339.6 1522.67 Q1339.6 1529.78 1341.4 1533.35 Q1343.23 1536.89 1346.84 1536.89 Q1350.47 1536.89 1352.28 1533.35 Q1354.11 1529.78 1354.11 1522.67 Q1354.11 1515.55 1352.28 1512 Q1350.47 1508.44 1346.84 1508.44 M1346.84 1504.73 Q1352.65 1504.73 1355.71 1509.34 Q1358.78 1513.92 1358.78 1522.67 Q1358.78 1531.4 1355.71 1536.01 Q1352.65 1540.59 1346.84 1540.59 Q1341.03 1540.59 1337.95 1536.01 Q1334.9 1531.4 1334.9 1522.67 Q1334.9 1513.92 1337.95 1509.34 Q1341.03 1504.73 1346.84 1504.73 Z" fill="#000000" fill-rule="evenodd" fill-opacity="1"></path><path clip-path="url(#clip7300)" d="M 0 0 M1364.66 1535.98 L1372.3 1535.98 L1372.3 1509.62 L1363.99 1511.29 L1363.99 1507.03 L1372.26 1505.36 L1376.93 1505.36 L1376.93 1535.98 L1384.57 1535.98 L1384.57 1539.92 L1364.66 1539.92 L1364.66 1535.98 Z" fill="#000000" fill-rule="evenodd" fill-opacity="1"></path><path clip-path="url(#clip7300)" d="M 0 0 M1673.53 1535.98 L1689.85 1535.98 L1689.85 1539.92 L1667.9 1539.92 L1667.9 1535.98 Q1670.56 1533.23 1675.15 1528.6 Q1679.75 1523.95 1680.93 1522.61 Q1683.18 1520.08 1684.06 1518.35 Q1684.96 1516.59 1684.96 1514.9 Q1684.96 1512.14 1683.02 1510.41 Q1681.1 1508.67 1677.99 1508.67 Q1675.8 1508.67 1673.34 1509.43 Q1670.91 1510.2 1668.13 1511.75 L1668.13 1507.03 Q1670.96 1505.89 1673.41 1505.31 Q1675.87 1504.73 1677.9 1504.73 Q1683.27 1504.73 1686.47 1507.42 Q1689.66 1510.11 1689.66 1514.6 Q1689.66 1516.73 1688.85 1518.65 Q1688.06 1520.54 1685.96 1523.14 Q1685.38 1523.81 1682.28 1527.03 Q1679.18 1530.22 1673.53 1535.98 Z" fill="#000000" fill-rule="evenodd" fill-opacity="1"></path><path clip-path="url(#clip7300)" d="M 0 0 M1704.92 1508.44 Q1701.3 1508.44 1699.48 1512 Q1697.67 1515.55 1697.67 1522.67 Q1697.67 1529.78 1699.48 1533.35 Q1701.3 1536.89 1704.92 1536.89 Q1708.55 1536.89 1710.36 1533.35 Q1712.18 1529.78 1712.18 1522.67 Q1712.18 1515.55 1710.36 1512 Q1708.55 1508.44 1704.92 1508.44 M1704.92 1504.73 Q1710.73 1504.73 1713.78 1509.34 Q1716.86 1513.92 1716.86 1522.67 Q1716.86 1531.4 1713.78 1536.01 Q1710.73 1540.59 1704.92 1540.59 Q1699.11 1540.59 1696.03 1536.01 Q1692.97 1531.4 1692.97 1522.67 Q1692.97 1513.92 1696.03 1509.34 Q1699.11 1504.73 1704.92 1504.73 Z" fill="#000000" fill-rule="evenodd" fill-opacity="1"></path><path clip-path="url(#clip7300)" d="M 0 0 M1722.74 1535.98 L1730.38 1535.98 L1730.38 1509.62 L1722.07 1511.29 L1722.07 1507.03 L1730.33 1505.36 L1735.01 1505.36 L1735.01 1535.98 L1742.65 1535.98 L1742.65 1539.92 L1722.74 1539.92 L1722.74 1535.98 Z" fill="#000000" fill-rule="evenodd" fill-opacity="1"></path><path clip-path="url(#clip7300)" d="M 0 0 M1746.54 1505.36 L1768.76 1505.36 L1768.76 1507.35 L1756.21 1539.92 L1751.33 1539.92 L1763.13 1509.3 L1746.54 1509.3 L1746.54 1505.36 Z" fill="#000000" fill-rule="evenodd" fill-opacity="1"></path><path clip-path="url(#clip7300)" d="M 0 0 M1771.07 1525.04 L1783.55 1525.04 L1783.55 1528.83 L1771.07 1528.83 L1771.07 1525.04 Z" fill="#000000" fill-rule="evenodd" fill-opacity="1"></path><path clip-path="url(#clip7300)" d="M 0 0 M1798.62 1508.44 Q1795.01 1508.44 1793.18 1512 Q1791.37 1515.55 1791.37 1522.67 Q1791.37 1529.78 1793.18 1533.35 Q1795.01 1536.89 1798.62 1536.89 Q1802.25 1536.89 1804.06 1533.35 Q1805.89 1529.78 1805.89 1522.67 Q1805.89 1515.55 1804.06 1512 Q1802.25 1508.44 1798.62 1508.44 M1798.62 1504.73 Q1804.43 1504.73 1807.48 1509.34 Q1810.56 1513.92 1810.56 1522.67 Q1810.56 1531.4 1807.48 1536.01 Q1804.43 1540.59 1798.62 1540.59 Q1792.81 1540.59 1789.73 1536.01 Q1786.67 1531.4 1786.67 1522.67 Q1786.67 1513.92 1789.73 1509.34 Q1792.81 1504.73 1798.62 1504.73 Z" fill="#000000" fill-rule="evenodd" fill-opacity="1"></path><path clip-path="url(#clip7300)" d="M 0 0 M1816.44 1535.98 L1824.08 1535.98 L1824.08 1509.62 L1815.77 1511.29 L1815.77 1507.03 L1824.04 1505.36 L1828.71 1505.36 L1828.71 1535.98 L1836.35 1535.98 L1836.35 1539.92 L1816.44 1539.92 L1816.44 1535.98 Z" fill="#000000" fill-rule="evenodd" fill-opacity="1"></path><path clip-path="url(#clip7300)" d="M 0 0 M1838.67 1525.04 L1851.14 1525.04 L1851.14 1528.83 L1838.67 1528.83 L1838.67 1525.04 Z" fill="#000000" fill-rule="evenodd" fill-opacity="1"></path><path clip-path="url(#clip7300)" d="M 0 0 M1866.21 1508.44 Q1862.6 1508.44 1860.77 1512 Q1858.97 1515.55 1858.97 1522.67 Q1858.97 1529.78 1860.77 1533.35 Q1862.6 1536.89 1866.21 1536.89 Q1869.85 1536.89 1871.65 1533.35 Q1873.48 1529.78 1873.48 1522.67 Q1873.48 1515.55 1871.65 1512 Q1869.85 1508.44 1866.21 1508.44 M1866.21 1504.73 Q1872.02 1504.73 1875.08 1509.34 Q1878.16 1513.92 1878.16 1522.67 Q1878.16 1531.4 1875.08 1536.01 Q1872.02 1540.59 1866.21 1540.59 Q1860.4 1540.59 1857.32 1536.01 Q1854.27 1531.4 1854.27 1522.67 Q1854.27 1513.92 1857.32 1509.34 Q1860.4 1504.73 1866.21 1504.73 Z" fill="#000000" fill-rule="evenodd" fill-opacity="1"></path><path clip-path="url(#clip7300)" d="M 0 0 M1884.04 1535.98 L1891.67 1535.98 L1891.67 1509.62 L1883.36 1511.29 L1883.36 1507.03 L1891.63 1505.36 L1896.3 1505.36 L1896.3 1535.98 L1903.94 1535.98 L1903.94 1539.92 L1884.04 1539.92 L1884.04 1535.98 Z" fill="#000000" fill-rule="evenodd" fill-opacity="1"></path><path clip-path="url(#clip7300)" d="M 0 0 M2192.85 1535.98 L2209.17 1535.98 L2209.17 1539.92 L2187.23 1539.92 L2187.23 1535.98 Q2189.89 1533.23 2194.47 1528.6 Q2199.08 1523.95 2200.26 1522.61 Q2202.5 1520.08 2203.38 1518.35 Q2204.29 1516.59 2204.29 1514.9 Q2204.29 1512.14 2202.34 1510.41 Q2200.42 1508.67 2197.32 1508.67 Q2195.12 1508.67 2192.67 1509.43 Q2190.24 1510.2 2187.46 1511.75 L2187.46 1507.03 Q2190.28 1505.89 2192.74 1505.31 Q2195.19 1504.73 2197.23 1504.73 Q2202.6 1504.73 2205.79 1507.42 Q2208.99 1510.11 2208.99 1514.6 Q2208.99 1516.73 2208.18 1518.65 Q2207.39 1520.54 2205.28 1523.14 Q2204.7 1523.81 2201.6 1527.03 Q2198.5 1530.22 2192.85 1535.98 Z" fill="#000000" fill-rule="evenodd" fill-opacity="1"></path><path clip-path="url(#clip7300)" d="M 0 0 M2224.24 1508.44 Q2220.63 1508.44 2218.8 1512 Q2217 1515.55 2217 1522.67 Q2217 1529.78 2218.8 1533.35 Q2220.63 1536.89 2224.24 1536.89 Q2227.87 1536.89 2229.68 1533.35 Q2231.51 1529.78 2231.51 1522.67 Q2231.51 1515.55 2229.68 1512 Q2227.87 1508.44 2224.24 1508.44 M2224.24 1504.73 Q2230.05 1504.73 2233.11 1509.34 Q2236.19 1513.92 2236.19 1522.67 Q2236.19 1531.4 2233.11 1536.01 Q2230.05 1540.59 2224.24 1540.59 Q2218.43 1540.59 2215.35 1536.01 Q2212.3 1531.4 2212.3 1522.67 Q2212.3 1513.92 2215.35 1509.34 Q2218.43 1504.73 2224.24 1504.73 Z" fill="#000000" fill-rule="evenodd" fill-opacity="1"></path><path clip-path="url(#clip7300)" d="M 0 0 M2245.28 1535.98 L2261.6 1535.98 L2261.6 1539.92 L2239.66 1539.92 L2239.66 1535.98 Q2242.32 1533.23 2246.9 1528.6 Q2251.51 1523.95 2252.69 1522.61 Q2254.94 1520.08 2255.81 1518.35 Q2256.72 1516.59 2256.72 1514.9 Q2256.72 1512.14 2254.77 1510.41 Q2252.85 1508.67 2249.75 1508.67 Q2247.55 1508.67 2245.1 1509.43 Q2242.67 1510.2 2239.89 1511.75 L2239.89 1507.03 Q2242.71 1505.89 2245.17 1505.31 Q2247.62 1504.73 2249.66 1504.73 Q2255.03 1504.73 2258.22 1507.42 Q2261.42 1510.11 2261.42 1514.6 Q2261.42 1516.73 2260.61 1518.65 Q2259.82 1520.54 2257.71 1523.14 Q2257.13 1523.81 2254.03 1527.03 Q2250.93 1530.22 2245.28 1535.98 Z" fill="#000000" fill-rule="evenodd" fill-opacity="1"></path><path clip-path="url(#clip7300)" d="M 0 0 M2276.67 1508.44 Q2273.06 1508.44 2271.23 1512 Q2269.43 1515.55 2269.43 1522.67 Q2269.43 1529.78 2271.23 1533.35 Q2273.06 1536.89 2276.67 1536.89 Q2280.31 1536.89 2282.11 1533.35 Q2283.94 1529.78 2283.94 1522.67 Q2283.94 1515.55 2282.11 1512 Q2280.31 1508.44 2276.67 1508.44 M2276.67 1504.73 Q2282.48 1504.73 2285.54 1509.34 Q2288.62 1513.92 2288.62 1522.67 Q2288.62 1531.4 2285.54 1536.01 Q2282.48 1540.59 2276.67 1540.59 Q2270.86 1540.59 2267.78 1536.01 Q2264.73 1531.4 2264.73 1522.67 Q2264.73 1513.92 2267.78 1509.34 Q2270.86 1504.73 2276.67 1504.73 Z" fill="#000000" fill-rule="evenodd" fill-opacity="1"></path><path clip-path="url(#clip7300)" d="M 0 0 M2290.93 1525.04 L2303.41 1525.04 L2303.41 1528.83 L2290.93 1528.83 L2290.93 1525.04 Z" fill="#000000" fill-rule="evenodd" fill-opacity="1"></path><path clip-path="url(#clip7300)" d="M 0 0 M2318.48 1508.44 Q2314.87 1508.44 2313.04 1512 Q2311.23 1515.55 2311.23 1522.67 Q2311.23 1529.78 2313.04 1533.35 Q2314.87 1536.89 2318.48 1536.89 Q2322.11 1536.89 2323.92 1533.35 Q2325.74 1529.78 2325.74 1522.67 Q2325.74 1515.55 2323.92 1512 Q2322.11 1508.44 2318.48 1508.44 M2318.48 1504.73 Q2324.29 1504.73 2327.34 1509.34 Q2330.42 1513.92 2330.42 1522.67 Q2330.42 1531.4 2327.34 1536.01 Q2324.29 1540.59 2318.48 1540.59 Q2312.67 1540.59 2309.59 1536.01 Q2306.53 1531.4 2306.53 1522.67 Q2306.53 1513.92 2309.59 1509.34 Q2312.67 1504.73 2318.48 1504.73 Z" fill="#000000" fill-rule="evenodd" fill-opacity="1"></path><path clip-path="url(#clip7300)" d="M 0 0 M2336.3 1535.98 L2343.94 1535.98 L2343.94 1509.62 L2335.63 1511.29 L2335.63 1507.03 L2343.89 1505.36 L2348.57 1505.36 L2348.57 1535.98 L2356.21 1535.98 L2356.21 1539.92 L2336.3 1539.92 L2336.3 1535.98 Z" fill="#000000" fill-rule="evenodd" fill-opacity="1"></path><path clip-path="url(#clip7300)" d="M 0 0 M2358.52 1525.04 L2371 1525.04 L2371 1528.83 L2358.52 1528.83 L2358.52 1525.04 Z" fill="#000000" fill-rule="evenodd" fill-opacity="1"></path><path clip-path="url(#clip7300)" d="M 0 0 M2386.07 1508.44 Q2382.46 1508.44 2380.63 1512 Q2378.82 1515.55 2378.82 1522.67 Q2378.82 1529.78 2380.63 1533.35 Q2382.46 1536.89 2386.07 1536.89 Q2389.7 1536.89 2391.51 1533.35 Q2393.34 1529.78 2393.34 1522.67 Q2393.34 1515.55 2391.51 1512 Q2389.7 1508.44 2386.07 1508.44 M2386.07 1504.73 Q2391.88 1504.73 2394.93 1509.34 Q2398.01 1513.92 2398.01 1522.67 Q2398.01 1531.4 2394.93 1536.01 Q2391.88 1540.59 2386.07 1540.59 Q2380.26 1540.59 2377.18 1536.01 Q2374.12 1531.4 2374.12 1522.67 Q2374.12 1513.92 2377.18 1509.34 Q2380.26 1504.73 2386.07 1504.73 Z" fill="#000000" fill-rule="evenodd" fill-opacity="1"></path><path clip-path="url(#clip7300)" d="M 0 0 M2403.89 1535.98 L2411.53 1535.98 L2411.53 1509.62 L2403.22 1511.29 L2403.22 1507.03 L2411.49 1505.36 L2416.16 1505.36 L2416.16 1535.98 L2423.8 1535.98 L2423.8 1539.92 L2403.89 1539.92 L2403.89 1535.98 Z" fill="#000000" fill-rule="evenodd" fill-opacity="1"></path><path clip-path="url(#clip7300)" d="M 0 0 M91.8577 1425.94 L110.214 1425.94 L110.214 1429.87 L96.1401 1429.87 L96.1401 1438.35 Q97.1586 1438 98.1771 1437.84 Q99.1956 1437.65 100.214 1437.65 Q106.001 1437.65 109.381 1440.82 Q112.76 1443.99 112.76 1449.41 Q112.76 1454.99 109.288 1458.09 Q105.816 1461.17 99.4966 1461.17 Q97.3206 1461.17 95.0521 1460.8 Q92.8068 1460.43 90.3994 1459.69 L90.3994 1454.99 Q92.4827 1456.12 94.7049 1456.68 Q96.9271 1457.24 99.404 1457.24 Q103.409 1457.24 105.747 1455.13 Q108.084 1453.02 108.084 1449.41 Q108.084 1445.8 105.747 1443.69 Q103.409 1441.59 99.404 1441.59 Q97.529 1441.59 95.654 1442 Q93.8021 1442.42 91.8577 1443.3 L91.8577 1425.94 Z" fill="#000000" fill-rule="evenodd" fill-opacity="1"></path><path clip-path="url(#clip7300)" d="M 0 0 M127.83 1429.02 Q124.219 1429.02 122.39 1432.58 Q120.584 1436.12 120.584 1443.25 Q120.584 1450.36 122.39 1453.93 Q124.219 1457.47 127.83 1457.47 Q131.464 1457.47 133.27 1453.93 Q135.098 1450.36 135.098 1443.25 Q135.098 1436.12 133.27 1432.58 Q131.464 1429.02 127.83 1429.02 M127.83 1425.31 Q133.64 1425.31 136.695 1429.92 Q139.774 1434.5 139.774 1443.25 Q139.774 1451.98 136.695 1456.59 Q133.64 1461.17 127.83 1461.17 Q122.02 1461.17 118.941 1456.59 Q115.885 1451.98 115.885 1443.25 Q115.885 1434.5 118.941 1429.92 Q122.02 1425.31 127.83 1425.31 Z" fill="#000000" fill-rule="evenodd" fill-opacity="1"></path><path clip-path="url(#clip7300)" d="M 0 0 M65.8393 1238.22 L73.4782 1238.22 L73.4782 1211.86 L65.168 1213.52 L65.168 1209.26 L73.4319 1207.6 L78.1078 1207.6 L78.1078 1238.22 L85.7466 1238.22 L85.7466 1242.16 L65.8393 1242.16 L65.8393 1238.22 Z" fill="#000000" fill-rule="evenodd" fill-opacity="1"></path><path clip-path="url(#clip7300)" d="M 0 0 M100.816 1210.68 Q97.2049 1210.68 95.3762 1214.24 Q93.5707 1217.78 93.5707 1224.91 Q93.5707 1232.02 95.3762 1235.58 Q97.2049 1239.12 100.816 1239.12 Q104.45 1239.12 106.256 1235.58 Q108.084 1232.02 108.084 1224.91 Q108.084 1217.78 106.256 1214.24 Q104.45 1210.68 100.816 1210.68 M100.816 1206.97 Q106.626 1206.97 109.682 1211.58 Q112.76 1216.16 112.76 1224.91 Q112.76 1233.64 109.682 1238.24 Q106.626 1242.83 100.816 1242.83 Q95.0058 1242.83 91.9272 1238.24 Q88.8716 1233.64 88.8716 1224.91 Q88.8716 1216.16 91.9272 1211.58 Q95.0058 1206.97 100.816 1206.97 Z" fill="#000000" fill-rule="evenodd" fill-opacity="1"></path><path clip-path="url(#clip7300)" d="M 0 0 M127.83 1210.68 Q124.219 1210.68 122.39 1214.24 Q120.584 1217.78 120.584 1224.91 Q120.584 1232.02 122.39 1235.58 Q124.219 1239.12 127.83 1239.12 Q131.464 1239.12 133.27 1235.58 Q135.098 1232.02 135.098 1224.91 Q135.098 1217.78 133.27 1214.24 Q131.464 1210.68 127.83 1210.68 M127.83 1206.97 Q133.64 1206.97 136.695 1211.58 Q139.774 1216.16 139.774 1224.91 Q139.774 1233.64 136.695 1238.24 Q133.64 1242.83 127.83 1242.83 Q122.02 1242.83 118.941 1238.24 Q115.885 1233.64 115.885 1224.91 Q115.885 1216.16 118.941 1211.58 Q122.02 1206.97 127.83 1206.97 Z" fill="#000000" fill-rule="evenodd" fill-opacity="1"></path><path clip-path="url(#clip7300)" d="M 0 0 M66.8347 1019.88 L74.4735 1019.88 L74.4735 993.513 L66.1634 995.18 L66.1634 990.921 L74.4272 989.254 L79.1032 989.254 L79.1032 1019.88 L86.742 1019.88 L86.742 1023.81 L66.8347 1023.81 L66.8347 1019.88 Z" fill="#000000" fill-rule="evenodd" fill-opacity="1"></path><path clip-path="url(#clip7300)" d="M 0 0 M91.8577 989.254 L110.214 989.254 L110.214 993.189 L96.1401 993.189 L96.1401 1001.66 Q97.1586 1001.31 98.1771 1001.15 Q99.1956 1000.97 100.214 1000.97 Q106.001 1000.97 109.381 1004.14 Q112.76 1007.31 112.76 1012.73 Q112.76 1018.3 109.288 1021.41 Q105.816 1024.49 99.4966 1024.49 Q97.3206 1024.49 95.0521 1024.12 Q92.8068 1023.74 90.3994 1023 L90.3994 1018.3 Q92.4827 1019.44 94.7049 1019.99 Q96.9271 1020.55 99.404 1020.55 Q103.409 1020.55 105.747 1018.44 Q108.084 1016.34 108.084 1012.73 Q108.084 1009.12 105.747 1007.01 Q103.409 1004.9 99.404 1004.9 Q97.529 1004.9 95.654 1005.32 Q93.8021 1005.74 91.8577 1006.62 L91.8577 989.254 Z" fill="#000000" fill-rule="evenodd" fill-opacity="1"></path><path clip-path="url(#clip7300)" d="M 0 0 M127.83 992.333 Q124.219 992.333 122.39 995.898 Q120.584 999.439 120.584 1006.57 Q120.584 1013.68 122.39 1017.24 Q124.219 1020.78 127.83 1020.78 Q131.464 1020.78 133.27 1017.24 Q135.098 1013.68 135.098 1006.57 Q135.098 999.439 133.27 995.898 Q131.464 992.333 127.83 992.333 M127.83 988.629 Q133.64 988.629 136.695 993.236 Q139.774 997.819 139.774 1006.57 Q139.774 1015.3 136.695 1019.9 Q133.64 1024.49 127.83 1024.49 Q122.02 1024.49 118.941 1019.9 Q115.885 1015.3 115.885 1006.57 Q115.885 997.819 118.941 993.236 Q122.02 988.629 127.83 988.629 Z" fill="#000000" fill-rule="evenodd" fill-opacity="1"></path><path clip-path="url(#clip7300)" d="M 0 0 M69.4273 801.536 L85.7466 801.536 L85.7466 805.471 L63.8023 805.471 L63.8023 801.536 Q66.4643 798.782 71.0476 794.152 Q75.6541 789.499 76.8346 788.157 Q79.08 785.634 79.9596 783.897 Q80.8624 782.138 80.8624 780.448 Q80.8624 777.694 78.918 775.958 Q76.9967 774.222 73.8948 774.222 Q71.6958 774.222 69.2421 774.985 Q66.8115 775.749 64.0338 777.3 L64.0338 772.578 Q66.8578 771.444 69.3115 770.865 Q71.7652 770.286 73.8023 770.286 Q79.1726 770.286 82.367 772.972 Q85.5614 775.657 85.5614 780.148 Q85.5614 782.277 84.7513 784.198 Q83.9642 786.097 81.8578 788.689 Q81.2791 789.36 78.1772 792.578 Q75.0754 795.772 69.4273 801.536 Z" fill="#000000" fill-rule="evenodd" fill-opacity="1"></path><path clip-path="url(#clip7300)" d="M 0 0 M100.816 773.99 Q97.2049 773.99 95.3762 777.555 Q93.5707 781.097 93.5707 788.226 Q93.5707 795.333 95.3762 798.897 Q97.2049 802.439 100.816 802.439 Q104.45 802.439 106.256 798.897 Q108.084 795.333 108.084 788.226 Q108.084 781.097 106.256 777.555 Q104.45 773.99 100.816 773.99 M100.816 770.286 Q106.626 770.286 109.682 774.893 Q112.76 779.476 112.76 788.226 Q112.76 796.953 109.682 801.559 Q106.626 806.143 100.816 806.143 Q95.0058 806.143 91.9272 801.559 Q88.8716 796.953 88.8716 788.226 Q88.8716 779.476 91.9272 774.893 Q95.0058 770.286 100.816 770.286 Z" fill="#000000" fill-rule="evenodd" fill-opacity="1"></path><path clip-path="url(#clip7300)" d="M 0 0 M127.83 773.99 Q124.219 773.99 122.39 777.555 Q120.584 781.097 120.584 788.226 Q120.584 795.333 122.39 798.897 Q124.219 802.439 127.83 802.439 Q131.464 802.439 133.27 798.897 Q135.098 795.333 135.098 788.226 Q135.098 781.097 133.27 777.555 Q131.464 773.99 127.83 773.99 M127.83 770.286 Q133.64 770.286 136.695 774.893 Q139.774 779.476 139.774 788.226 Q139.774 796.953 136.695 801.559 Q133.64 806.143 127.83 806.143 Q122.02 806.143 118.941 801.559 Q115.885 796.953 115.885 788.226 Q115.885 779.476 118.941 774.893 Q122.02 770.286 127.83 770.286 Z" fill="#000000" fill-rule="evenodd" fill-opacity="1"></path><path clip-path="url(#clip7300)" d="M 0 0 M70.4226 583.194 L86.742 583.194 L86.742 587.129 L64.7977 587.129 L64.7977 583.194 Q67.4597 580.439 72.043 575.809 Q76.6495 571.157 77.83 569.814 Q80.0754 567.291 80.955 565.555 Q81.8578 563.796 81.8578 562.106 Q81.8578 559.351 79.9133 557.615 Q77.992 555.879 74.8902 555.879 Q72.6911 555.879 70.2375 556.643 Q67.8069 557.407 65.0292 558.958 L65.0292 554.235 Q67.8532 553.101 70.3069 552.522 Q72.7606 551.944 74.7976 551.944 Q80.168 551.944 83.3624 554.629 Q86.5568 557.314 86.5568 561.805 Q86.5568 563.934 85.7466 565.856 Q84.9596 567.754 82.8531 570.346 Q82.2744 571.018 79.1726 574.235 Q76.0708 577.43 70.4226 583.194 Z" fill="#000000" fill-rule="evenodd" fill-opacity="1"></path><path clip-path="url(#clip7300)" d="M 0 0 M91.8577 552.569 L110.214 552.569 L110.214 556.504 L96.1401 556.504 L96.1401 564.976 Q97.1586 564.629 98.1771 564.467 Q99.1956 564.282 100.214 564.282 Q106.001 564.282 109.381 567.453 Q112.76 570.624 112.76 576.041 Q112.76 581.62 109.288 584.721 Q105.816 587.8 99.4966 587.8 Q97.3206 587.8 95.0521 587.43 Q92.8068 587.059 90.3994 586.319 L90.3994 581.62 Q92.4827 582.754 94.7049 583.309 Q96.9271 583.865 99.404 583.865 Q103.409 583.865 105.747 581.758 Q108.084 579.652 108.084 576.041 Q108.084 572.43 105.747 570.323 Q103.409 568.217 99.404 568.217 Q97.529 568.217 95.654 568.634 Q93.8021 569.05 91.8577 569.93 L91.8577 552.569 Z" fill="#000000" fill-rule="evenodd" fill-opacity="1"></path><path clip-path="url(#clip7300)" d="M 0 0 M127.83 555.647 Q124.219 555.647 122.39 559.212 Q120.584 562.754 120.584 569.884 Q120.584 576.99 122.39 580.555 Q124.219 584.096 127.83 584.096 Q131.464 584.096 133.27 580.555 Q135.098 576.99 135.098 569.884 Q135.098 562.754 133.27 559.212 Q131.464 555.647 127.83 555.647 M127.83 551.944 Q133.64 551.944 136.695 556.55 Q139.774 561.134 139.774 569.884 Q139.774 578.61 136.695 583.217 Q133.64 587.8 127.83 587.8 Q122.02 587.8 118.941 583.217 Q115.885 578.61 115.885 569.884 Q115.885 561.134 118.941 556.55 Q122.02 551.944 127.83 551.944 Z" fill="#000000" fill-rule="evenodd" fill-opacity="1"></path><path clip-path="url(#clip7300)" d="M 0 0 M78.617 350.152 Q81.9735 350.87 83.8485 353.138 Q85.7466 355.407 85.7466 358.74 Q85.7466 363.856 82.2281 366.656 Q78.7096 369.457 72.2282 369.457 Q70.0523 369.457 67.7375 369.018 Q65.4458 368.601 62.9921 367.744 L62.9921 363.231 Q64.9366 364.365 67.2514 364.944 Q69.5662 365.522 72.0893 365.522 Q76.4874 365.522 78.7791 363.786 Q81.0939 362.05 81.0939 358.74 Q81.0939 355.684 78.9411 353.971 Q76.8115 352.235 72.9921 352.235 L68.9643 352.235 L68.9643 348.393 L73.1773 348.393 Q76.6263 348.393 78.455 347.027 Q80.2837 345.638 80.2837 343.046 Q80.2837 340.383 78.3856 338.971 Q76.5106 337.536 72.9921 337.536 Q71.0708 337.536 68.8717 337.953 Q66.6727 338.37 64.0338 339.249 L64.0338 335.083 Q66.6958 334.342 69.0106 333.971 Q71.3486 333.601 73.4087 333.601 Q78.7328 333.601 81.8346 336.032 Q84.9365 338.439 84.9365 342.559 Q84.9365 345.43 83.2929 347.42 Q81.6494 349.388 78.617 350.152 Z" fill="#000000" fill-rule="evenodd" fill-opacity="1"></path><path clip-path="url(#clip7300)" d="M 0 0 M100.816 337.305 Q97.2049 337.305 95.3762 340.87 Q93.5707 344.411 93.5707 351.541 Q93.5707 358.647 95.3762 362.212 Q97.2049 365.754 100.816 365.754 Q104.45 365.754 106.256 362.212 Q108.084 358.647 108.084 351.541 Q108.084 344.411 106.256 340.87 Q104.45 337.305 100.816 337.305 M100.816 333.601 Q106.626 333.601 109.682 338.208 Q112.76 342.791 112.76 351.541 Q112.76 360.268 109.682 364.874 Q106.626 369.457 100.816 369.457 Q95.0058 369.457 91.9272 364.874 Q88.8716 360.268 88.8716 351.541 Q88.8716 342.791 91.9272 338.208 Q95.0058 333.601 100.816 333.601 Z" fill="#000000" fill-rule="evenodd" fill-opacity="1"></path><path clip-path="url(#clip7300)" d="M 0 0 M127.83 337.305 Q124.219 337.305 122.39 340.87 Q120.584 344.411 120.584 351.541 Q120.584 358.647 122.39 362.212 Q124.219 365.754 127.83 365.754 Q131.464 365.754 133.27 362.212 Q135.098 358.647 135.098 351.541 Q135.098 344.411 133.27 340.87 Q131.464 337.305 127.83 337.305 M127.83 333.601 Q133.64 333.601 136.695 338.208 Q139.774 342.791 139.774 351.541 Q139.774 360.268 136.695 364.874 Q133.64 369.457 127.83 369.457 Q122.02 369.457 118.941 364.874 Q115.885 360.268 115.885 351.541 Q115.885 342.791 118.941 338.208 Q122.02 333.601 127.83 333.601 Z" fill="#000000" fill-rule="evenodd" fill-opacity="1"></path><path clip-path="url(#clip7300)" d="M 0 0 M79.6124 131.809 Q82.9689 132.527 84.8439 134.795 Q86.742 137.064 86.742 140.397 Q86.742 145.513 83.2235 148.314 Q79.705 151.115 73.2236 151.115 Q71.0476 151.115 68.7328 150.675 Q66.4412 150.258 63.9875 149.402 L63.9875 144.888 Q65.9319 146.022 68.2467 146.601 Q70.5615 147.18 73.0847 147.18 Q77.4828 147.18 79.7744 145.443 Q82.0892 143.707 82.0892 140.397 Q82.0892 137.342 79.9365 135.629 Q77.8069 133.893 73.9874 133.893 L69.9597 133.893 L69.9597 130.05 L74.1726 130.05 Q77.6217 130.05 79.4504 128.684 Q81.2791 127.295 81.2791 124.703 Q81.2791 122.041 79.3809 120.629 Q77.5059 119.194 73.9874 119.194 Q72.0662 119.194 69.8671 119.61 Q67.668 120.027 65.0292 120.907 L65.0292 116.74 Q67.6912 115.999 70.006 115.629 Q72.3439 115.258 74.4041 115.258 Q79.7281 115.258 82.83 117.689 Q85.9318 120.096 85.9318 124.217 Q85.9318 127.087 84.2883 129.078 Q82.6448 131.045 79.6124 131.809 Z" fill="#000000" fill-rule="evenodd" fill-opacity="1"></path><path clip-path="url(#clip7300)" d="M 0 0 M91.8577 115.883 L110.214 115.883 L110.214 119.819 L96.1401 119.819 L96.1401 128.291 Q97.1586 127.944 98.1771 127.782 Q99.1956 127.596 100.214 127.596 Q106.001 127.596 109.381 130.768 Q112.76 133.939 112.76 139.356 Q112.76 144.934 109.288 148.036 Q105.816 151.115 99.4966 151.115 Q97.3206 151.115 95.0521 150.744 Q92.8068 150.374 90.3994 149.633 L90.3994 144.934 Q92.4827 146.068 94.7049 146.624 Q96.9271 147.18 99.404 147.18 Q103.409 147.18 105.747 145.073 Q108.084 142.967 108.084 139.356 Q108.084 135.744 105.747 133.638 Q103.409 131.532 99.404 131.532 Q97.529 131.532 95.654 131.948 Q93.8021 132.365 91.8577 133.244 L91.8577 115.883 Z" fill="#000000" fill-rule="evenodd" fill-opacity="1"></path><path clip-path="url(#clip7300)" d="M 0 0 M127.83 118.962 Q124.219 118.962 122.39 122.527 Q120.584 126.069 120.584 133.198 Q120.584 140.305 122.39 143.869 Q124.219 147.411 127.83 147.411 Q131.464 147.411 133.27 143.869 Q135.098 140.305 135.098 133.198 Q135.098 126.069 133.27 122.527 Q131.464 118.962 127.83 118.962 M127.83 115.258 Q133.64 115.258 136.695 119.865 Q139.774 124.448 139.774 133.198 Q139.774 141.925 136.695 146.531 Q133.64 151.115 127.83 151.115 Q122.02 151.115 118.941 146.531 Q115.885 141.925 115.885 133.198 Q115.885 124.448 118.941 119.865 Q122.02 115.258 127.83 115.258 Z" fill="#000000" fill-rule="evenodd" fill-opacity="1"></path><path clip-path="url(#clip7300)" d="M 0 0 M609.817 9.62495 Q604.388 18.942 601.755 28.0566 Q599.122 37.1711 599.122 46.5287 Q599.122 55.8863 601.755 65.0818 Q604.429 74.2369 609.817 83.5134 L603.335 83.5134 Q597.259 73.9938 594.221 64.7983 Q591.223 55.6027 591.223 46.5287 Q591.223 37.4952 594.221 28.3401 Q597.218 19.1851 603.335 9.62495 L609.817 9.62495 Z" fill="#000000" fill-rule="evenodd" fill-opacity="1"></path><path clip-path="url(#clip7300)" d="M 0 0 M654.214 14.0809 L654.214 22.0612 Q649.556 19.8332 645.424 18.7395 Q641.292 17.6457 637.444 17.6457 Q630.76 17.6457 627.114 20.2383 Q623.509 22.8309 623.509 27.611 Q623.509 31.6214 625.899 33.6873 Q628.329 35.7128 635.054 36.9686 L639.996 37.9813 Q649.151 39.7232 653.485 44.1387 Q657.86 48.5136 657.86 55.8863 Q657.86 64.6767 651.946 69.2137 Q646.072 73.7508 634.689 73.7508 Q630.395 73.7508 625.534 72.7785 Q620.713 71.8063 615.528 69.9024 L615.528 61.4765 Q620.511 64.2716 625.291 65.6895 Q630.071 67.1073 634.689 67.1073 Q641.697 67.1073 645.505 64.3527 Q649.313 61.598 649.313 56.4939 Q649.313 52.0379 646.558 49.5264 Q643.844 47.0148 637.606 45.759 L632.623 44.7868 Q623.468 42.9639 619.377 39.075 Q615.285 35.1862 615.285 28.2591 Q615.285 20.2383 620.916 15.6203 Q626.587 11.0023 636.512 11.0023 Q640.765 11.0023 645.181 11.7719 Q649.596 12.5416 654.214 14.0809 Z" fill="#000000" fill-rule="evenodd" fill-opacity="1"></path><path clip-path="url(#clip7300)" d="M 0 0 M701.002 35.9153 Q703.797 30.8922 707.686 28.5022 Q711.575 26.1121 716.841 26.1121 Q723.93 26.1121 727.779 31.0947 Q731.627 36.0368 731.627 45.1919 L731.627 72.576 L724.133 72.576 L724.133 45.4349 Q724.133 38.913 721.824 35.7533 Q719.515 32.5936 714.775 32.5936 Q708.983 32.5936 705.62 36.4419 Q702.258 40.2903 702.258 46.9338 L702.258 72.576 L694.764 72.576 L694.764 45.4349 Q694.764 38.8725 692.455 35.7533 Q690.146 32.5936 685.325 32.5936 Q679.614 32.5936 676.251 36.4824 Q672.889 40.3308 672.889 46.9338 L672.889 72.576 L665.395 72.576 L665.395 27.2059 L672.889 27.2059 L672.889 34.2544 Q675.441 30.082 679.006 28.0971 Q682.571 26.1121 687.472 26.1121 Q692.414 26.1121 695.858 28.6237 Q699.342 31.1352 701.002 35.9153 Z" fill="#000000" fill-rule="evenodd" fill-opacity="1"></path><path clip-path="url(#clip7300)" d="M 0 0 M757.026 32.4315 Q751.031 32.4315 747.547 37.1306 Q744.063 41.7891 744.063 49.9314 Q744.063 58.0738 747.507 62.7728 Q750.991 67.4314 757.026 67.4314 Q762.981 67.4314 766.465 62.7323 Q769.949 58.0333 769.949 49.9314 Q769.949 41.8701 766.465 37.1711 Q762.981 32.4315 757.026 32.4315 M757.026 26.1121 Q766.749 26.1121 772.298 32.4315 Q777.848 38.7509 777.848 49.9314 Q777.848 61.0714 772.298 67.4314 Q766.749 73.7508 757.026 73.7508 Q747.264 73.7508 741.714 67.4314 Q736.205 61.0714 736.205 49.9314 Q736.205 38.7509 741.714 32.4315 Q747.264 26.1121 757.026 26.1121 Z" fill="#000000" fill-rule="evenodd" fill-opacity="1"></path><path clip-path="url(#clip7300)" d="M 0 0 M803.247 32.4315 Q797.252 32.4315 793.768 37.1306 Q790.284 41.7891 790.284 49.9314 Q790.284 58.0738 793.728 62.7728 Q797.211 67.4314 803.247 67.4314 Q809.202 67.4314 812.686 62.7323 Q816.17 58.0333 816.17 49.9314 Q816.17 41.8701 812.686 37.1711 Q809.202 32.4315 803.247 32.4315 M803.247 26.1121 Q812.969 26.1121 818.519 32.4315 Q824.069 38.7509 824.069 49.9314 Q824.069 61.0714 818.519 67.4314 Q812.969 73.7508 803.247 73.7508 Q793.485 73.7508 787.935 67.4314 Q782.426 61.0714 782.426 49.9314 Q782.426 38.7509 787.935 32.4315 Q793.485 26.1121 803.247 26.1121 Z" fill="#000000" fill-rule="evenodd" fill-opacity="1"></path><path clip-path="url(#clip7300)" d="M 0 0 M839.26 14.324 L839.26 27.2059 L854.613 27.2059 L854.613 32.9987 L839.26 32.9987 L839.26 57.6282 Q839.26 63.1779 840.759 64.7578 Q842.298 66.3376 846.956 66.3376 L854.613 66.3376 L854.613 72.576 L846.956 72.576 Q838.328 72.576 835.047 69.3758 Q831.766 66.1351 831.766 57.6282 L831.766 32.9987 L826.297 32.9987 L826.297 27.2059 L831.766 27.2059 L831.766 14.324 L839.26 14.324 Z" fill="#000000" fill-rule="evenodd" fill-opacity="1"></path><path clip-path="url(#clip7300)" d="M 0 0 M900.145 45.1919 L900.145 72.576 L892.691 72.576 L892.691 45.4349 Q892.691 38.994 890.18 35.7938 Q887.668 32.5936 882.645 32.5936 Q876.609 32.5936 873.125 36.4419 Q869.642 40.2903 869.642 46.9338 L869.642 72.576 L862.147 72.576 L862.147 9.54393 L869.642 9.54393 L869.642 34.2544 Q872.315 30.163 875.92 28.1376 Q879.566 26.1121 884.306 26.1121 Q892.124 26.1121 896.134 30.9732 Q900.145 35.7938 900.145 45.1919 Z" fill="#000000" fill-rule="evenodd" fill-opacity="1"></path><path clip-path="url(#clip7300)" d="M 0 0 M946.771 48.0275 L946.771 51.6733 L912.5 51.6733 Q912.986 59.3701 917.118 63.421 Q921.291 67.4314 928.704 67.4314 Q932.998 67.4314 937.008 66.3781 Q941.059 65.3249 945.029 63.2184 L945.029 70.267 Q941.018 71.9684 936.806 72.8596 Q932.593 73.7508 928.258 73.7508 Q917.402 73.7508 911.042 67.4314 Q904.722 61.1119 904.722 50.3365 Q904.722 39.1965 910.718 32.6746 Q916.754 26.1121 926.962 26.1121 Q936.117 26.1121 941.424 32.0264 Q946.771 37.9003 946.771 48.0275 M939.317 45.84 Q939.236 39.7232 935.874 36.0774 Q932.552 32.4315 927.043 32.4315 Q920.804 32.4315 917.037 35.9558 Q913.31 39.4801 912.743 45.8805 L939.317 45.84 Z" fill="#000000" fill-rule="evenodd" fill-opacity="1"></path><path clip-path="url(#clip7300)" d="M 0 0 M984.444 34.0924 L984.444 9.54393 L991.898 9.54393 L991.898 72.576 L984.444 72.576 L984.444 65.7705 Q982.095 69.8214 978.489 71.8063 Q974.925 73.7508 969.901 73.7508 Q961.678 73.7508 956.493 67.1883 Q951.348 60.6258 951.348 49.9314 Q951.348 39.2371 956.493 32.6746 Q961.678 26.1121 969.901 26.1121 Q974.925 26.1121 978.489 28.0971 Q982.095 30.0415 984.444 34.0924 M959.045 49.9314 Q959.045 58.1548 962.407 62.8538 Q965.81 67.5124 971.724 67.5124 Q977.639 67.5124 981.041 62.8538 Q984.444 58.1548 984.444 49.9314 Q984.444 41.7081 981.041 37.0496 Q977.639 32.3505 971.724 32.3505 Q965.81 32.3505 962.407 37.0496 Q959.045 41.7081 959.045 49.9314 Z" fill="#000000" fill-rule="evenodd" fill-opacity="1"></path><path clip-path="url(#clip7300)" d="M 0 0 M998.541 9.62495 L1005.02 9.62495 Q1011.1 19.1851 1014.1 28.3401 Q1017.13 37.4952 1017.13 46.5287 Q1017.13 55.6027 1014.1 64.7983 Q1011.1 73.9938 1005.02 83.5134 L998.541 83.5134 Q1003.93 74.2369 1006.56 65.0818 Q1009.24 55.8863 1009.24 46.5287 Q1009.24 37.1711 1006.56 28.0566 Q1003.93 18.942 998.541 9.62495 Z" fill="#000000" fill-rule="evenodd" fill-opacity="1"></path><path clip-path="url(#clip7300)" d="M 0 0 M1051.65 12.096 L1089.89 12.096 L1089.89 18.9825 L1059.83 18.9825 L1059.83 36.8875 L1088.63 36.8875 L1088.63 43.7741 L1059.83 43.7741 L1059.83 65.6895 L1090.62 65.6895 L1090.62 72.576 L1051.65 72.576 L1051.65 12.096 Z" fill="#000000" fill-rule="evenodd" fill-opacity="1"></path><path clip-path="url(#clip7300)" d="M 0 0 M1136.15 27.2059 L1119.74 49.2833 L1137 72.576 L1128.21 72.576 L1115 54.752 L1101.8 72.576 L1093.01 72.576 L1110.63 48.8377 L1094.51 27.2059 L1103.3 27.2059 L1115.33 43.369 L1127.36 27.2059 L1136.15 27.2059 Z" fill="#000000" fill-rule="evenodd" fill-opacity="1"></path><path clip-path="url(#clip7300)" d="M 0 0 M1152.03 65.7705 L1152.03 89.8329 L1144.54 89.8329 L1144.54 27.2059 L1152.03 27.2059 L1152.03 34.0924 Q1154.38 30.0415 1157.94 28.0971 Q1161.55 26.1121 1166.53 26.1121 Q1174.8 26.1121 1179.94 32.6746 Q1185.13 39.2371 1185.13 49.9314 Q1185.13 60.6258 1179.94 67.1883 Q1174.8 73.7508 1166.53 73.7508 Q1161.55 73.7508 1157.94 71.8063 Q1154.38 69.8214 1152.03 65.7705 M1177.39 49.9314 Q1177.39 41.7081 1173.99 37.0496 Q1170.62 32.3505 1164.71 32.3505 Q1158.8 32.3505 1155.39 37.0496 Q1152.03 41.7081 1152.03 49.9314 Q1152.03 58.1548 1155.39 62.8538 Q1158.8 67.5124 1164.71 67.5124 Q1170.62 67.5124 1173.99 62.8538 Q1177.39 58.1548 1177.39 49.9314 Z" fill="#000000" fill-rule="evenodd" fill-opacity="1"></path><path clip-path="url(#clip7300)" d="M 0 0 M1210.53 32.4315 Q1204.53 32.4315 1201.05 37.1306 Q1197.56 41.7891 1197.56 49.9314 Q1197.56 58.0738 1201.01 62.7728 Q1204.49 67.4314 1210.53 67.4314 Q1216.48 67.4314 1219.96 62.7323 Q1223.45 58.0333 1223.45 49.9314 Q1223.45 41.8701 1219.96 37.1711 Q1216.48 32.4315 1210.53 32.4315 M1210.53 26.1121 Q1220.25 26.1121 1225.8 32.4315 Q1231.35 38.7509 1231.35 49.9314 Q1231.35 61.0714 1225.8 67.4314 Q1220.25 73.7508 1210.53 73.7508 Q1200.76 73.7508 1195.21 67.4314 Q1189.7 61.0714 1189.7 49.9314 Q1189.7 38.7509 1195.21 32.4315 Q1200.76 26.1121 1210.53 26.1121 Z" fill="#000000" fill-rule="evenodd" fill-opacity="1"></path><path clip-path="url(#clip7300)" d="M 0 0 M1265.46 34.1734 Q1264.2 33.4443 1262.7 33.1202 Q1261.24 32.7556 1259.46 32.7556 Q1253.14 32.7556 1249.74 36.8875 Q1246.38 40.9789 1246.38 48.6757 L1246.38 72.576 L1238.88 72.576 L1238.88 27.2059 L1246.38 27.2059 L1246.38 34.2544 Q1248.73 30.1225 1252.49 28.1376 Q1256.26 26.1121 1261.65 26.1121 Q1262.42 26.1121 1263.35 26.2337 Q1264.28 26.3147 1265.41 26.5172 L1265.46 34.1734 Z" fill="#000000" fill-rule="evenodd" fill-opacity="1"></path><path clip-path="url(#clip7300)" d="M 0 0 M1280.65 14.324 L1280.65 27.2059 L1296 27.2059 L1296 32.9987 L1280.65 32.9987 L1280.65 57.6282 Q1280.65 63.1779 1282.15 64.7578 Q1283.68 66.3376 1288.34 66.3376 L1296 66.3376 L1296 72.576 L1288.34 72.576 Q1279.71 72.576 1276.43 69.3758 Q1273.15 66.1351 1273.15 57.6282 L1273.15 32.9987 L1267.68 32.9987 L1267.68 27.2059 L1273.15 27.2059 L1273.15 14.324 L1280.65 14.324 Z" fill="#000000" fill-rule="evenodd" fill-opacity="1"></path><path clip-path="url(#clip7300)" d="M 0 0 M1332.74 28.5427 L1332.74 35.5912 Q1329.58 33.9709 1326.18 33.1607 Q1322.78 32.3505 1319.13 32.3505 Q1313.58 32.3505 1310.78 34.0519 Q1308.03 35.7533 1308.03 39.156 Q1308.03 41.7486 1310.02 43.2475 Q1312 44.7058 1318 46.0426 L1320.55 46.6097 Q1328.49 48.3111 1331.81 51.4303 Q1335.17 54.509 1335.17 60.0587 Q1335.17 66.3781 1330.15 70.0644 Q1325.17 73.7508 1316.42 73.7508 Q1312.77 73.7508 1308.8 73.0216 Q1304.87 72.3329 1300.5 70.9151 L1300.5 63.2184 Q1304.63 65.3654 1308.64 66.4591 Q1312.65 67.5124 1316.58 67.5124 Q1321.84 67.5124 1324.68 65.73 Q1327.52 63.9071 1327.52 60.6258 Q1327.52 57.5877 1325.45 55.9673 Q1323.42 54.3469 1316.5 52.8481 L1313.9 52.2405 Q1306.98 50.7821 1303.9 47.7845 Q1300.82 44.7463 1300.82 39.4801 Q1300.82 33.0797 1305.36 29.5959 Q1309.89 26.1121 1318.24 26.1121 Q1322.37 26.1121 1326.02 26.7198 Q1329.66 27.3274 1332.74 28.5427 Z" fill="#000000" fill-rule="evenodd" fill-opacity="1"></path><path clip-path="url(#clip7300)" d="M 0 0 M1387.27 9.62495 Q1381.84 18.942 1379.2 28.0566 Q1376.57 37.1711 1376.57 46.5287 Q1376.57 55.8863 1379.2 65.0818 Q1381.88 74.2369 1387.27 83.5134 L1380.78 83.5134 Q1374.71 73.9938 1371.67 64.7983 Q1368.67 55.6027 1368.67 46.5287 Q1368.67 37.4952 1371.67 28.3401 Q1374.67 19.1851 1380.78 9.62495 L1387.27 9.62495 Z" fill="#000000" fill-rule="evenodd" fill-opacity="1"></path><path clip-path="url(#clip7300)" d="M 0 0 M1395.08 27.2059 L1402.54 27.2059 L1402.54 72.576 L1395.08 72.576 L1395.08 27.2059 M1395.08 9.54393 L1402.54 9.54393 L1402.54 18.9825 L1395.08 18.9825 L1395.08 9.54393 Z" fill="#000000" fill-rule="evenodd" fill-opacity="1"></path><path clip-path="url(#clip7300)" d="M 0 0 M1448.07 45.1919 L1448.07 72.576 L1440.62 72.576 L1440.62 45.4349 Q1440.62 38.994 1438.1 35.7938 Q1435.59 32.5936 1430.57 32.5936 Q1424.53 32.5936 1421.05 36.4419 Q1417.57 40.2903 1417.57 46.9338 L1417.57 72.576 L1410.07 72.576 L1410.07 27.2059 L1417.57 27.2059 L1417.57 34.2544 Q1420.24 30.163 1423.85 28.1376 Q1427.49 26.1121 1432.23 26.1121 Q1440.05 26.1121 1444.06 30.9732 Q1448.07 35.7938 1448.07 45.1919 Z" fill="#000000" fill-rule="evenodd" fill-opacity="1"></path><path clip-path="url(#clip7300)" d="M 0 0 M1517.58 35.9153 Q1520.38 30.8922 1524.27 28.5022 Q1528.16 26.1121 1533.42 26.1121 Q1540.51 26.1121 1544.36 31.0947 Q1548.21 36.0368 1548.21 45.1919 L1548.21 72.576 L1540.71 72.576 L1540.71 45.4349 Q1540.71 38.913 1538.41 35.7533 Q1536.1 32.5936 1531.36 32.5936 Q1525.56 32.5936 1522.2 36.4419 Q1518.84 40.2903 1518.84 46.9338 L1518.84 72.576 L1511.35 72.576 L1511.35 45.4349 Q1511.35 38.8725 1509.04 35.7533 Q1506.73 32.5936 1501.91 32.5936 Q1496.19 32.5936 1492.83 36.4824 Q1489.47 40.3308 1489.47 46.9338 L1489.47 72.576 L1481.98 72.576 L1481.98 27.2059 L1489.47 27.2059 L1489.47 34.2544 Q1492.02 30.082 1495.59 28.0971 Q1499.15 26.1121 1504.05 26.1121 Q1509 26.1121 1512.44 28.6237 Q1515.92 31.1352 1517.58 35.9153 Z" fill="#000000" fill-rule="evenodd" fill-opacity="1"></path><path clip-path="url(#clip7300)" d="M 0 0 M1556.03 27.2059 L1563.48 27.2059 L1563.48 72.576 L1556.03 72.576 L1556.03 27.2059 M1556.03 9.54393 L1563.48 9.54393 L1563.48 18.9825 L1556.03 18.9825 L1556.03 9.54393 Z" fill="#000000" fill-rule="evenodd" fill-opacity="1"></path><path clip-path="url(#clip7300)" d="M 0 0 M1571.3 9.54393 L1578.75 9.54393 L1578.75 72.576 L1571.3 72.576 L1571.3 9.54393 Z" fill="#000000" fill-rule="evenodd" fill-opacity="1"></path><path clip-path="url(#clip7300)" d="M 0 0 M1586.57 9.54393 L1594.02 9.54393 L1594.02 72.576 L1586.57 72.576 L1586.57 9.54393 Z" fill="#000000" fill-rule="evenodd" fill-opacity="1"></path><path clip-path="url(#clip7300)" d="M 0 0 M1601.84 27.2059 L1609.3 27.2059 L1609.3 72.576 L1601.84 72.576 L1601.84 27.2059 M1601.84 9.54393 L1609.3 9.54393 L1609.3 18.9825 L1601.84 18.9825 L1601.84 9.54393 Z" fill="#000000" fill-rule="evenodd" fill-opacity="1"></path><path clip-path="url(#clip7300)" d="M 0 0 M1634.7 32.4315 Q1628.7 32.4315 1625.22 37.1306 Q1621.73 41.7891 1621.73 49.9314 Q1621.73 58.0738 1625.18 62.7728 Q1628.66 67.4314 1634.7 67.4314 Q1640.65 67.4314 1644.13 62.7323 Q1647.62 58.0333 1647.62 49.9314 Q1647.62 41.8701 1644.13 37.1711 Q1640.65 32.4315 1634.7 32.4315 M1634.7 26.1121 Q1644.42 26.1121 1649.97 32.4315 Q1655.52 38.7509 1655.52 49.9314 Q1655.52 61.0714 1649.97 67.4314 Q1644.42 73.7508 1634.7 73.7508 Q1624.93 73.7508 1619.38 67.4314 Q1613.87 61.0714 1613.87 49.9314 Q1613.87 38.7509 1619.38 32.4315 Q1624.93 26.1121 1634.7 26.1121 Z" fill="#000000" fill-rule="evenodd" fill-opacity="1"></path><path clip-path="url(#clip7300)" d="M 0 0 M1701.05 45.1919 L1701.05 72.576 L1693.6 72.576 L1693.6 45.4349 Q1693.6 38.994 1691.08 35.7938 Q1688.57 32.5936 1683.55 32.5936 Q1677.51 32.5936 1674.03 36.4419 Q1670.55 40.2903 1670.55 46.9338 L1670.55 72.576 L1663.05 72.576 L1663.05 27.2059 L1670.55 27.2059 L1670.55 34.2544 Q1673.22 30.163 1676.82 28.1376 Q1680.47 26.1121 1685.21 26.1121 Q1693.03 26.1121 1697.04 30.9732 Q1701.05 35.7938 1701.05 45.1919 Z" fill="#000000" fill-rule="evenodd" fill-opacity="1"></path><path clip-path="url(#clip7300)" d="M 0 0 M1734.96 9.54393 L1742.45 9.54393 L1742.45 46.7717 L1764.69 27.2059 L1774.21 27.2059 L1750.15 48.4326 L1775.22 72.576 L1765.5 72.576 L1742.45 50.4176 L1742.45 72.576 L1734.96 72.576 L1734.96 9.54393 Z" fill="#000000" fill-rule="evenodd" fill-opacity="1"></path><path clip-path="url(#clip7300)" d="M 0 0 M1777.98 12.096 L1786.24 12.096 L1798.96 63.2184 L1811.64 12.096 L1820.83 12.096 L1833.55 63.2184 L1846.23 12.096 L1854.54 12.096 L1839.35 72.576 L1829.06 72.576 L1816.3 20.0763 L1803.42 72.576 L1793.13 72.576 L1777.98 12.096 Z" fill="#000000" fill-rule="evenodd" fill-opacity="1"></path><path clip-path="url(#clip7300)" d="M 0 0 M1900.07 45.1919 L1900.07 72.576 L1892.62 72.576 L1892.62 45.4349 Q1892.62 38.994 1890.1 35.7938 Q1887.59 32.5936 1882.57 32.5936 Q1876.53 32.5936 1873.05 36.4419 Q1869.57 40.2903 1869.57 46.9338 L1869.57 72.576 L1862.07 72.576 L1862.07 9.54393 L1869.57 9.54393 L1869.57 34.2544 Q1872.24 30.163 1875.85 28.1376 Q1879.49 26.1121 1884.23 26.1121 Q1892.05 26.1121 1896.06 30.9732 Q1900.07 35.7938 1900.07 45.1919 Z" fill="#000000" fill-rule="evenodd" fill-opacity="1"></path><path clip-path="url(#clip7300)" d="M 0 0 M1906.71 9.62495 L1913.19 9.62495 Q1919.27 19.1851 1922.27 28.3401 Q1925.31 37.4952 1925.31 46.5287 Q1925.31 55.6027 1922.27 64.7983 Q1919.27 73.9938 1913.19 83.5134 L1906.71 83.5134 Q1912.1 74.2369 1914.73 65.0818 Q1917.41 55.8863 1917.41 46.5287 Q1917.41 37.1711 1914.73 28.0566 Q1912.1 18.942 1906.71 9.62495 Z" fill="#000000" fill-rule="evenodd" fill-opacity="1"></path><polyline clip-path="url(#clip7302)" style="stroke:#009af9; stroke-width:4; stroke-opacity:1; fill:none" points="
  225.726,487.293 240.436,603.529 254.197,532.464 268.907,850.477 283.142,1327.72 297.852,1353.4 312.088,1214.06 326.798,519.16 341.507,579.974 355.743,521.847 
  370.453,562.085 384.688,541.519 399.398,494.248 414.108,706.004 427.394,653.86 442.104,786.631 456.339,845.346 471.049,1041.56 485.285,777.159 499.994,598.709 
  514.704,679.084 528.94,583.718 543.65,727.416 557.885,671.624 572.595,457.129 587.305,537.764 600.591,522.39 615.301,473.338 629.536,536.324 644.246,473.948 
  658.482,627.673 673.191,659.636 687.901,633.063 702.137,428.158 716.847,383.172 731.082,162.047 745.792,306.914 760.502,366.828 773.788,322.119 788.498,443.403 
  802.733,767.587 817.443,911.894 831.679,821.006 846.388,1247.89 861.098,1306.27 875.334,1057.47 890.044,496.734 904.279,473.994 918.989,626.076 933.699,436.67 
  947.46,462.499 962.169,495.826 976.405,528.158 991.115,584.294 1005.35,798.123 1020.06,946.859 1034.77,1087.84 1049.01,780.594 1063.72,803.122 1077.95,939.752 
  1092.66,857.304 1107.37,930.565 1120.66,653.927 1135.37,997.193 1149.6,1100.48 1164.31,1185.95 1178.55,1283.77 1193.26,1310.98 1207.97,1098.33 1222.2,688.231 
  1236.91,592.252 1251.15,909.904 1265.86,920.456 1280.57,1009.65 1293.85,619.943 1308.56,615.069 1322.8,1245.74 1337.51,1306 1351.74,1349.48 1366.45,1315.61 
  1381.16,924.496 1395.4,537.646 1410.11,552.872 1424.34,513.789 1439.05,475.628 1453.76,483.304 1467.05,565.187 1481.76,1054.97 1496,1050.67 1510.71,1190.37 
  1524.94,1198.34 1539.65,1128.9 1554.36,1045.81 1568.6,1169.57 1583.31,1129.77 1597.54,1064.32 1612.25,1128.04 1626.96,1125.38 1640.72,1111.23 1655.43,1103.64 
  1669.67,1008.9 1684.38,1231.97 1698.61,1256.75 1713.32,1212.52 1728.03,1185.99 1742.27,1166.21 1756.98,1115.58 1771.21,1092.96 1785.92,1117.88 1800.63,1125.61 
  1813.92,1124.26 1828.63,1117.86 1842.86,1266.39 1857.57,1318.58 1871.81,1340.3 1886.52,1176.66 1901.23,1146.77 1915.46,923.037 1930.17,1177.51 1944.41,1039.87 
  1959.12,1075.6 1973.83,1100.96 1987.12,1037.08 2001.83,1030.91 2016.06,1046.6 2030.77,1153 2045.01,1380.98 2059.72,1271.82 2074.43,1245.81 2088.66,1154.88 
  2103.37,1208.11 2117.61,1155.75 2132.32,1116.53 2147.03,1242.79 2160.31,1187.01 2175.02,1344.56 2189.26,1398.42 2203.97,1387.6 2218.2,1447.87 2232.91,1393.01 
  2247.62,1428.99 2261.86,1332.65 2276.57,1300.54 2290.8,1259.52 
  "></polyline>
<polyline clip-path="url(#clip7302)" style="stroke:#e26f46; stroke-width:4; stroke-opacity:1; fill:none" points="
  225.726,507.469 240.436,552.867 254.197,657.92 268.907,766.183 283.142,857.03 297.852,861.013 312.088,872.598 326.798,862.388 341.507,866.09 355.743,827.471 
  370.453,723.287 384.688,642.362 399.398,572.337 414.108,605.771 427.394,638.942 442.104,703.907 456.339,730.791 471.049,737.94 485.285,761.044 499.994,745.759 
  514.704,754.953 528.94,740.577 543.65,692.05 557.885,629.075 572.595,597.229 587.305,581.558 600.591,563.713 615.301,549.992 629.536,537.524 644.246,536.025 
  658.482,558.017 673.191,544.316 687.901,526.914 702.137,488.003 716.847,459.326 731.082,445.936 745.792,407.742 760.502,380.713 773.788,397.528 788.498,457.995 
  802.733,512.725 817.443,648.455 831.679,773.375 846.388,859.705 861.098,881.532 875.334,885.356 890.044,867.667 904.279,808.264 918.989,763.451 933.699,669.443 
  947.46,572.178 962.169,513.031 976.405,550.705 991.115,609.813 1005.35,667.533 1020.06,710.524 1034.77,753.102 1049.01,808.593 1063.72,849.736 1077.95,893.02 
  1092.66,874.995 1107.37,881.287 1120.66,882.867 1135.37,933.537 1149.6,993.619 1164.31,1040.02 1178.55,1070.15 1193.26,1039.86 1207.97,1032.15 1222.2,1021.24 
  1236.91,998.735 1251.15,976.697 1265.86,893.718 1280.57,806.729 1293.85,825.155 1308.56,902.376 1322.8,997.03 1337.51,1047.74 1351.74,1048.25 1366.45,989.248 
  1381.16,980.865 1395.4,968.205 1410.11,871.941 1424.34,769.103 1439.05,671.066 1453.76,638.487 1467.05,654.258 1481.76,735.849 1496,816.532 1510.71,893.42 
  1524.94,964.694 1539.65,1050.48 1554.36,1121.05 1568.6,1122.22 1583.31,1131.89 1597.54,1123.77 1612.25,1112.88 1626.96,1109.72 1640.72,1105.11 1655.43,1112.91 
  1669.67,1128.78 1684.38,1147.3 1698.61,1154.55 1713.32,1159.65 1728.03,1160.19 1742.27,1158.86 1756.98,1172.48 1771.21,1159.19 1785.92,1142.63 1800.63,1130.79 
  1813.92,1140.84 1828.63,1159.89 1842.86,1187.98 1857.57,1198.44 1871.81,1202.05 1886.52,1176.73 1901.23,1183.39 1915.46,1173.64 1930.17,1149.79 1944.41,1122.59 
  1959.12,1084.68 1973.83,1066.47 1987.12,1053.94 2001.83,1082.69 2016.06,1108.12 2030.77,1137.12 2045.01,1158.39 2059.72,1165.13 2074.43,1186.51 2088.66,1202.12 
  2103.37,1210.86 2117.61,1222.09 2132.32,1197.84 2147.03,1206.93 2160.31,1226.01 2175.02,1255.1 2189.26,1285.07 2203.97,1314.72 2218.2,1353.78 2232.91,1365.01 
  2247.62,1379.21 2261.86,1368.57 2276.57,1351.21 2290.8,1335.2 
  "></polyline>
</svg>