<svg xmlns="http://www.w3.org/2000/svg" xmlns:xlink="http://www.w3.org/1999/xlink" width="600" height="400" viewBox="0 0 2400 1600" style="width: 100%; height: 100%;">
<defs>
  <clipPath id="clip6900">
    <rect x="0" y="0" width="2400" height="1600"></rect>
  </clipPath>
</defs>
<path clip-path="url(#clip6900)" d="
M0 1600 L2400 1600 L2400 0 L0 0  Z
  " fill="#ffffff" fill-rule="evenodd" fill-opacity="1"></path>
<defs>
  <clipPath id="clip6901">
    <rect x="480" y="0" width="1681" height="1600"></rect>
  </clipPath>
</defs>
<path clip-path="url(#clip6900)" d="
M166.205 1486.45 L2352.76 1486.45 L2352.76 123.472 L166.205 123.472  Z
  " fill="#ffffff" fill-rule="evenodd" fill-opacity="1"></path>
<defs>
  <clipPath id="clip6902">
    <rect x="166" y="123" width="2188" height="1364"></rect>
  </clipPath>
</defs>
<polyline clip-path="url(#clip6902)" style="stroke:#000000; stroke-width:2; stroke-opacity:0.1; fill:none" points="
  228.088,1486.45 228.088,123.472 
  "></polyline>
<polyline clip-path="url(#clip6902)" style="stroke:#000000; stroke-width:2; stroke-opacity:0.1; fill:none" points="
  747.576,1486.45 747.576,123.472 
  "></polyline>
<polyline clip-path="url(#clip6902)" style="stroke:#000000; stroke-width:2; stroke-opacity:0.1; fill:none" points="
  1267.06,1486.45 1267.06,123.472 
  "></polyline>
<polyline clip-path="url(#clip6902)" style="stroke:#000000; stroke-width:2; stroke-opacity:0.1; fill:none" points="
  1786.55,1486.45 1786.55,123.472 
  "></polyline>
<polyline clip-path="url(#clip6902)" style="stroke:#000000; stroke-width:2; stroke-opacity:0.1; fill:none" points="
  2305.57,1486.45 2305.57,123.472 
  "></polyline>
<polyline clip-path="url(#clip6902)" style="stroke:#000000; stroke-width:2; stroke-opacity:0.1; fill:none" points="
  166.205,1171.56 2352.76,1171.56 
  "></polyline>
<polyline clip-path="url(#clip6902)" style="stroke:#000000; stroke-width:2; stroke-opacity:0.1; fill:none" points="
  166.205,1171.56 2352.76,1171.56 
  "></polyline>
<polyline clip-path="url(#clip6902)" style="stroke:#000000; stroke-width:2; stroke-opacity:0.1; fill:none" points="
  166.205,809.697 2352.76,809.697 
  "></polyline>
<polyline clip-path="url(#clip6902)" style="stroke:#000000; stroke-width:2; stroke-opacity:0.1; fill:none" points="
  166.205,447.832 2352.76,447.832 
  "></polyline>
<polyline clip-path="url(#clip6900)" style="stroke:#000000; stroke-width:4; stroke-opacity:1; fill:none" points="
  166.205,1486.45 2352.76,1486.45 
  "></polyline>
<polyline clip-path="url(#clip6900)" style="stroke:#000000; stroke-width:4; stroke-opacity:1; fill:none" points="
  166.205,1486.45 166.205,123.472 
  "></polyline>
<polyline clip-path="url(#clip6900)" style="stroke:#000000; stroke-width:4; stroke-opacity:1; fill:none" points="
  228.088,1486.45 228.088,1470.09 
  "></polyline>
<polyline clip-path="url(#clip6900)" style="stroke:#000000; stroke-width:4; stroke-opacity:1; fill:none" points="
  747.576,1486.45 747.576,1470.09 
  "></polyline>
<polyline clip-path="url(#clip6900)" style="stroke:#000000; stroke-width:4; stroke-opacity:1; fill:none" points="
  1267.06,1486.45 1267.06,1470.09 
  "></polyline>
<polyline clip-path="url(#clip6900)" style="stroke:#000000; stroke-width:4; stroke-opacity:1; fill:none" points="
  1786.55,1486.45 1786.55,1470.09 
  "></polyline>
<polyline clip-path="url(#clip6900)" style="stroke:#000000; stroke-width:4; stroke-opacity:1; fill:none" points="
  2305.57,1486.45 2305.57,1470.09 
  "></polyline>
<polyline clip-path="url(#clip6900)" style="stroke:#000000; stroke-width:4; stroke-opacity:1; fill:none" points="
  166.205,1171.56 192.443,1171.56 
  "></polyline>
<polyline clip-path="url(#clip6900)" style="stroke:#000000; stroke-width:4; stroke-opacity:1; fill:none" points="
  166.205,1171.56 192.443,1171.56 
  "></polyline>
<polyline clip-path="url(#clip6900)" style="stroke:#000000; stroke-width:4; stroke-opacity:1; fill:none" points="
  166.205,809.697 192.443,809.697 
  "></polyline>
<polyline clip-path="url(#clip6900)" style="stroke:#000000; stroke-width:4; stroke-opacity:1; fill:none" points="
  166.205,447.832 192.443,447.832 
  "></polyline>
<path clip-path="url(#clip6900)" d="M 0 0 M114.674 1535.98 L130.994 1535.98 L130.994 1539.92 L109.049 1539.92 L109.049 1535.98 Q111.711 1533.23 116.295 1528.6 Q120.901 1523.95 122.082 1522.61 Q124.327 1520.08 125.207 1518.35 Q126.11 1516.59 126.11 1514.9 Q126.11 1512.14 124.165 1510.41 Q122.244 1508.67 119.142 1508.67 Q116.943 1508.67 114.489 1509.43 Q112.059 1510.2 109.281 1511.75 L109.281 1507.03 Q112.105 1505.89 114.559 1505.31 Q117.012 1504.73 119.049 1504.73 Q124.42 1504.73 127.614 1507.42 Q130.809 1510.11 130.809 1514.6 Q130.809 1516.73 129.998 1518.65 Q129.211 1520.54 127.105 1523.14 Q126.526 1523.81 123.424 1527.03 Q120.323 1530.22 114.674 1535.98 Z" fill="#000000" fill-rule="evenodd" fill-opacity="1"></path><path clip-path="url(#clip6900)" d="M 0 0 M146.063 1508.44 Q142.452 1508.44 140.623 1512 Q138.818 1515.55 138.818 1522.67 Q138.818 1529.78 140.623 1533.35 Q142.452 1536.89 146.063 1536.89 Q149.697 1536.89 151.503 1533.35 Q153.332 1529.78 153.332 1522.67 Q153.332 1515.55 151.503 1512 Q149.697 1508.44 146.063 1508.44 M146.063 1504.73 Q151.873 1504.73 154.929 1509.34 Q158.008 1513.92 158.008 1522.67 Q158.008 1531.4 154.929 1536.01 Q151.873 1540.59 146.063 1540.59 Q140.253 1540.59 137.174 1536.01 Q134.119 1531.4 134.119 1522.67 Q134.119 1513.92 137.174 1509.34 Q140.253 1504.73 146.063 1504.73 Z" fill="#000000" fill-rule="evenodd" fill-opacity="1"></path><path clip-path="url(#clip6900)" d="M 0 0 M173.077 1508.44 Q169.466 1508.44 167.637 1512 Q165.832 1515.55 165.832 1522.67 Q165.832 1529.78 167.637 1533.35 Q169.466 1536.89 173.077 1536.89 Q176.711 1536.89 178.517 1533.35 Q180.345 1529.78 180.345 1522.67 Q180.345 1515.55 178.517 1512 Q176.711 1508.44 173.077 1508.44 M173.077 1504.73 Q178.887 1504.73 181.943 1509.34 Q185.021 1513.92 185.021 1522.67 Q185.021 1531.4 181.943 1536.01 Q178.887 1540.59 173.077 1540.59 Q167.267 1540.59 164.188 1536.01 Q161.133 1531.4 161.133 1522.67 Q161.133 1513.92 164.188 1509.34 Q167.267 1504.73 173.077 1504.73 Z" fill="#000000" fill-rule="evenodd" fill-opacity="1"></path><path clip-path="url(#clip6900)" d="M 0 0 M200.091 1523.51 Q196.757 1523.51 194.836 1525.29 Q192.938 1527.07 192.938 1530.2 Q192.938 1533.32 194.836 1535.11 Q196.757 1536.89 200.091 1536.89 Q203.424 1536.89 205.345 1535.11 Q207.267 1533.3 207.267 1530.2 Q207.267 1527.07 205.345 1525.29 Q203.447 1523.51 200.091 1523.51 M195.415 1521.52 Q192.406 1520.78 190.716 1518.72 Q189.049 1516.66 189.049 1513.69 Q189.049 1509.55 191.989 1507.14 Q194.952 1504.73 200.091 1504.73 Q205.253 1504.73 208.192 1507.14 Q211.132 1509.55 211.132 1513.69 Q211.132 1516.66 209.442 1518.72 Q207.776 1520.78 204.79 1521.52 Q208.169 1522.3 210.044 1524.6 Q211.942 1526.89 211.942 1530.2 Q211.942 1535.22 208.864 1537.91 Q205.808 1540.59 200.091 1540.59 Q194.373 1540.59 191.294 1537.91 Q188.239 1535.22 188.239 1530.2 Q188.239 1526.89 190.137 1524.6 Q192.035 1522.3 195.415 1521.52 M193.702 1514.13 Q193.702 1516.82 195.368 1518.32 Q197.058 1519.83 200.091 1519.83 Q203.1 1519.83 204.79 1518.32 Q206.503 1516.82 206.503 1514.13 Q206.503 1511.45 204.79 1509.94 Q203.1 1508.44 200.091 1508.44 Q197.058 1508.44 195.368 1509.94 Q193.702 1511.45 193.702 1514.13 Z" fill="#000000" fill-rule="evenodd" fill-opacity="1"></path><path clip-path="url(#clip6900)" d="M 0 0 M214.257 1525.04 L226.734 1525.04 L226.734 1528.83 L214.257 1528.83 L214.257 1525.04 Z" fill="#000000" fill-rule="evenodd" fill-opacity="1"></path><path clip-path="url(#clip6900)" d="M 0 0 M241.803 1508.44 Q238.192 1508.44 236.364 1512 Q234.558 1515.55 234.558 1522.67 Q234.558 1529.78 236.364 1533.35 Q238.192 1536.89 241.803 1536.89 Q245.438 1536.89 247.243 1533.35 Q249.072 1529.78 249.072 1522.67 Q249.072 1515.55 247.243 1512 Q245.438 1508.44 241.803 1508.44 M241.803 1504.73 Q247.614 1504.73 250.669 1509.34 Q253.748 1513.92 253.748 1522.67 Q253.748 1531.4 250.669 1536.01 Q247.614 1540.59 241.803 1540.59 Q235.993 1540.59 232.915 1536.01 Q229.859 1531.4 229.859 1522.67 Q229.859 1513.92 232.915 1509.34 Q235.993 1504.73 241.803 1504.73 Z" fill="#000000" fill-rule="evenodd" fill-opacity="1"></path><path clip-path="url(#clip6900)" d="M 0 0 M259.627 1535.98 L267.266 1535.98 L267.266 1509.62 L258.956 1511.29 L258.956 1507.03 L267.22 1505.36 L271.896 1505.36 L271.896 1535.98 L279.535 1535.98 L279.535 1539.92 L259.627 1539.92 L259.627 1535.98 Z" fill="#000000" fill-rule="evenodd" fill-opacity="1"></path><path clip-path="url(#clip6900)" d="M 0 0 M281.849 1525.04 L294.326 1525.04 L294.326 1528.83 L281.849 1528.83 L281.849 1525.04 Z" fill="#000000" fill-rule="evenodd" fill-opacity="1"></path><path clip-path="url(#clip6900)" d="M 0 0 M309.396 1508.44 Q305.785 1508.44 303.956 1512 Q302.15 1515.55 302.15 1522.67 Q302.15 1529.78 303.956 1533.35 Q305.785 1536.89 309.396 1536.89 Q313.03 1536.89 314.835 1533.35 Q316.664 1529.78 316.664 1522.67 Q316.664 1515.55 314.835 1512 Q313.03 1508.44 309.396 1508.44 M309.396 1504.73 Q315.206 1504.73 318.261 1509.34 Q321.34 1513.92 321.34 1522.67 Q321.34 1531.4 318.261 1536.01 Q315.206 1540.59 309.396 1540.59 Q303.585 1540.59 300.507 1536.01 Q297.451 1531.4 297.451 1522.67 Q297.451 1513.92 300.507 1509.34 Q303.585 1504.73 309.396 1504.73 Z" fill="#000000" fill-rule="evenodd" fill-opacity="1"></path><path clip-path="url(#clip6900)" d="M 0 0 M327.22 1535.98 L334.858 1535.98 L334.858 1509.62 L326.548 1511.29 L326.548 1507.03 L334.812 1505.36 L339.488 1505.36 L339.488 1535.98 L347.127 1535.98 L347.127 1539.92 L327.22 1539.92 L327.22 1535.98 Z" fill="#000000" fill-rule="evenodd" fill-opacity="1"></path><path clip-path="url(#clip6900)" d="M 0 0 M635.343 1535.98 L651.662 1535.98 L651.662 1539.92 L629.718 1539.92 L629.718 1535.98 Q632.38 1533.23 636.963 1528.6 Q641.57 1523.95 642.75 1522.61 Q644.996 1520.08 645.875 1518.35 Q646.778 1516.59 646.778 1514.9 Q646.778 1512.14 644.834 1510.41 Q642.912 1508.67 639.81 1508.67 Q637.611 1508.67 635.158 1509.43 Q632.727 1510.2 629.949 1511.75 L629.949 1507.03 Q632.773 1505.89 635.227 1505.31 Q637.681 1504.73 639.718 1504.73 Q645.088 1504.73 648.283 1507.42 Q651.477 1510.11 651.477 1514.6 Q651.477 1516.73 650.667 1518.65 Q649.88 1520.54 647.773 1523.14 Q647.195 1523.81 644.093 1527.03 Q640.991 1530.22 635.343 1535.98 Z" fill="#000000" fill-rule="evenodd" fill-opacity="1"></path><path clip-path="url(#clip6900)" d="M 0 0 M666.732 1508.44 Q663.121 1508.44 661.292 1512 Q659.486 1515.55 659.486 1522.67 Q659.486 1529.78 661.292 1533.35 Q663.121 1536.89 666.732 1536.89 Q670.366 1536.89 672.171 1533.35 Q674 1529.78 674 1522.67 Q674 1515.55 672.171 1512 Q670.366 1508.44 666.732 1508.44 M666.732 1504.73 Q672.542 1504.73 675.597 1509.34 Q678.676 1513.92 678.676 1522.67 Q678.676 1531.4 675.597 1536.01 Q672.542 1540.59 666.732 1540.59 Q660.921 1540.59 657.843 1536.01 Q654.787 1531.4 654.787 1522.67 Q654.787 1513.92 657.843 1509.34 Q660.921 1504.73 666.732 1504.73 Z" fill="#000000" fill-rule="evenodd" fill-opacity="1"></path><path clip-path="url(#clip6900)" d="M 0 0 M684.556 1535.98 L692.194 1535.98 L692.194 1509.62 L683.884 1511.29 L683.884 1507.03 L692.148 1505.36 L696.824 1505.36 L696.824 1535.98 L704.463 1535.98 L704.463 1539.92 L684.556 1539.92 L684.556 1535.98 Z" fill="#000000" fill-rule="evenodd" fill-opacity="1"></path><path clip-path="url(#clip6900)" d="M 0 0 M710.343 1535.98 L717.981 1535.98 L717.981 1509.62 L709.671 1511.29 L709.671 1507.03 L717.935 1505.36 L722.611 1505.36 L722.611 1535.98 L730.25 1535.98 L730.25 1539.92 L710.343 1539.92 L710.343 1535.98 Z" fill="#000000" fill-rule="evenodd" fill-opacity="1"></path><path clip-path="url(#clip6900)" d="M 0 0 M732.565 1525.04 L745.041 1525.04 L745.041 1528.83 L732.565 1528.83 L732.565 1525.04 Z" fill="#000000" fill-rule="evenodd" fill-opacity="1"></path><path clip-path="url(#clip6900)" d="M 0 0 M760.111 1508.44 Q756.5 1508.44 754.671 1512 Q752.865 1515.55 752.865 1522.67 Q752.865 1529.78 754.671 1533.35 Q756.5 1536.89 760.111 1536.89 Q763.745 1536.89 765.551 1533.35 Q767.379 1529.78 767.379 1522.67 Q767.379 1515.55 765.551 1512 Q763.745 1508.44 760.111 1508.44 M760.111 1504.73 Q765.921 1504.73 768.976 1509.34 Q772.055 1513.92 772.055 1522.67 Q772.055 1531.4 768.976 1536.01 Q765.921 1540.59 760.111 1540.59 Q754.301 1540.59 751.222 1536.01 Q748.166 1531.4 748.166 1522.67 Q748.166 1513.92 751.222 1509.34 Q754.301 1504.73 760.111 1504.73 Z" fill="#000000" fill-rule="evenodd" fill-opacity="1"></path><path clip-path="url(#clip6900)" d="M 0 0 M777.935 1535.98 L785.574 1535.98 L785.574 1509.62 L777.263 1511.29 L777.263 1507.03 L785.527 1505.36 L790.203 1505.36 L790.203 1535.98 L797.842 1535.98 L797.842 1539.92 L777.935 1539.92 L777.935 1535.98 Z" fill="#000000" fill-rule="evenodd" fill-opacity="1"></path><path clip-path="url(#clip6900)" d="M 0 0 M800.157 1525.04 L812.634 1525.04 L812.634 1528.83 L800.157 1528.83 L800.157 1525.04 Z" fill="#000000" fill-rule="evenodd" fill-opacity="1"></path><path clip-path="url(#clip6900)" d="M 0 0 M827.703 1508.44 Q824.092 1508.44 822.263 1512 Q820.458 1515.55 820.458 1522.67 Q820.458 1529.78 822.263 1533.35 Q824.092 1536.89 827.703 1536.89 Q831.337 1536.89 833.143 1533.35 Q834.971 1529.78 834.971 1522.67 Q834.971 1515.55 833.143 1512 Q831.337 1508.44 827.703 1508.44 M827.703 1504.73 Q833.513 1504.73 836.569 1509.34 Q839.647 1513.92 839.647 1522.67 Q839.647 1531.4 836.569 1536.01 Q833.513 1540.59 827.703 1540.59 Q821.893 1540.59 818.814 1536.01 Q815.759 1531.4 815.759 1522.67 Q815.759 1513.92 818.814 1509.34 Q821.893 1504.73 827.703 1504.73 Z" fill="#000000" fill-rule="evenodd" fill-opacity="1"></path><path clip-path="url(#clip6900)" d="M 0 0 M845.527 1535.98 L853.166 1535.98 L853.166 1509.62 L844.856 1511.29 L844.856 1507.03 L853.12 1505.36 L857.795 1505.36 L857.795 1535.98 L865.434 1535.98 L865.434 1539.92 L845.527 1539.92 L845.527 1535.98 Z" fill="#000000" fill-rule="evenodd" fill-opacity="1"></path><path clip-path="url(#clip6900)" d="M 0 0 M1153.97 1535.98 L1170.29 1535.98 L1170.29 1539.92 L1148.35 1539.92 L1148.35 1535.98 Q1151.01 1533.23 1155.59 1528.6 Q1160.2 1523.95 1161.38 1522.61 Q1163.63 1520.08 1164.51 1518.35 Q1165.41 1516.59 1165.41 1514.9 Q1165.41 1512.14 1163.47 1510.41 Q1161.54 1508.67 1158.44 1508.67 Q1156.24 1508.67 1153.79 1509.43 Q1151.36 1510.2 1148.58 1511.75 L1148.58 1507.03 Q1151.4 1505.89 1153.86 1505.31 Q1156.31 1504.73 1158.35 1504.73 Q1163.72 1504.73 1166.91 1507.42 Q1170.11 1510.11 1170.11 1514.6 Q1170.11 1516.73 1169.3 1518.65 Q1168.51 1520.54 1166.4 1523.14 Q1165.83 1523.81 1162.72 1527.03 Q1159.62 1530.22 1153.97 1535.98 Z" fill="#000000" fill-rule="evenodd" fill-opacity="1"></path><path clip-path="url(#clip6900)" d="M 0 0 M1185.36 1508.44 Q1181.75 1508.44 1179.92 1512 Q1178.12 1515.55 1178.12 1522.67 Q1178.12 1529.78 1179.92 1533.35 Q1181.75 1536.89 1185.36 1536.89 Q1189 1536.89 1190.8 1533.35 Q1192.63 1529.78 1192.63 1522.67 Q1192.63 1515.55 1190.8 1512 Q1189 1508.44 1185.36 1508.44 M1185.36 1504.73 Q1191.17 1504.73 1194.23 1509.34 Q1197.31 1513.92 1197.31 1522.67 Q1197.31 1531.4 1194.23 1536.01 Q1191.17 1540.59 1185.36 1540.59 Q1179.55 1540.59 1176.47 1536.01 Q1173.42 1531.4 1173.42 1522.67 Q1173.42 1513.92 1176.47 1509.34 Q1179.55 1504.73 1185.36 1504.73 Z" fill="#000000" fill-rule="evenodd" fill-opacity="1"></path><path clip-path="url(#clip6900)" d="M 0 0 M1203.19 1535.98 L1210.83 1535.98 L1210.83 1509.62 L1202.52 1511.29 L1202.52 1507.03 L1210.78 1505.36 L1215.46 1505.36 L1215.46 1535.98 L1223.09 1535.98 L1223.09 1539.92 L1203.19 1539.92 L1203.19 1535.98 Z" fill="#000000" fill-rule="evenodd" fill-opacity="1"></path><path clip-path="url(#clip6900)" d="M 0 0 M1241.01 1509.43 L1229.21 1527.88 L1241.01 1527.88 L1241.01 1509.43 M1239.78 1505.36 L1245.66 1505.36 L1245.66 1527.88 L1250.59 1527.88 L1250.59 1531.77 L1245.66 1531.77 L1245.66 1539.92 L1241.01 1539.92 L1241.01 1531.77 L1225.41 1531.77 L1225.41 1527.26 L1239.78 1505.36 Z" fill="#000000" fill-rule="evenodd" fill-opacity="1"></path><path clip-path="url(#clip6900)" d="M 0 0 M1252.91 1525.04 L1265.39 1525.04 L1265.39 1528.83 L1252.91 1528.83 L1252.91 1525.04 Z" fill="#000000" fill-rule="evenodd" fill-opacity="1"></path><path clip-path="url(#clip6900)" d="M 0 0 M1280.46 1508.44 Q1276.84 1508.44 1275.02 1512 Q1273.21 1515.55 1273.21 1522.67 Q1273.21 1529.78 1275.02 1533.35 Q1276.84 1536.89 1280.46 1536.89 Q1284.09 1536.89 1285.89 1533.35 Q1287.72 1529.78 1287.72 1522.67 Q1287.72 1515.55 1285.89 1512 Q1284.09 1508.44 1280.46 1508.44 M1280.46 1504.73 Q1286.27 1504.73 1289.32 1509.34 Q1292.4 1513.92 1292.4 1522.67 Q1292.4 1531.4 1289.32 1536.01 Q1286.27 1540.59 1280.46 1540.59 Q1274.65 1540.59 1271.57 1536.01 Q1268.51 1531.4 1268.51 1522.67 Q1268.51 1513.92 1271.57 1509.34 Q1274.65 1504.73 1280.46 1504.73 Z" fill="#000000" fill-rule="evenodd" fill-opacity="1"></path><path clip-path="url(#clip6900)" d="M 0 0 M1298.28 1535.98 L1305.92 1535.98 L1305.92 1509.62 L1297.61 1511.29 L1297.61 1507.03 L1305.87 1505.36 L1310.55 1505.36 L1310.55 1535.98 L1318.19 1535.98 L1318.19 1539.92 L1298.28 1539.92 L1298.28 1535.98 Z" fill="#000000" fill-rule="evenodd" fill-opacity="1"></path><path clip-path="url(#clip6900)" d="M 0 0 M1320.5 1525.04 L1332.98 1525.04 L1332.98 1528.83 L1320.5 1528.83 L1320.5 1525.04 Z" fill="#000000" fill-rule="evenodd" fill-opacity="1"></path><path clip-path="url(#clip6900)" d="M 0 0 M1348.05 1508.44 Q1344.44 1508.44 1342.61 1512 Q1340.8 1515.55 1340.8 1522.67 Q1340.8 1529.78 1342.61 1533.35 Q1344.44 1536.89 1348.05 1536.89 Q1351.68 1536.89 1353.49 1533.35 Q1355.32 1529.78 1355.32 1522.67 Q1355.32 1515.55 1353.49 1512 Q1351.68 1508.44 1348.05 1508.44 M1348.05 1504.73 Q1353.86 1504.73 1356.91 1509.34 Q1359.99 1513.92 1359.99 1522.67 Q1359.99 1531.4 1356.91 1536.01 Q1353.86 1540.59 1348.05 1540.59 Q1342.24 1540.59 1339.16 1536.01 Q1336.1 1531.4 1336.1 1522.67 Q1336.1 1513.92 1339.16 1509.34 Q1342.24 1504.73 1348.05 1504.73 Z" fill="#000000" fill-rule="evenodd" fill-opacity="1"></path><path clip-path="url(#clip6900)" d="M 0 0 M1365.87 1535.98 L1373.51 1535.98 L1373.51 1509.62 L1365.2 1511.29 L1365.2 1507.03 L1373.46 1505.36 L1378.14 1505.36 L1378.14 1535.98 L1385.78 1535.98 L1385.78 1539.92 L1365.87 1539.92 L1365.87 1535.98 Z" fill="#000000" fill-rule="evenodd" fill-opacity="1"></path><path clip-path="url(#clip6900)" d="M 0 0 M1674.16 1535.98 L1690.48 1535.98 L1690.48 1539.92 L1668.53 1539.92 L1668.53 1535.98 Q1671.19 1533.23 1675.78 1528.6 Q1680.38 1523.95 1681.56 1522.61 Q1683.81 1520.08 1684.69 1518.35 Q1685.59 1516.59 1685.59 1514.9 Q1685.59 1512.14 1683.65 1510.41 Q1681.73 1508.67 1678.62 1508.67 Q1676.43 1508.67 1673.97 1509.43 Q1671.54 1510.2 1668.76 1511.75 L1668.76 1507.03 Q1671.59 1505.89 1674.04 1505.31 Q1676.49 1504.73 1678.53 1504.73 Q1683.9 1504.73 1687.1 1507.42 Q1690.29 1510.11 1690.29 1514.6 Q1690.29 1516.73 1689.48 1518.65 Q1688.69 1520.54 1686.59 1523.14 Q1686.01 1523.81 1682.91 1527.03 Q1679.8 1530.22 1674.16 1535.98 Z" fill="#000000" fill-rule="evenodd" fill-opacity="1"></path><path clip-path="url(#clip6900)" d="M 0 0 M1705.55 1508.44 Q1701.93 1508.44 1700.11 1512 Q1698.3 1515.55 1698.3 1522.67 Q1698.3 1529.78 1700.11 1533.35 Q1701.93 1536.89 1705.55 1536.89 Q1709.18 1536.89 1710.99 1533.35 Q1712.81 1529.78 1712.81 1522.67 Q1712.81 1515.55 1710.99 1512 Q1709.18 1508.44 1705.55 1508.44 M1705.55 1504.73 Q1711.36 1504.73 1714.41 1509.34 Q1717.49 1513.92 1717.49 1522.67 Q1717.49 1531.4 1714.41 1536.01 Q1711.36 1540.59 1705.55 1540.59 Q1699.74 1540.59 1696.66 1536.01 Q1693.6 1531.4 1693.6 1522.67 Q1693.6 1513.92 1696.66 1509.34 Q1699.74 1504.73 1705.55 1504.73 Z" fill="#000000" fill-rule="evenodd" fill-opacity="1"></path><path clip-path="url(#clip6900)" d="M 0 0 M1723.37 1535.98 L1731.01 1535.98 L1731.01 1509.62 L1722.7 1511.29 L1722.7 1507.03 L1730.96 1505.36 L1735.64 1505.36 L1735.64 1535.98 L1743.28 1535.98 L1743.28 1539.92 L1723.37 1539.92 L1723.37 1535.98 Z" fill="#000000" fill-rule="evenodd" fill-opacity="1"></path><path clip-path="url(#clip6900)" d="M 0 0 M1747.17 1505.36 L1769.39 1505.36 L1769.39 1507.35 L1756.84 1539.92 L1751.96 1539.92 L1763.76 1509.3 L1747.17 1509.3 L1747.17 1505.36 Z" fill="#000000" fill-rule="evenodd" fill-opacity="1"></path><path clip-path="url(#clip6900)" d="M 0 0 M1771.7 1525.04 L1784.18 1525.04 L1784.18 1528.83 L1771.7 1528.83 L1771.7 1525.04 Z" fill="#000000" fill-rule="evenodd" fill-opacity="1"></path><path clip-path="url(#clip6900)" d="M 0 0 M1799.25 1508.44 Q1795.64 1508.44 1793.81 1512 Q1792 1515.55 1792 1522.67 Q1792 1529.78 1793.81 1533.35 Q1795.64 1536.89 1799.25 1536.89 Q1802.88 1536.89 1804.69 1533.35 Q1806.52 1529.78 1806.52 1522.67 Q1806.52 1515.55 1804.69 1512 Q1802.88 1508.44 1799.25 1508.44 M1799.25 1504.73 Q1805.06 1504.73 1808.11 1509.34 Q1811.19 1513.92 1811.19 1522.67 Q1811.19 1531.4 1808.11 1536.01 Q1805.06 1540.59 1799.25 1540.59 Q1793.44 1540.59 1790.36 1536.01 Q1787.3 1531.4 1787.3 1522.67 Q1787.3 1513.92 1790.36 1509.34 Q1793.44 1504.73 1799.25 1504.73 Z" fill="#000000" fill-rule="evenodd" fill-opacity="1"></path><path clip-path="url(#clip6900)" d="M 0 0 M1817.07 1535.98 L1824.71 1535.98 L1824.71 1509.62 L1816.4 1511.29 L1816.4 1507.03 L1824.67 1505.36 L1829.34 1505.36 L1829.34 1535.98 L1836.98 1535.98 L1836.98 1539.92 L1817.07 1539.92 L1817.07 1535.98 Z" fill="#000000" fill-rule="evenodd" fill-opacity="1"></path><path clip-path="url(#clip6900)" d="M 0 0 M1839.29 1525.04 L1851.77 1525.04 L1851.77 1528.83 L1839.29 1528.83 L1839.29 1525.04 Z" fill="#000000" fill-rule="evenodd" fill-opacity="1"></path><path clip-path="url(#clip6900)" d="M 0 0 M1866.84 1508.44 Q1863.23 1508.44 1861.4 1512 Q1859.6 1515.55 1859.6 1522.67 Q1859.6 1529.78 1861.4 1533.35 Q1863.23 1536.89 1866.84 1536.89 Q1870.48 1536.89 1872.28 1533.35 Q1874.11 1529.78 1874.11 1522.67 Q1874.11 1515.55 1872.28 1512 Q1870.48 1508.44 1866.84 1508.44 M1866.84 1504.73 Q1872.65 1504.73 1875.71 1509.34 Q1878.79 1513.92 1878.79 1522.67 Q1878.79 1531.4 1875.71 1536.01 Q1872.65 1540.59 1866.84 1540.59 Q1861.03 1540.59 1857.95 1536.01 Q1854.9 1531.4 1854.9 1522.67 Q1854.9 1513.92 1857.95 1509.34 Q1861.03 1504.73 1866.84 1504.73 Z" fill="#000000" fill-rule="evenodd" fill-opacity="1"></path><path clip-path="url(#clip6900)" d="M 0 0 M1884.66 1535.98 L1892.3 1535.98 L1892.3 1509.62 L1883.99 1511.29 L1883.99 1507.03 L1892.26 1505.36 L1896.93 1505.36 L1896.93 1535.98 L1904.57 1535.98 L1904.57 1539.92 L1884.66 1539.92 L1884.66 1535.98 Z" fill="#000000" fill-rule="evenodd" fill-opacity="1"></path><path clip-path="url(#clip6900)" d="M 0 0 M2192.9 1535.98 L2209.22 1535.98 L2209.22 1539.92 L2187.28 1539.92 L2187.28 1535.98 Q2189.94 1533.23 2194.52 1528.6 Q2199.13 1523.95 2200.31 1522.61 Q2202.56 1520.08 2203.44 1518.35 Q2204.34 1516.59 2204.34 1514.9 Q2204.34 1512.14 2202.4 1510.41 Q2200.47 1508.67 2197.37 1508.67 Q2195.17 1508.67 2192.72 1509.43 Q2190.29 1510.2 2187.51 1511.75 L2187.51 1507.03 Q2190.34 1505.89 2192.79 1505.31 Q2195.24 1504.73 2197.28 1504.73 Q2202.65 1504.73 2205.84 1507.42 Q2209.04 1510.11 2209.04 1514.6 Q2209.04 1516.73 2208.23 1518.65 Q2207.44 1520.54 2205.33 1523.14 Q2204.76 1523.81 2201.65 1527.03 Q2198.55 1530.22 2192.9 1535.98 Z" fill="#000000" fill-rule="evenodd" fill-opacity="1"></path><path clip-path="url(#clip6900)" d="M 0 0 M2224.29 1508.44 Q2220.68 1508.44 2218.85 1512 Q2217.05 1515.55 2217.05 1522.67 Q2217.05 1529.78 2218.85 1533.35 Q2220.68 1536.89 2224.29 1536.89 Q2227.93 1536.89 2229.73 1533.35 Q2231.56 1529.78 2231.56 1522.67 Q2231.56 1515.55 2229.73 1512 Q2227.93 1508.44 2224.29 1508.44 M2224.29 1504.73 Q2230.1 1504.73 2233.16 1509.34 Q2236.24 1513.92 2236.24 1522.67 Q2236.24 1531.4 2233.16 1536.01 Q2230.1 1540.59 2224.29 1540.59 Q2218.48 1540.59 2215.4 1536.01 Q2212.35 1531.4 2212.35 1522.67 Q2212.35 1513.92 2215.4 1509.34 Q2218.48 1504.73 2224.29 1504.73 Z" fill="#000000" fill-rule="evenodd" fill-opacity="1"></path><path clip-path="url(#clip6900)" d="M 0 0 M2245.33 1535.98 L2261.65 1535.98 L2261.65 1539.92 L2239.71 1539.92 L2239.71 1535.98 Q2242.37 1533.23 2246.96 1528.6 Q2251.56 1523.95 2252.74 1522.61 Q2254.99 1520.08 2255.87 1518.35 Q2256.77 1516.59 2256.77 1514.9 Q2256.77 1512.14 2254.83 1510.41 Q2252.9 1508.67 2249.8 1508.67 Q2247.6 1508.67 2245.15 1509.43 Q2242.72 1510.2 2239.94 1511.75 L2239.94 1507.03 Q2242.77 1505.89 2245.22 1505.31 Q2247.67 1504.73 2249.71 1504.73 Q2255.08 1504.73 2258.27 1507.42 Q2261.47 1510.11 2261.47 1514.6 Q2261.47 1516.73 2260.66 1518.65 Q2259.87 1520.54 2257.77 1523.14 Q2257.19 1523.81 2254.08 1527.03 Q2250.98 1530.22 2245.33 1535.98 Z" fill="#000000" fill-rule="evenodd" fill-opacity="1"></path><path clip-path="url(#clip6900)" d="M 0 0 M2276.72 1508.44 Q2273.11 1508.44 2271.28 1512 Q2269.48 1515.55 2269.48 1522.67 Q2269.48 1529.78 2271.28 1533.35 Q2273.11 1536.89 2276.72 1536.89 Q2280.36 1536.89 2282.16 1533.35 Q2283.99 1529.78 2283.99 1522.67 Q2283.99 1515.55 2282.16 1512 Q2280.36 1508.44 2276.72 1508.44 M2276.72 1504.73 Q2282.53 1504.73 2285.59 1509.34 Q2288.67 1513.92 2288.67 1522.67 Q2288.67 1531.4 2285.59 1536.01 Q2282.53 1540.59 2276.72 1540.59 Q2270.91 1540.59 2267.83 1536.01 Q2264.78 1531.4 2264.78 1522.67 Q2264.78 1513.92 2267.83 1509.34 Q2270.91 1504.73 2276.72 1504.73 Z" fill="#000000" fill-rule="evenodd" fill-opacity="1"></path><path clip-path="url(#clip6900)" d="M 0 0 M2290.98 1525.04 L2303.46 1525.04 L2303.46 1528.83 L2290.98 1528.83 L2290.98 1525.04 Z" fill="#000000" fill-rule="evenodd" fill-opacity="1"></path><path clip-path="url(#clip6900)" d="M 0 0 M2318.53 1508.44 Q2314.92 1508.44 2313.09 1512 Q2311.28 1515.55 2311.28 1522.67 Q2311.28 1529.78 2313.09 1533.35 Q2314.92 1536.89 2318.53 1536.89 Q2322.16 1536.89 2323.97 1533.35 Q2325.8 1529.78 2325.8 1522.67 Q2325.8 1515.55 2323.97 1512 Q2322.16 1508.44 2318.53 1508.44 M2318.53 1504.73 Q2324.34 1504.73 2327.39 1509.34 Q2330.47 1513.92 2330.47 1522.67 Q2330.47 1531.4 2327.39 1536.01 Q2324.34 1540.59 2318.53 1540.59 Q2312.72 1540.59 2309.64 1536.01 Q2306.58 1531.4 2306.58 1522.67 Q2306.58 1513.92 2309.64 1509.34 Q2312.72 1504.73 2318.53 1504.73 Z" fill="#000000" fill-rule="evenodd" fill-opacity="1"></path><path clip-path="url(#clip6900)" d="M 0 0 M2336.35 1535.98 L2343.99 1535.98 L2343.99 1509.62 L2335.68 1511.29 L2335.68 1507.03 L2343.95 1505.36 L2348.62 1505.36 L2348.62 1535.98 L2356.26 1535.98 L2356.26 1539.92 L2336.35 1539.92 L2336.35 1535.98 Z" fill="#000000" fill-rule="evenodd" fill-opacity="1"></path><path clip-path="url(#clip6900)" d="M 0 0 M2358.57 1525.04 L2371.05 1525.04 L2371.05 1528.83 L2358.57 1528.83 L2358.57 1525.04 Z" fill="#000000" fill-rule="evenodd" fill-opacity="1"></path><path clip-path="url(#clip6900)" d="M 0 0 M2386.12 1508.44 Q2382.51 1508.44 2380.68 1512 Q2378.88 1515.55 2378.88 1522.67 Q2378.88 1529.78 2380.68 1533.35 Q2382.51 1536.89 2386.12 1536.89 Q2389.76 1536.89 2391.56 1533.35 Q2393.39 1529.78 2393.39 1522.67 Q2393.39 1515.55 2391.56 1512 Q2389.76 1508.44 2386.12 1508.44 M2386.12 1504.73 Q2391.93 1504.73 2394.99 1509.34 Q2398.07 1513.92 2398.07 1522.67 Q2398.07 1531.4 2394.99 1536.01 Q2391.93 1540.59 2386.12 1540.59 Q2380.31 1540.59 2377.23 1536.01 Q2374.18 1531.4 2374.18 1522.67 Q2374.18 1513.92 2377.23 1509.34 Q2380.31 1504.73 2386.12 1504.73 Z" fill="#000000" fill-rule="evenodd" fill-opacity="1"></path><path clip-path="url(#clip6900)" d="M 0 0 M2403.95 1535.98 L2411.58 1535.98 L2411.58 1509.62 L2403.27 1511.29 L2403.27 1507.03 L2411.54 1505.36 L2416.21 1505.36 L2416.21 1535.98 L2423.85 1535.98 L2423.85 1539.92 L2403.95 1539.92 L2403.95 1535.98 Z" fill="#000000" fill-rule="evenodd" fill-opacity="1"></path><path clip-path="url(#clip6900)" d="M 0 0 M78.5939 1158.36 L66.7884 1176.81 L78.5939 1176.81 L78.5939 1158.36 M77.367 1154.28 L83.2466 1154.28 L83.2466 1176.81 L88.1772 1176.81 L88.1772 1180.69 L83.2466 1180.69 L83.2466 1188.84 L78.5939 1188.84 L78.5939 1180.69 L62.9921 1180.69 L62.9921 1176.18 L77.367 1154.28 Z" fill="#000000" fill-rule="evenodd" fill-opacity="1"></path><path clip-path="url(#clip6900)" d="M 0 0 M103.247 1157.36 Q99.6354 1157.36 97.8068 1160.93 Q96.0012 1164.47 96.0012 1171.6 Q96.0012 1178.7 97.8068 1182.27 Q99.6354 1185.81 103.247 1185.81 Q106.881 1185.81 108.686 1182.27 Q110.515 1178.7 110.515 1171.6 Q110.515 1164.47 108.686 1160.93 Q106.881 1157.36 103.247 1157.36 M103.247 1153.66 Q109.057 1153.66 112.112 1158.26 Q115.191 1162.85 115.191 1171.6 Q115.191 1180.32 112.112 1184.93 Q109.057 1189.51 103.247 1189.51 Q97.4364 1189.51 94.3577 1184.93 Q91.3022 1180.32 91.3022 1171.6 Q91.3022 1162.85 94.3577 1158.26 Q97.4364 1153.66 103.247 1153.66 Z" fill="#000000" fill-rule="evenodd" fill-opacity="1"></path><path clip-path="url(#clip6900)" d="M 0 0 M130.26 1157.36 Q126.649 1157.36 124.82 1160.93 Q123.015 1164.47 123.015 1171.6 Q123.015 1178.7 124.82 1182.27 Q126.649 1185.81 130.26 1185.81 Q133.895 1185.81 135.7 1182.27 Q137.529 1178.7 137.529 1171.6 Q137.529 1164.47 135.7 1160.93 Q133.895 1157.36 130.26 1157.36 M130.26 1153.66 Q136.07 1153.66 139.126 1158.26 Q142.205 1162.85 142.205 1171.6 Q142.205 1180.32 139.126 1184.93 Q136.07 1189.51 130.26 1189.51 Q124.45 1189.51 121.371 1184.93 Q118.316 1180.32 118.316 1171.6 Q118.316 1162.85 121.371 1158.26 Q124.45 1153.66 130.26 1153.66 Z" fill="#000000" fill-rule="evenodd" fill-opacity="1"></path><path clip-path="url(#clip6900)" d="M 0 0 M78.5939 1158.36 L66.7884 1176.81 L78.5939 1176.81 L78.5939 1158.36 M77.367 1154.28 L83.2466 1154.28 L83.2466 1176.81 L88.1772 1176.81 L88.1772 1180.69 L83.2466 1180.69 L83.2466 1188.84 L78.5939 1188.84 L78.5939 1180.69 L62.9921 1180.69 L62.9921 1176.18 L77.367 1154.28 Z" fill="#000000" fill-rule="evenodd" fill-opacity="1"></path><path clip-path="url(#clip6900)" d="M 0 0 M103.247 1157.36 Q99.6354 1157.36 97.8068 1160.93 Q96.0012 1164.47 96.0012 1171.6 Q96.0012 1178.7 97.8068 1182.27 Q99.6354 1185.81 103.247 1185.81 Q106.881 1185.81 108.686 1182.27 Q110.515 1178.7 110.515 1171.6 Q110.515 1164.47 108.686 1160.93 Q106.881 1157.36 103.247 1157.36 M103.247 1153.66 Q109.057 1153.66 112.112 1158.26 Q115.191 1162.85 115.191 1171.6 Q115.191 1180.32 112.112 1184.93 Q109.057 1189.51 103.247 1189.51 Q97.4364 1189.51 94.3577 1184.93 Q91.3022 1180.32 91.3022 1171.6 Q91.3022 1162.85 94.3577 1158.26 Q97.4364 1153.66 103.247 1153.66 Z" fill="#000000" fill-rule="evenodd" fill-opacity="1"></path><path clip-path="url(#clip6900)" d="M 0 0 M130.26 1157.36 Q126.649 1157.36 124.82 1160.93 Q123.015 1164.47 123.015 1171.6 Q123.015 1178.7 124.82 1182.27 Q126.649 1185.81 130.26 1185.81 Q133.895 1185.81 135.7 1182.27 Q137.529 1178.7 137.529 1171.6 Q137.529 1164.47 135.7 1160.93 Q133.895 1157.36 130.26 1157.36 M130.26 1153.66 Q136.07 1153.66 139.126 1158.26 Q142.205 1162.85 142.205 1171.6 Q142.205 1180.32 139.126 1184.93 Q136.07 1189.51 130.26 1189.51 Q124.45 1189.51 121.371 1184.93 Q118.316 1180.32 118.316 1171.6 Q118.316 1162.85 121.371 1158.26 Q124.45 1153.66 130.26 1153.66 Z" fill="#000000" fill-rule="evenodd" fill-opacity="1"></path><path clip-path="url(#clip6900)" d="M 0 0 M79.5893 796.491 L67.7838 814.94 L79.5893 814.94 L79.5893 796.491 M78.3624 792.417 L84.242 792.417 L84.242 814.94 L89.1725 814.94 L89.1725 818.829 L84.242 818.829 L84.242 826.977 L79.5893 826.977 L79.5893 818.829 L63.9875 818.829 L63.9875 814.315 L78.3624 792.417 Z" fill="#000000" fill-rule="evenodd" fill-opacity="1"></path><path clip-path="url(#clip6900)" d="M 0 0 M94.2883 792.417 L112.645 792.417 L112.645 796.352 L98.5706 796.352 L98.5706 804.825 Q99.5892 804.477 100.608 804.315 Q101.626 804.13 102.645 804.13 Q108.432 804.13 111.811 807.301 Q115.191 810.473 115.191 815.889 Q115.191 821.468 111.719 824.57 Q108.247 827.648 101.927 827.648 Q99.7512 827.648 97.4827 827.278 Q95.2373 826.908 92.8299 826.167 L92.8299 821.468 Q94.9133 822.602 97.1355 823.158 Q99.3577 823.713 101.835 823.713 Q105.839 823.713 108.177 821.607 Q110.515 819.5 110.515 815.889 Q110.515 812.278 108.177 810.172 Q105.839 808.065 101.835 808.065 Q99.9595 808.065 98.0845 808.482 Q96.2327 808.899 94.2883 809.778 L94.2883 792.417 Z" fill="#000000" fill-rule="evenodd" fill-opacity="1"></path><path clip-path="url(#clip6900)" d="M 0 0 M130.26 795.496 Q126.649 795.496 124.82 799.061 Q123.015 802.602 123.015 809.732 Q123.015 816.838 124.82 820.403 Q126.649 823.945 130.26 823.945 Q133.895 823.945 135.7 820.403 Q137.529 816.838 137.529 809.732 Q137.529 802.602 135.7 799.061 Q133.895 795.496 130.26 795.496 M130.26 791.792 Q136.07 791.792 139.126 796.399 Q142.205 800.982 142.205 809.732 Q142.205 818.459 139.126 823.065 Q136.07 827.648 130.26 827.648 Q124.45 827.648 121.371 823.065 Q118.316 818.459 118.316 809.732 Q118.316 800.982 121.371 796.399 Q124.45 791.792 130.26 791.792 Z" fill="#000000" fill-rule="evenodd" fill-opacity="1"></path><path clip-path="url(#clip6900)" d="M 0 0 M67.2745 430.552 L85.6309 430.552 L85.6309 434.487 L71.5569 434.487 L71.5569 442.96 Q72.5754 442.612 73.5939 442.45 Q74.6124 442.265 75.6309 442.265 Q81.418 442.265 84.7976 445.436 Q88.1772 448.608 88.1772 454.024 Q88.1772 459.603 84.705 462.705 Q81.2328 465.783 74.9134 465.783 Q72.7374 465.783 70.4689 465.413 Q68.2236 465.043 65.8162 464.302 L65.8162 459.603 Q67.8995 460.737 70.1217 461.293 Q72.3439 461.848 74.8208 461.848 Q78.8254 461.848 81.1633 459.742 Q83.5013 457.635 83.5013 454.024 Q83.5013 450.413 81.1633 448.307 Q78.8254 446.2 74.8208 446.2 Q72.9458 446.2 71.0708 446.617 Q69.2189 447.034 67.2745 447.913 L67.2745 430.552 Z" fill="#000000" fill-rule="evenodd" fill-opacity="1"></path><path clip-path="url(#clip6900)" d="M 0 0 M103.247 433.631 Q99.6354 433.631 97.8068 437.196 Q96.0012 440.737 96.0012 447.867 Q96.0012 454.973 97.8068 458.538 Q99.6354 462.08 103.247 462.08 Q106.881 462.08 108.686 458.538 Q110.515 454.973 110.515 447.867 Q110.515 440.737 108.686 437.196 Q106.881 433.631 103.247 433.631 M103.247 429.927 Q109.057 429.927 112.112 434.534 Q115.191 439.117 115.191 447.867 Q115.191 456.594 112.112 461.2 Q109.057 465.783 103.247 465.783 Q97.4364 465.783 94.3577 461.2 Q91.3022 456.594 91.3022 447.867 Q91.3022 439.117 94.3577 434.534 Q97.4364 429.927 103.247 429.927 Z" fill="#000000" fill-rule="evenodd" fill-opacity="1"></path><path clip-path="url(#clip6900)" d="M 0 0 M130.26 433.631 Q126.649 433.631 124.82 437.196 Q123.015 440.737 123.015 447.867 Q123.015 454.973 124.82 458.538 Q126.649 462.08 130.26 462.08 Q133.895 462.08 135.7 458.538 Q137.529 454.973 137.529 447.867 Q137.529 440.737 135.7 437.196 Q133.895 433.631 130.26 433.631 M130.26 429.927 Q136.07 429.927 139.126 434.534 Q142.205 439.117 142.205 447.867 Q142.205 456.594 139.126 461.2 Q136.07 465.783 130.26 465.783 Q124.45 465.783 121.371 461.2 Q118.316 456.594 118.316 447.867 Q118.316 439.117 121.371 434.534 Q124.45 429.927 130.26 429.927 Z" fill="#000000" fill-rule="evenodd" fill-opacity="1"></path><path clip-path="url(#clip6900)" d="M 0 0 M612.733 9.62495 Q607.305 18.942 604.672 28.0566 Q602.039 37.1711 602.039 46.5287 Q602.039 55.8863 604.672 65.0818 Q607.345 74.2369 612.733 83.5134 L606.252 83.5134 Q600.175 73.9938 597.137 64.7983 Q594.14 55.6027 594.14 46.5287 Q594.14 37.4952 597.137 28.3401 Q600.135 19.1851 606.252 9.62495 L612.733 9.62495 Z" fill="#000000" fill-rule="evenodd" fill-opacity="1"></path><path clip-path="url(#clip6900)" d="M 0 0 M657.131 14.0809 L657.131 22.0612 Q652.473 19.8332 648.341 18.7395 Q644.209 17.6457 640.36 17.6457 Q633.676 17.6457 630.031 20.2383 Q626.425 22.8309 626.425 27.611 Q626.425 31.6214 628.815 33.6873 Q631.246 35.7128 637.97 36.9686 L642.912 37.9813 Q652.067 39.7232 656.402 44.1387 Q660.777 48.5136 660.777 55.8863 Q660.777 64.6767 654.863 69.2137 Q648.989 73.7508 637.606 73.7508 Q633.312 73.7508 628.451 72.7785 Q623.63 71.8063 618.445 69.9024 L618.445 61.4765 Q623.428 64.2716 628.208 65.6895 Q632.988 67.1073 637.606 67.1073 Q644.614 67.1073 648.422 64.3527 Q652.229 61.598 652.229 56.4939 Q652.229 52.0379 649.475 49.5264 Q646.761 47.0148 640.522 45.759 L635.54 44.7868 Q626.385 42.9639 622.293 39.075 Q618.202 35.1862 618.202 28.2591 Q618.202 20.2383 623.833 15.6203 Q629.504 11.0023 639.429 11.0023 Q643.682 11.0023 648.098 11.7719 Q652.513 12.5416 657.131 14.0809 Z" fill="#000000" fill-rule="evenodd" fill-opacity="1"></path><path clip-path="url(#clip6900)" d="M 0 0 M703.919 35.9153 Q706.714 30.8922 710.603 28.5022 Q714.492 26.1121 719.758 26.1121 Q726.847 26.1121 730.696 31.0947 Q734.544 36.0368 734.544 45.1919 L734.544 72.576 L727.05 72.576 L727.05 45.4349 Q727.05 38.913 724.741 35.7533 Q722.432 32.5936 717.692 32.5936 Q711.899 32.5936 708.537 36.4419 Q705.175 40.2903 705.175 46.9338 L705.175 72.576 L697.681 72.576 L697.681 45.4349 Q697.681 38.8725 695.372 35.7533 Q693.063 32.5936 688.242 32.5936 Q682.53 32.5936 679.168 36.4824 Q675.806 40.3308 675.806 46.9338 L675.806 72.576 L668.312 72.576 L668.312 27.2059 L675.806 27.2059 L675.806 34.2544 Q678.358 30.082 681.923 28.0971 Q685.487 26.1121 690.389 26.1121 Q695.331 26.1121 698.774 28.6237 Q702.258 31.1352 703.919 35.9153 Z" fill="#000000" fill-rule="evenodd" fill-opacity="1"></path><path clip-path="url(#clip6900)" d="M 0 0 M759.943 32.4315 Q753.948 32.4315 750.464 37.1306 Q746.98 41.7891 746.98 49.9314 Q746.98 58.0738 750.423 62.7728 Q753.907 67.4314 759.943 67.4314 Q765.898 67.4314 769.382 62.7323 Q772.865 58.0333 772.865 49.9314 Q772.865 41.8701 769.382 37.1711 Q765.898 32.4315 759.943 32.4315 M759.943 26.1121 Q769.665 26.1121 775.215 32.4315 Q780.765 38.7509 780.765 49.9314 Q780.765 61.0714 775.215 67.4314 Q769.665 73.7508 759.943 73.7508 Q750.18 73.7508 744.631 67.4314 Q739.121 61.0714 739.121 49.9314 Q739.121 38.7509 744.631 32.4315 Q750.18 26.1121 759.943 26.1121 Z" fill="#000000" fill-rule="evenodd" fill-opacity="1"></path><path clip-path="url(#clip6900)" d="M 0 0 M806.164 32.4315 Q800.169 32.4315 796.685 37.1306 Q793.201 41.7891 793.201 49.9314 Q793.201 58.0738 796.644 62.7728 Q800.128 67.4314 806.164 67.4314 Q812.119 67.4314 815.602 62.7323 Q819.086 58.0333 819.086 49.9314 Q819.086 41.8701 815.602 37.1711 Q812.119 32.4315 806.164 32.4315 M806.164 26.1121 Q815.886 26.1121 821.436 32.4315 Q826.985 38.7509 826.985 49.9314 Q826.985 61.0714 821.436 67.4314 Q815.886 73.7508 806.164 73.7508 Q796.401 73.7508 790.851 67.4314 Q785.342 61.0714 785.342 49.9314 Q785.342 38.7509 790.851 32.4315 Q796.401 26.1121 806.164 26.1121 Z" fill="#000000" fill-rule="evenodd" fill-opacity="1"></path><path clip-path="url(#clip6900)" d="M 0 0 M842.176 14.324 L842.176 27.2059 L857.529 27.2059 L857.529 32.9987 L842.176 32.9987 L842.176 57.6282 Q842.176 63.1779 843.675 64.7578 Q845.215 66.3376 849.873 66.3376 L857.529 66.3376 L857.529 72.576 L849.873 72.576 Q841.245 72.576 837.963 69.3758 Q834.682 66.1351 834.682 57.6282 L834.682 32.9987 L829.213 32.9987 L829.213 27.2059 L834.682 27.2059 L834.682 14.324 L842.176 14.324 Z" fill="#000000" fill-rule="evenodd" fill-opacity="1"></path><path clip-path="url(#clip6900)" d="M 0 0 M903.061 45.1919 L903.061 72.576 L895.608 72.576 L895.608 45.4349 Q895.608 38.994 893.096 35.7938 Q890.585 32.5936 885.562 32.5936 Q879.526 32.5936 876.042 36.4419 Q872.558 40.2903 872.558 46.9338 L872.558 72.576 L865.064 72.576 L865.064 9.54393 L872.558 9.54393 L872.558 34.2544 Q875.232 30.163 878.837 28.1376 Q882.483 26.1121 887.222 26.1121 Q895.041 26.1121 899.051 30.9732 Q903.061 35.7938 903.061 45.1919 Z" fill="#000000" fill-rule="evenodd" fill-opacity="1"></path><path clip-path="url(#clip6900)" d="M 0 0 M949.687 48.0275 L949.687 51.6733 L915.417 51.6733 Q915.903 59.3701 920.035 63.421 Q924.207 67.4314 931.62 67.4314 Q935.914 67.4314 939.925 66.3781 Q943.976 65.3249 947.945 63.2184 L947.945 70.267 Q943.935 71.9684 939.722 72.8596 Q935.509 73.7508 931.175 73.7508 Q920.318 73.7508 913.958 67.4314 Q907.639 61.1119 907.639 50.3365 Q907.639 39.1965 913.634 32.6746 Q919.67 26.1121 929.878 26.1121 Q939.034 26.1121 944.34 32.0264 Q949.687 37.9003 949.687 48.0275 M942.234 45.84 Q942.153 39.7232 938.79 36.0774 Q935.469 32.4315 929.959 32.4315 Q923.721 32.4315 919.954 35.9558 Q916.227 39.4801 915.66 45.8805 L942.234 45.84 Z" fill="#000000" fill-rule="evenodd" fill-opacity="1"></path><path clip-path="url(#clip6900)" d="M 0 0 M987.361 34.0924 L987.361 9.54393 L994.814 9.54393 L994.814 72.576 L987.361 72.576 L987.361 65.7705 Q985.011 69.8214 981.406 71.8063 Q977.841 73.7508 972.818 73.7508 Q964.595 73.7508 959.41 67.1883 Q954.265 60.6258 954.265 49.9314 Q954.265 39.2371 959.41 32.6746 Q964.595 26.1121 972.818 26.1121 Q977.841 26.1121 981.406 28.0971 Q985.011 30.0415 987.361 34.0924 M961.962 49.9314 Q961.962 58.1548 965.324 62.8538 Q968.727 67.5124 974.641 67.5124 Q980.555 67.5124 983.958 62.8538 Q987.361 58.1548 987.361 49.9314 Q987.361 41.7081 983.958 37.0496 Q980.555 32.3505 974.641 32.3505 Q968.727 32.3505 965.324 37.0496 Q961.962 41.7081 961.962 49.9314 Z" fill="#000000" fill-rule="evenodd" fill-opacity="1"></path><path clip-path="url(#clip6900)" d="M 0 0 M1001.46 9.62495 L1007.94 9.62495 Q1014.02 19.1851 1017.01 28.3401 Q1020.05 37.4952 1020.05 46.5287 Q1020.05 55.6027 1017.01 64.7983 Q1014.02 73.9938 1007.94 83.5134 L1001.46 83.5134 Q1006.85 74.2369 1009.48 65.0818 Q1012.15 55.8863 1012.15 46.5287 Q1012.15 37.1711 1009.48 28.0566 Q1006.85 18.942 1001.46 9.62495 Z" fill="#000000" fill-rule="evenodd" fill-opacity="1"></path><path clip-path="url(#clip6900)" d="M 0 0 M1054.57 12.096 L1062.75 12.096 L1062.75 72.576 L1054.57 72.576 L1054.57 12.096 Z" fill="#000000" fill-rule="evenodd" fill-opacity="1"></path><path clip-path="url(#clip6900)" d="M 0 0 M1105.89 35.9153 Q1108.69 30.8922 1112.57 28.5022 Q1116.46 26.1121 1121.73 26.1121 Q1128.82 26.1121 1132.67 31.0947 Q1136.52 36.0368 1136.52 45.1919 L1136.52 72.576 L1129.02 72.576 L1129.02 45.4349 Q1129.02 38.913 1126.71 35.7533 Q1124.4 32.5936 1119.66 32.5936 Q1113.87 32.5936 1110.51 36.4419 Q1107.15 40.2903 1107.15 46.9338 L1107.15 72.576 L1099.65 72.576 L1099.65 45.4349 Q1099.65 38.8725 1097.34 35.7533 Q1095.03 32.5936 1090.21 32.5936 Q1084.5 32.5936 1081.14 36.4824 Q1077.78 40.3308 1077.78 46.9338 L1077.78 72.576 L1070.28 72.576 L1070.28 27.2059 L1077.78 27.2059 L1077.78 34.2544 Q1080.33 30.082 1083.89 28.0971 Q1087.46 26.1121 1092.36 26.1121 Q1097.3 26.1121 1100.75 28.6237 Q1104.23 31.1352 1105.89 35.9153 Z" fill="#000000" fill-rule="evenodd" fill-opacity="1"></path><path clip-path="url(#clip6900)" d="M 0 0 M1151.54 65.7705 L1151.54 89.8329 L1144.05 89.8329 L1144.05 27.2059 L1151.54 27.2059 L1151.54 34.0924 Q1153.89 30.0415 1157.46 28.0971 Q1161.06 26.1121 1166.05 26.1121 Q1174.31 26.1121 1179.45 32.6746 Q1184.64 39.2371 1184.64 49.9314 Q1184.64 60.6258 1179.45 67.1883 Q1174.31 73.7508 1166.05 73.7508 Q1161.06 73.7508 1157.46 71.8063 Q1153.89 69.8214 1151.54 65.7705 M1176.9 49.9314 Q1176.9 41.7081 1173.5 37.0496 Q1170.14 32.3505 1164.22 32.3505 Q1158.31 32.3505 1154.91 37.0496 Q1151.54 41.7081 1151.54 49.9314 Q1151.54 58.1548 1154.91 62.8538 Q1158.31 67.5124 1164.22 67.5124 Q1170.14 67.5124 1173.5 62.8538 Q1176.9 58.1548 1176.9 49.9314 Z" fill="#000000" fill-rule="evenodd" fill-opacity="1"></path><path clip-path="url(#clip6900)" d="M 0 0 M1210.04 32.4315 Q1204.04 32.4315 1200.56 37.1306 Q1197.08 41.7891 1197.08 49.9314 Q1197.08 58.0738 1200.52 62.7728 Q1204 67.4314 1210.04 67.4314 Q1215.99 67.4314 1219.48 62.7323 Q1222.96 58.0333 1222.96 49.9314 Q1222.96 41.8701 1219.48 37.1711 Q1215.99 32.4315 1210.04 32.4315 M1210.04 26.1121 Q1219.76 26.1121 1225.31 32.4315 Q1230.86 38.7509 1230.86 49.9314 Q1230.86 61.0714 1225.31 67.4314 Q1219.76 73.7508 1210.04 73.7508 Q1200.28 73.7508 1194.73 67.4314 Q1189.22 61.0714 1189.22 49.9314 Q1189.22 38.7509 1194.73 32.4315 Q1200.28 26.1121 1210.04 26.1121 Z" fill="#000000" fill-rule="evenodd" fill-opacity="1"></path><path clip-path="url(#clip6900)" d="M 0 0 M1264.97 34.1734 Q1263.71 33.4443 1262.21 33.1202 Q1260.76 32.7556 1258.97 32.7556 Q1252.65 32.7556 1249.25 36.8875 Q1245.89 40.9789 1245.89 48.6757 L1245.89 72.576 L1238.4 72.576 L1238.4 27.2059 L1245.89 27.2059 L1245.89 34.2544 Q1248.24 30.1225 1252.01 28.1376 Q1255.77 26.1121 1261.16 26.1121 Q1261.93 26.1121 1262.86 26.2337 Q1263.79 26.3147 1264.93 26.5172 L1264.97 34.1734 Z" fill="#000000" fill-rule="evenodd" fill-opacity="1"></path><path clip-path="url(#clip6900)" d="M 0 0 M1280.16 14.324 L1280.16 27.2059 L1295.51 27.2059 L1295.51 32.9987 L1280.16 32.9987 L1280.16 57.6282 Q1280.16 63.1779 1281.66 64.7578 Q1283.2 66.3376 1287.86 66.3376 L1295.51 66.3376 L1295.51 72.576 L1287.86 72.576 Q1279.23 72.576 1275.95 69.3758 Q1272.67 66.1351 1272.67 57.6282 L1272.67 32.9987 L1267.2 32.9987 L1267.2 27.2059 L1272.67 27.2059 L1272.67 14.324 L1280.16 14.324 Z" fill="#000000" fill-rule="evenodd" fill-opacity="1"></path><path clip-path="url(#clip6900)" d="M 0 0 M1332.25 28.5427 L1332.25 35.5912 Q1329.1 33.9709 1325.69 33.1607 Q1322.29 32.3505 1318.64 32.3505 Q1313.09 32.3505 1310.3 34.0519 Q1307.54 35.7533 1307.54 39.156 Q1307.54 41.7486 1309.53 43.2475 Q1311.51 44.7058 1317.51 46.0426 L1320.06 46.6097 Q1328 48.3111 1331.32 51.4303 Q1334.69 54.509 1334.69 60.0587 Q1334.69 66.3781 1329.66 70.0644 Q1324.68 73.7508 1315.93 73.7508 Q1312.28 73.7508 1308.31 73.0216 Q1304.38 72.3329 1300.01 70.9151 L1300.01 63.2184 Q1304.14 65.3654 1308.15 66.4591 Q1312.16 67.5124 1316.09 67.5124 Q1321.36 67.5124 1324.19 65.73 Q1327.03 63.9071 1327.03 60.6258 Q1327.03 57.5877 1324.96 55.9673 Q1322.94 54.3469 1316.01 52.8481 L1313.42 52.2405 Q1306.49 50.7821 1303.41 47.7845 Q1300.33 44.7463 1300.33 39.4801 Q1300.33 33.0797 1304.87 29.5959 Q1309.41 26.1121 1317.75 26.1121 Q1321.88 26.1121 1325.53 26.7198 Q1329.18 27.3274 1332.25 28.5427 Z" fill="#000000" fill-rule="evenodd" fill-opacity="1"></path><path clip-path="url(#clip6900)" d="M 0 0 M1386.78 9.62495 Q1381.35 18.942 1378.72 28.0566 Q1376.09 37.1711 1376.09 46.5287 Q1376.09 55.8863 1378.72 65.0818 Q1381.39 74.2369 1386.78 83.5134 L1380.3 83.5134 Q1374.22 73.9938 1371.18 64.7983 Q1368.19 55.6027 1368.19 46.5287 Q1368.19 37.4952 1371.18 28.3401 Q1374.18 19.1851 1380.3 9.62495 L1386.78 9.62495 Z" fill="#000000" fill-rule="evenodd" fill-opacity="1"></path><path clip-path="url(#clip6900)" d="M 0 0 M1394.6 27.2059 L1402.05 27.2059 L1402.05 72.576 L1394.6 72.576 L1394.6 27.2059 M1394.6 9.54393 L1402.05 9.54393 L1402.05 18.9825 L1394.6 18.9825 L1394.6 9.54393 Z" fill="#000000" fill-rule="evenodd" fill-opacity="1"></path><path clip-path="url(#clip6900)" d="M 0 0 M1447.58 45.1919 L1447.58 72.576 L1440.13 72.576 L1440.13 45.4349 Q1440.13 38.994 1437.62 35.7938 Q1435.11 32.5936 1430.08 32.5936 Q1424.05 32.5936 1420.56 36.4419 Q1417.08 40.2903 1417.08 46.9338 L1417.08 72.576 L1409.59 72.576 L1409.59 27.2059 L1417.08 27.2059 L1417.08 34.2544 Q1419.75 30.163 1423.36 28.1376 Q1427.01 26.1121 1431.74 26.1121 Q1439.56 26.1121 1443.57 30.9732 Q1447.58 35.7938 1447.58 45.1919 Z" fill="#000000" fill-rule="evenodd" fill-opacity="1"></path><path clip-path="url(#clip6900)" d="M 0 0 M1517.1 35.9153 Q1519.89 30.8922 1523.78 28.5022 Q1527.67 26.1121 1532.94 26.1121 Q1540.03 26.1121 1543.87 31.0947 Q1547.72 36.0368 1547.72 45.1919 L1547.72 72.576 L1540.23 72.576 L1540.23 45.4349 Q1540.23 38.913 1537.92 35.7533 Q1535.61 32.5936 1530.87 32.5936 Q1525.08 32.5936 1521.72 36.4419 Q1518.35 40.2903 1518.35 46.9338 L1518.35 72.576 L1510.86 72.576 L1510.86 45.4349 Q1510.86 38.8725 1508.55 35.7533 Q1506.24 32.5936 1501.42 32.5936 Q1495.71 32.5936 1492.35 36.4824 Q1488.98 40.3308 1488.98 46.9338 L1488.98 72.576 L1481.49 72.576 L1481.49 27.2059 L1488.98 27.2059 L1488.98 34.2544 Q1491.54 30.082 1495.1 28.0971 Q1498.67 26.1121 1503.57 26.1121 Q1508.51 26.1121 1511.95 28.6237 Q1515.44 31.1352 1517.1 35.9153 Z" fill="#000000" fill-rule="evenodd" fill-opacity="1"></path><path clip-path="url(#clip6900)" d="M 0 0 M1555.54 27.2059 L1562.99 27.2059 L1562.99 72.576 L1555.54 72.576 L1555.54 27.2059 M1555.54 9.54393 L1562.99 9.54393 L1562.99 18.9825 L1555.54 18.9825 L1555.54 9.54393 Z" fill="#000000" fill-rule="evenodd" fill-opacity="1"></path><path clip-path="url(#clip6900)" d="M 0 0 M1570.81 9.54393 L1578.27 9.54393 L1578.27 72.576 L1570.81 72.576 L1570.81 9.54393 Z" fill="#000000" fill-rule="evenodd" fill-opacity="1"></path><path clip-path="url(#clip6900)" d="M 0 0 M1586.08 9.54393 L1593.54 9.54393 L1593.54 72.576 L1586.08 72.576 L1586.08 9.54393 Z" fill="#000000" fill-rule="evenodd" fill-opacity="1"></path><path clip-path="url(#clip6900)" d="M 0 0 M1601.36 27.2059 L1608.81 27.2059 L1608.81 72.576 L1601.36 72.576 L1601.36 27.2059 M1601.36 9.54393 L1608.81 9.54393 L1608.81 18.9825 L1601.36 18.9825 L1601.36 9.54393 Z" fill="#000000" fill-rule="evenodd" fill-opacity="1"></path><path clip-path="url(#clip6900)" d="M 0 0 M1634.21 32.4315 Q1628.21 32.4315 1624.73 37.1306 Q1621.25 41.7891 1621.25 49.9314 Q1621.25 58.0738 1624.69 62.7728 Q1628.17 67.4314 1634.21 67.4314 Q1640.16 67.4314 1643.65 62.7323 Q1647.13 58.0333 1647.13 49.9314 Q1647.13 41.8701 1643.65 37.1711 Q1640.16 32.4315 1634.21 32.4315 M1634.21 26.1121 Q1643.93 26.1121 1649.48 32.4315 Q1655.03 38.7509 1655.03 49.9314 Q1655.03 61.0714 1649.48 67.4314 Q1643.93 73.7508 1634.21 73.7508 Q1624.45 73.7508 1618.9 67.4314 Q1613.39 61.0714 1613.39 49.9314 Q1613.39 38.7509 1618.9 32.4315 Q1624.45 26.1121 1634.21 26.1121 Z" fill="#000000" fill-rule="evenodd" fill-opacity="1"></path><path clip-path="url(#clip6900)" d="M 0 0 M1700.56 45.1919 L1700.56 72.576 L1693.11 72.576 L1693.11 45.4349 Q1693.11 38.994 1690.6 35.7938 Q1688.09 32.5936 1683.06 32.5936 Q1677.03 32.5936 1673.54 36.4419 Q1670.06 40.2903 1670.06 46.9338 L1670.06 72.576 L1662.57 72.576 L1662.57 27.2059 L1670.06 27.2059 L1670.06 34.2544 Q1672.73 30.163 1676.34 28.1376 Q1679.98 26.1121 1684.72 26.1121 Q1692.54 26.1121 1696.55 30.9732 Q1700.56 35.7938 1700.56 45.1919 Z" fill="#000000" fill-rule="evenodd" fill-opacity="1"></path><path clip-path="url(#clip6900)" d="M 0 0 M1734.47 9.54393 L1741.96 9.54393 L1741.96 46.7717 L1764.2 27.2059 L1773.72 27.2059 L1749.66 48.4326 L1774.74 72.576 L1765.01 72.576 L1741.96 50.4176 L1741.96 72.576 L1734.47 72.576 L1734.47 9.54393 Z" fill="#000000" fill-rule="evenodd" fill-opacity="1"></path><path clip-path="url(#clip6900)" d="M 0 0 M1777.49 12.096 L1785.75 12.096 L1798.47 63.2184 L1811.15 12.096 L1820.35 12.096 L1833.07 63.2184 L1845.75 12.096 L1854.05 12.096 L1838.86 72.576 L1828.57 72.576 L1815.81 20.0763 L1802.93 72.576 L1792.64 72.576 L1777.49 12.096 Z" fill="#000000" fill-rule="evenodd" fill-opacity="1"></path><path clip-path="url(#clip6900)" d="M 0 0 M1899.58 45.1919 L1899.58 72.576 L1892.13 72.576 L1892.13 45.4349 Q1892.13 38.994 1889.62 35.7938 Q1887.11 32.5936 1882.08 32.5936 Q1876.05 32.5936 1872.56 36.4419 Q1869.08 40.2903 1869.08 46.9338 L1869.08 72.576 L1861.59 72.576 L1861.59 9.54393 L1869.08 9.54393 L1869.08 34.2544 Q1871.75 30.163 1875.36 28.1376 Q1879.01 26.1121 1883.74 26.1121 Q1891.56 26.1121 1895.57 30.9732 Q1899.58 35.7938 1899.58 45.1919 Z" fill="#000000" fill-rule="evenodd" fill-opacity="1"></path><path clip-path="url(#clip6900)" d="M 0 0 M1906.23 9.62495 L1912.71 9.62495 Q1918.79 19.1851 1921.78 28.3401 Q1924.82 37.4952 1924.82 46.5287 Q1924.82 55.6027 1921.78 64.7983 Q1918.79 73.9938 1912.71 83.5134 L1906.23 83.5134 Q1911.62 74.2369 1914.25 65.0818 Q1916.92 55.8863 1916.92 46.5287 Q1916.92 37.1711 1914.25 28.0566 Q1911.62 18.942 1906.23 9.62495 Z" fill="#000000" fill-rule="evenodd" fill-opacity="1"></path><polyline clip-path="url(#clip6902)" style="stroke:#009af9; stroke-width:4; stroke-opacity:1; fill:none" points="
  228.088,336.349 242.782,499.157 256.527,364.762 271.221,405.042 285.44,162.047 300.134,339.261 314.354,205.153 329.047,991.062 343.741,874.746 357.96,889.956 
  372.654,1244.69 386.873,1447.87 401.567,867.487 416.26,1187.81 429.532,1213.08 444.226,1181.59 458.445,1167.07 473.139,1171.58 487.358,951.827 502.052,1361.99 
  516.745,920.366 530.965,743.613 545.658,904.955 559.878,1028.46 574.571,642.004 589.265,978.304 602.537,703.504 617.23,830.259 631.45,575.077 646.143,978.919 
  660.363,718.766 675.056,1353.51 689.75,832.793 703.969,617.98 718.663,777.189 732.883,948.875 747.576,575.59 762.27,839.988 775.541,673.21 790.235,868.416 
  804.454,525.287 819.148,713.967 833.367,559.149 848.061,826.751 862.755,351.971 876.974,645.966 891.668,886.49 905.887,1067.26 920.581,681.994 935.274,783.272 
  949.02,697.854 963.713,966.785 977.933,977.889 992.627,901.284 1006.85,1104.58 1021.54,1292.85 1036.23,810.719 1050.45,907.256 1065.15,1002.01 1079.37,1056.11 
  1094.06,660.371 1108.75,1009.85 1122.02,896.769 1136.72,923.323 1150.94,894.102 1165.63,922.516 1179.85,620.981 1194.54,1025.63 1209.24,406.608 1223.46,610.206 
  1238.15,744.418 1252.37,1192.81 1267.06,682.144 1281.76,910.137 1295.03,667.381 1309.72,949.661 1323.94,671.378 1338.64,883.618 1352.86,535.623 1367.55,1061.73 
  1382.24,694.286 1396.46,607.238 1411.16,703.485 1425.38,950.95 1440.07,629.359 1454.76,812.566 1468.03,601.053 1482.73,793.931 1496.95,795.729 1511.64,827.556 
  1525.86,516.011 1540.55,960.869 1555.25,751.443 1569.47,474.604 1584.16,566.354 1598.38,848.286 1613.07,455.856 1627.77,611.817 1641.51,426.276 1656.21,641.197 
  1670.43,650.431 1685.12,641.032 1699.34,577.819 1714.03,1022.45 1728.73,580.14 1742.95,424.46 1757.64,447.099 1771.86,594.474 1786.55,211.075 1801.25,747.683 
  1814.52,500.364 1829.21,791.136 1843.43,738.343 1858.12,711.765 1872.34,557.626 1887.04,988.539 1901.73,638.737 1915.95,331.611 1930.64,474.949 1944.86,692.645 
  1959.56,333.308 1974.25,398.352 1987.52,214.318 2002.22,705.356 2016.43,630.347 2031.13,582.184 2045.35,418.236 2060.04,937.232 2074.74,673.762 2088.95,475.918 
  2103.65,531.036 2117.87,740.561 2132.56,163.288 2147.25,591.243 2160.53,474.72 2175.22,564.521 2189.44,590.254 2204.13,763.851 2218.35,646.427 2233.05,1127.14 
  2247.74,803.43 2261.96,697.611 2276.65,653.218 2290.87,1142.46 
  "></polyline>
<polyline clip-path="url(#clip6902)" style="stroke:#e26f46; stroke-width:4; stroke-opacity:1; fill:none" points="
  228.088,360.252 242.782,368.839 256.527,347.051 271.221,347.415 285.44,331.015 300.134,412.854 314.354,480.154 329.047,529.004 343.741,638.995 357.96,769.349 
  372.654,857.529 386.873,963.598 401.567,1089.59 416.26,1113.4 429.532,1149.95 444.226,1185.15 458.445,1148.54 473.139,1137.81 487.358,1144.41 502.052,1088.89 
  516.745,1050.37 530.965,1031.23 545.658,965.599 559.878,941.439 574.571,910.399 589.265,843.933 602.537,800.772 617.23,830.185 631.45,806.911 646.143,847.543 
  660.363,871.392 675.056,826.351 689.75,835.562 703.969,850.389 718.663,850.453 732.883,833.086 747.576,827.392 762.27,766.755 775.541,728.317 790.235,740.315 
  804.454,713.06 819.148,697.795 833.367,669.842 848.061,645.59 862.755,672.25 876.974,697.105 891.668,716.693 905.887,725.356 920.581,742.694 935.274,760.199 
  949.02,838.438 963.713,870.353 977.933,897.614 992.627,925.814 1006.85,941.904 1021.54,957.402 1036.23,995.421 1050.45,1006.59 1065.15,966.897 1079.37,980.468 
  1094.06,954.491 1108.75,908.3 1122.02,918.723 1136.72,920.631 1150.94,873.002 1165.63,869.192 1179.85,837.472 1194.54,787.517 1209.24,768.473 1223.46,802.158 
  1238.15,775.664 1252.37,774.116 1267.06,779.916 1281.76,770.42 1295.03,803.517 1309.72,837.693 1323.94,811.594 1338.64,795.209 1352.86,796.727 1367.55,758.864 
  1382.24,763.377 1396.46,763.538 1411.16,758.286 1425.38,749.404 1440.07,757.583 1454.76,724.108 1468.03,736.789 1482.73,764.329 1496.95,740.894 1511.64,742.134 
  1525.86,757.395 1540.55,715.15 1555.25,710.812 1569.47,717.607 1584.16,675.123 1598.38,648.155 1613.07,636.938 1627.77,596.979 1641.51,584.353 1656.21,605.156 
  1670.43,606.589 1685.12,628.361 1699.34,643.896 1714.03,620.476 1728.73,623.079 1742.95,617.239 1757.64,562.319 1771.86,575.651 1786.55,565.969 1801.25,537.054 
  1814.52,556.829 1829.21,592.742 1843.43,606.558 1858.12,655.816 1872.34,709.274 1887.04,657.265 1901.73,654.088 1915.95,641.777 1930.64,591.148 1944.86,551.971 
  1959.56,509.057 1974.25,473.659 1987.52,472.611 2002.22,503.932 2016.43,496.843 2031.13,527.417 2045.35,569.973 2060.04,579.669 2074.74,619.259 2088.95,623.659 
  2103.65,565.277 2117.87,566.409 2132.56,573.47 2147.25,526.881 2160.53,516.443 2175.22,552.434 2189.44,566.858 2204.13,615.18 2218.35,695.198 2233.05,708.494 
  2247.74,730.806 2261.96,803.049 2276.65,872.075 2290.87,919.401 
  "></polyline>
</svg>