<svg xmlns="http://www.w3.org/2000/svg" xmlns:xlink="http://www.w3.org/1999/xlink" width="600" height="400" viewBox="0 0 2400 1600" style="width: 100%; height: 100%;">
<defs>
  <clipPath id="clip5800">
    <rect x="0" y="0" width="2400" height="1600"></rect>
  </clipPath>
</defs>
<path clip-path="url(#clip5800)" d="
M0 1600 L2400 1600 L2400 0 L0 0  Z
  " fill="#ffffff" fill-rule="evenodd" fill-opacity="1"></path>
<defs>
  <clipPath id="clip5801">
    <rect x="480" y="0" width="1681" height="1600"></rect>
  </clipPath>
</defs>
<path clip-path="url(#clip5800)" d="
M188.156 1503.47 L2321.26 1503.47 L2321.26 125.984 L188.156 125.984  Z
  " fill="#ffffff" fill-rule="evenodd" fill-opacity="1"></path>
<defs>
  <clipPath id="clip5802">
    <rect x="188" y="125" width="2134" height="1378"></rect>
  </clipPath>
</defs>
<polyline clip-path="url(#clip5802)" style="stroke:#000000; stroke-width:1.6; stroke-opacity:0.1; fill:none" points="
  248.527,1503.47 248.527,125.984 
  "></polyline>
<polyline clip-path="url(#clip5802)" style="stroke:#000000; stroke-width:1.6; stroke-opacity:0.1; fill:none" points="
  778.295,1503.47 778.295,125.984 
  "></polyline>
<polyline clip-path="url(#clip5802)" style="stroke:#000000; stroke-width:1.6; stroke-opacity:0.1; fill:none" points="
  1307.77,1503.47 1307.77,125.984 
  "></polyline>
<polyline clip-path="url(#clip5802)" style="stroke:#000000; stroke-width:1.6; stroke-opacity:0.1; fill:none" points="
  1837.25,1503.47 1837.25,125.984 
  "></polyline>
<polyline clip-path="url(#clip5802)" style="stroke:#000000; stroke-width:1.6; stroke-opacity:0.1; fill:none" points="
  188.156,1349.83 2321.26,1349.83 
  "></polyline>
<polyline clip-path="url(#clip5802)" style="stroke:#000000; stroke-width:1.6; stroke-opacity:0.1; fill:none" points="
  188.156,1158.72 2321.26,1158.72 
  "></polyline>
<polyline clip-path="url(#clip5802)" style="stroke:#000000; stroke-width:1.6; stroke-opacity:0.1; fill:none" points="
  188.156,967.614 2321.26,967.614 
  "></polyline>
<polyline clip-path="url(#clip5802)" style="stroke:#000000; stroke-width:1.6; stroke-opacity:0.1; fill:none" points="
  188.156,776.508 2321.26,776.508 
  "></polyline>
<polyline clip-path="url(#clip5802)" style="stroke:#000000; stroke-width:1.6; stroke-opacity:0.1; fill:none" points="
  188.156,585.403 2321.26,585.403 
  "></polyline>
<polyline clip-path="url(#clip5802)" style="stroke:#000000; stroke-width:1.6; stroke-opacity:0.1; fill:none" points="
  188.156,394.297 2321.26,394.297 
  "></polyline>
<polyline clip-path="url(#clip5802)" style="stroke:#000000; stroke-width:1.6; stroke-opacity:0.1; fill:none" points="
  188.156,203.191 2321.26,203.191 
  "></polyline>
<polyline clip-path="url(#clip5800)" style="stroke:#000000; stroke-width:3.2; stroke-opacity:1; fill:none" points="
  188.156,1503.47 2321.26,1503.47 
  "></polyline>
<polyline clip-path="url(#clip5800)" style="stroke:#000000; stroke-width:3.2; stroke-opacity:1; fill:none" points="
  188.156,1503.47 188.156,125.984 
  "></polyline>
<polyline clip-path="url(#clip5800)" style="stroke:#000000; stroke-width:3.2; stroke-opacity:1; fill:none" points="
  248.527,1503.47 248.527,1482.81 
  "></polyline>
<polyline clip-path="url(#clip5800)" style="stroke:#000000; stroke-width:3.2; stroke-opacity:1; fill:none" points="
  778.295,1503.47 778.295,1482.81 
  "></polyline>
<polyline clip-path="url(#clip5800)" style="stroke:#000000; stroke-width:3.2; stroke-opacity:1; fill:none" points="
  1307.77,1503.47 1307.77,1482.81 
  "></polyline>
<polyline clip-path="url(#clip5800)" style="stroke:#000000; stroke-width:3.2; stroke-opacity:1; fill:none" points="
  1837.25,1503.47 1837.25,1482.81 
  "></polyline>
<polyline clip-path="url(#clip5800)" style="stroke:#000000; stroke-width:3.2; stroke-opacity:1; fill:none" points="
  188.156,1349.83 220.153,1349.83 
  "></polyline>
<polyline clip-path="url(#clip5800)" style="stroke:#000000; stroke-width:3.2; stroke-opacity:1; fill:none" points="
  188.156,1158.72 220.153,1158.72 
  "></polyline>
<polyline clip-path="url(#clip5800)" style="stroke:#000000; stroke-width:3.2; stroke-opacity:1; fill:none" points="
  188.156,967.614 220.153,967.614 
  "></polyline>
<polyline clip-path="url(#clip5800)" style="stroke:#000000; stroke-width:3.2; stroke-opacity:1; fill:none" points="
  188.156,776.508 220.153,776.508 
  "></polyline>
<polyline clip-path="url(#clip5800)" style="stroke:#000000; stroke-width:3.2; stroke-opacity:1; fill:none" points="
  188.156,585.403 220.153,585.403 
  "></polyline>
<polyline clip-path="url(#clip5800)" style="stroke:#000000; stroke-width:3.2; stroke-opacity:1; fill:none" points="
  188.156,394.297 220.153,394.297 
  "></polyline>
<polyline clip-path="url(#clip5800)" style="stroke:#000000; stroke-width:3.2; stroke-opacity:1; fill:none" points="
  188.156,203.191 220.153,203.191 
  "></polyline>
<g clip-path="url(#clip5800)">
<text style="fill:#000000; fill-opacity:1; font-family:Arial,Helvetica Neue,Helvetica,sans-serif; font-size:48px; text-anchor:middle;" transform="rotate(0, 248.527, 1557.47)" x="248.527" y="1557.47">2000-01-01</text>
</g>
<g clip-path="url(#clip5800)">
<text style="fill:#000000; fill-opacity:1; font-family:Arial,Helvetica Neue,Helvetica,sans-serif; font-size:48px; text-anchor:middle;" transform="rotate(0, 778.295, 1557.47)" x="778.295" y="1557.47">2005-01-01</text>
</g>
<g clip-path="url(#clip5800)">
<text style="fill:#000000; fill-opacity:1; font-family:Arial,Helvetica Neue,Helvetica,sans-serif; font-size:48px; text-anchor:middle;" transform="rotate(0, 1307.77, 1557.47)" x="1307.77" y="1557.47">2010-01-01</text>
</g>
<g clip-path="url(#clip5800)">
<text style="fill:#000000; fill-opacity:1; font-family:Arial,Helvetica Neue,Helvetica,sans-serif; font-size:48px; text-anchor:middle;" transform="rotate(0, 1837.25, 1557.47)" x="1837.25" y="1557.47">2015-01-01</text>
</g>
<g clip-path="url(#clip5800)">
<text style="fill:#000000; fill-opacity:1; font-family:Arial,Helvetica Neue,Helvetica,sans-serif; font-size:48px; text-anchor:end;" transform="rotate(0, 164.156, 1367.33)" x="164.156" y="1367.33">8.25</text>
</g>
<g clip-path="url(#clip5800)">
<text style="fill:#000000; fill-opacity:1; font-family:Arial,Helvetica Neue,Helvetica,sans-serif; font-size:48px; text-anchor:end;" transform="rotate(0, 164.156, 1176.22)" x="164.156" y="1176.22">8.50</text>
</g>
<g clip-path="url(#clip5800)">
<text style="fill:#000000; fill-opacity:1; font-family:Arial,Helvetica Neue,Helvetica,sans-serif; font-size:48px; text-anchor:end;" transform="rotate(0, 164.156, 985.114)" x="164.156" y="985.114">8.75</text>
</g>
<g clip-path="url(#clip5800)">
<text style="fill:#000000; fill-opacity:1; font-family:Arial,Helvetica Neue,Helvetica,sans-serif; font-size:48px; text-anchor:end;" transform="rotate(0, 164.156, 794.008)" x="164.156" y="794.008">9.00</text>
</g>
<g clip-path="url(#clip5800)">
<text style="fill:#000000; fill-opacity:1; font-family:Arial,Helvetica Neue,Helvetica,sans-serif; font-size:48px; text-anchor:end;" transform="rotate(0, 164.156, 602.903)" x="164.156" y="602.903">9.25</text>
</g>
<g clip-path="url(#clip5800)">
<text style="fill:#000000; fill-opacity:1; font-family:Arial,Helvetica Neue,Helvetica,sans-serif; font-size:48px; text-anchor:end;" transform="rotate(0, 164.156, 411.797)" x="164.156" y="411.797">9.50</text>
</g>
<g clip-path="url(#clip5800)">
<text style="fill:#000000; fill-opacity:1; font-family:Arial,Helvetica Neue,Helvetica,sans-serif; font-size:48px; text-anchor:end;" transform="rotate(0, 164.156, 220.691)" x="164.156" y="220.691">9.75</text>
</g>
<g clip-path="url(#clip5800)">
<text style="fill:#000000; fill-opacity:1; font-family:Arial,Helvetica Neue,Helvetica,sans-serif; font-size:84px; text-anchor:middle;" transform="rotate(0, 1254.71, 73.2)" x="1254.71" y="73.2">Land use (in %): Built-up area</text>
</g>
<polyline clip-path="url(#clip5802)" style="stroke:#009af9; stroke-width:3.2; stroke-opacity:1; fill:none" points="
  248.527,1464.49 354.655,1388.05 460.492,1235.16 566.33,1158.72 672.167,1005.84 778.295,1005.84 884.132,929.393 989.969,852.951 1095.81,700.066 1201.93,623.624 
  1307.77,547.181 1413.61,394.297 1519.45,394.297 1625.57,317.854 1731.41,241.412 1837.25,241.412 1943.09,164.97 2049.21,164.97 2155.05,241.412 2260.89,164.97 
  
  "></polyline>
</svg>