<svg xmlns="http://www.w3.org/2000/svg" xmlns:xlink="http://www.w3.org/1999/xlink" width="600" height="400" viewBox="0 0 2400 1600" style="width: 100%; height: 100%;">
<defs>
  <clipPath id="clip2100">
    <rect x="0" y="0" width="2400" height="1600"></rect>
  </clipPath>
</defs>
<path clip-path="url(#clip2100)" d="
M0 1600 L2400 1600 L2400 0 L0 0  Z
  " fill="#ffffff" fill-rule="evenodd" fill-opacity="1"></path>
<defs>
  <clipPath id="clip2101">
    <rect x="480" y="0" width="1681" height="1600"></rect>
  </clipPath>
</defs>
<path clip-path="url(#clip2100)" d="
M201.538 1503.47 L2321.26 1503.47 L2321.26 125.984 L201.538 125.984  Z
  " fill="#ffffff" fill-rule="evenodd" fill-opacity="1"></path>
<defs>
  <clipPath id="clip2102">
    <rect x="201" y="125" width="2121" height="1378"></rect>
  </clipPath>
</defs>
<polyline clip-path="url(#clip2102)" style="stroke:#000000; stroke-width:1.6; stroke-opacity:0.1; fill:none" points="
  261.53,1503.47 261.53,125.984 
  "></polyline>
<polyline clip-path="url(#clip2102)" style="stroke:#000000; stroke-width:1.6; stroke-opacity:0.1; fill:none" points="
  761.578,1503.47 761.578,125.984 
  "></polyline>
<polyline clip-path="url(#clip2102)" style="stroke:#000000; stroke-width:1.6; stroke-opacity:0.1; fill:none" points="
  1261.63,1503.47 1261.63,125.984 
  "></polyline>
<polyline clip-path="url(#clip2102)" style="stroke:#000000; stroke-width:1.6; stroke-opacity:0.1; fill:none" points="
  1761.22,1503.47 1761.22,125.984 
  "></polyline>
<polyline clip-path="url(#clip2102)" style="stroke:#000000; stroke-width:1.6; stroke-opacity:0.1; fill:none" points="
  2261.27,1503.47 2261.27,125.984 
  "></polyline>
<polyline clip-path="url(#clip2102)" style="stroke:#000000; stroke-width:1.6; stroke-opacity:0.1; fill:none" points="
  201.538,1431.57 2321.26,1431.57 
  "></polyline>
<polyline clip-path="url(#clip2102)" style="stroke:#000000; stroke-width:1.6; stroke-opacity:0.1; fill:none" points="
  201.538,1086.88 2321.26,1086.88 
  "></polyline>
<polyline clip-path="url(#clip2102)" style="stroke:#000000; stroke-width:1.6; stroke-opacity:0.1; fill:none" points="
  201.538,742.198 2321.26,742.198 
  "></polyline>
<polyline clip-path="url(#clip2102)" style="stroke:#000000; stroke-width:1.6; stroke-opacity:0.1; fill:none" points="
  201.538,397.514 2321.26,397.514 
  "></polyline>
<polyline clip-path="url(#clip2100)" style="stroke:#000000; stroke-width:3.2; stroke-opacity:1; fill:none" points="
  201.538,1503.47 2321.26,1503.47 
  "></polyline>
<polyline clip-path="url(#clip2100)" style="stroke:#000000; stroke-width:3.2; stroke-opacity:1; fill:none" points="
  201.538,1503.47 201.538,125.984 
  "></polyline>
<polyline clip-path="url(#clip2100)" style="stroke:#000000; stroke-width:3.2; stroke-opacity:1; fill:none" points="
  261.53,1503.47 261.53,1482.81 
  "></polyline>
<polyline clip-path="url(#clip2100)" style="stroke:#000000; stroke-width:3.2; stroke-opacity:1; fill:none" points="
  761.578,1503.47 761.578,1482.81 
  "></polyline>
<polyline clip-path="url(#clip2100)" style="stroke:#000000; stroke-width:3.2; stroke-opacity:1; fill:none" points="
  1261.63,1503.47 1261.63,1482.81 
  "></polyline>
<polyline clip-path="url(#clip2100)" style="stroke:#000000; stroke-width:3.2; stroke-opacity:1; fill:none" points="
  1761.22,1503.47 1761.22,1482.81 
  "></polyline>
<polyline clip-path="url(#clip2100)" style="stroke:#000000; stroke-width:3.2; stroke-opacity:1; fill:none" points="
  2261.27,1503.47 2261.27,1482.81 
  "></polyline>
<polyline clip-path="url(#clip2100)" style="stroke:#000000; stroke-width:3.2; stroke-opacity:1; fill:none" points="
  201.538,1431.57 233.333,1431.57 
  "></polyline>
<polyline clip-path="url(#clip2100)" style="stroke:#000000; stroke-width:3.2; stroke-opacity:1; fill:none" points="
  201.538,1086.88 233.333,1086.88 
  "></polyline>
<polyline clip-path="url(#clip2100)" style="stroke:#000000; stroke-width:3.2; stroke-opacity:1; fill:none" points="
  201.538,742.198 233.333,742.198 
  "></polyline>
<polyline clip-path="url(#clip2100)" style="stroke:#000000; stroke-width:3.2; stroke-opacity:1; fill:none" points="
  201.538,397.514 233.333,397.514 
  "></polyline>
<g clip-path="url(#clip2100)">
<text style="fill:#000000; fill-opacity:1; font-family:Arial,Helvetica Neue,Helvetica,sans-serif; font-size:48px; text-anchor:middle;" transform="rotate(0, 261.53, 1557.47)" x="261.53" y="1557.47">2007-01-01</text>
</g>
<g clip-path="url(#clip2100)">
<text style="fill:#000000; fill-opacity:1; font-family:Arial,Helvetica Neue,Helvetica,sans-serif; font-size:48px; text-anchor:middle;" transform="rotate(0, 761.578, 1557.47)" x="761.578" y="1557.47">2010-01-01</text>
</g>
<g clip-path="url(#clip2100)">
<text style="fill:#000000; fill-opacity:1; font-family:Arial,Helvetica Neue,Helvetica,sans-serif; font-size:48px; text-anchor:middle;" transform="rotate(0, 1261.63, 1557.47)" x="1261.63" y="1557.47">2013-01-01</text>
</g>
<g clip-path="url(#clip2100)">
<text style="fill:#000000; fill-opacity:1; font-family:Arial,Helvetica Neue,Helvetica,sans-serif; font-size:48px; text-anchor:middle;" transform="rotate(0, 1761.22, 1557.47)" x="1761.22" y="1557.47">2016-01-01</text>
</g>
<g clip-path="url(#clip2100)">
<text style="fill:#000000; fill-opacity:1; font-family:Arial,Helvetica Neue,Helvetica,sans-serif; font-size:48px; text-anchor:middle;" transform="rotate(0, 2261.27, 1557.47)" x="2261.27" y="1557.47">2019-01-01</text>
</g>
<g clip-path="url(#clip2100)">
<text style="fill:#000000; fill-opacity:1; font-family:Arial,Helvetica Neue,Helvetica,sans-serif; font-size:48px; text-anchor:end;" transform="rotate(0, 177.538, 1449.07)" x="177.538" y="1449.07">3500</text>
</g>
<g clip-path="url(#clip2100)">
<text style="fill:#000000; fill-opacity:1; font-family:Arial,Helvetica Neue,Helvetica,sans-serif; font-size:48px; text-anchor:end;" transform="rotate(0, 177.538, 1104.38)" x="177.538" y="1104.38">4000</text>
</g>
<g clip-path="url(#clip2100)">
<text style="fill:#000000; fill-opacity:1; font-family:Arial,Helvetica Neue,Helvetica,sans-serif; font-size:48px; text-anchor:end;" transform="rotate(0, 177.538, 759.698)" x="177.538" y="759.698">4500</text>
</g>
<g clip-path="url(#clip2100)">
<text style="fill:#000000; fill-opacity:1; font-family:Arial,Helvetica Neue,Helvetica,sans-serif; font-size:48px; text-anchor:end;" transform="rotate(0, 177.538, 415.014)" x="177.538" y="415.014">5000</text>
</g>
<g clip-path="url(#clip2100)">
<text style="fill:#000000; fill-opacity:1; font-family:Arial,Helvetica Neue,Helvetica,sans-serif; font-size:84px; text-anchor:middle;" transform="rotate(0, 1261.4, 73.2)" x="1261.4" y="73.2">Real Estate Values (Source: Observatoire de l'Habitat)</text>
</g>
<polyline clip-path="url(#clip2102)" style="stroke:#009af9; stroke-width:3.2; stroke-opacity:1; fill:none" points="
  261.53,1457.28 428.06,1422.16 595.047,1464.49 761.578,1369.83 928.109,1271.87 1094.64,1188.02 1261.63,1104.78 1428.16,991.52 1594.69,939.443 1761.22,769.787 
  1928.21,631.333 2094.74,515.802 2261.27,164.97 
  "></polyline>
</svg>